<svg xmlns="http://www.w3.org/2000/svg" viewBox="0 0 50.4 63"><path d="M26.53 10.843c-.014.148-.033.294-.033.444 0 3.495 2.713 6.326 6.058 6.326 3.344 0 6.055-2.832 6.055-6.326 0-.15-.02-.297-.03-.444H26.53zM40.253 8.155c-.396-3.512-2.425-6.392-5.14-7.52V6.04c0 .32-.26.578-.58.578-.32 0-.58-.26-.58-.58V.273c-.447-.097-.907-.155-1.38-.155-.467 0-.923.06-1.368.156V6.04c0 .32-.26.578-.578.578-.32 0-.58-.26-.58-.58V.64c-2.71 1.133-4.752 4.024-5.174 7.517h-2V9.66H42.26V8.155h-2.007z"/><g><path d="M40.712 19.183h-2.604l-4.02 8.934v-9.11H31.31v9.02l-3.98-8.85h-2.602c-4.237 0-7.49 3.06-8.182 7.14L13.21 14.732c-.08-.28-.305-.494-.588-.562l-5.5-1.325c-1.735-.197-3.135.067-4.276.81-1.344.874-2.293 2.117-2.672 3.503C-.18 18.45.014 19.8.662 21.02c.008.022.005.043.015.064l7.487 16.01-.518.256c-3.762 1.85-1.076 7.31 2.687 5.46l.41-.202 2.608 5.576c.422.902 1.23 1.62 2.22 1.97.465.166.958.247 1.464.247.776 0 1.583-.19 2.363-.572 2.24-1.093 3.236-3.398 2.32-5.363l-.04-.08c.014-.106.007-.216-.024-.324l-.547-1.9c.375-.492.628-1.142.628-1.992V28.5h1.697l-.002 20.776h18.907l.007-20.775h1.66v17.826c0 4.065 5.3 4.065 5.29 0V28.07c0-4.488-3.326-8.887-8.58-8.887zm-38.455 1.41c-.618-.95-.797-1.992-.52-3.01.273-1 .98-1.914 1.992-2.57.824-.538 1.84-.715 3.11-.578l4.943 1.197 5.686 19.75-8.103-17.328c-.014-.03-.04-.05-.056-.076-.1-.255-.226-.504-.38-.743-1.037-1.593-3.178-2.046-4.773-1.01-1.35.88-1.733 2.69-.856 4.042.755 1.154 2.304 1.482 3.457.733.997-.65 1.28-1.99.634-2.988-.12-.188-.27-.35-.445-.482.245.14.46.337.624.59.748 1.15.42 2.695-.728 3.442-1.534.996-3.59.56-4.585-.97zm16.43 27.778c-.895.438-1.81.525-2.576.257-.58-.207-1.052-.617-1.29-1.13l-2.622-5.604.136-.067c3.763-1.847 1.077-7.31-2.686-5.458l-.027.014-6.035-12.907c1.352.415 2.865.273 4.14-.554.62-.403 1.08-.953 1.395-1.57l11.127 23.8c.533 1.142-.138 2.527-1.56 3.22z"/></g></svg>