<svg xmlns="http://www.w3.org/2000/svg" xmlns:xlink="http://www.w3.org/1999/xlink" version="1.1" x="0px" y="0px" viewBox="0 0 100 125" enable-background="new 0 0 100 100" xml:space="preserve"><g><path fill="#000000" d="M77.908,53.112c0-2.938,0.131-5.477,2.27-10.284C82.506,37.583,95,30.946,95,26.136   c0-4.569-0.39-7.415-2.716-7.69c-1.179-0.645-5.146,2.714-6.739,4.135c-0.421,0.378-2.084-3.103-2.218-3.317   c-0.753-1.218-1.888-2.166-3.109-2.942c-5.84-3.712-15.729-2.806-20.883,1.886c-3.175,2.89-4.905,7.236-5.166,11.475   c-0.019,0.286-0.029,0.574-0.029,0.86c0,3.171,0.204,4.849,1.022,7.031c1.463,3.91,5.477,7.941,9.842,8.181   c3.044,0.167,6.228-0.982,6.228-4.396c0-2.819-1.652-4.202-3.403-5.667c-1.478-1.242-3.007-2.525-3.007-4.615V25.07   c1.471,2.76,2.625,6.12,5.066,8.164c1.919,1.611,4.548,3.81,4.548,8.125c0,5.185-4.296,6.915-8.769,7.44   c-5.527,0.651-8.909-3.86-12.078-7.695c-0.042-0.054-4.344,0.968-4.751,1.035c-2.637,0.43-5.256,0.597-7.924,0.73   c-11.26,0.557-28.676-1.93-31.374-15.665c-0.908-4.609,3.63-9.426,4.993-10.808c0.81-0.818,0.812-2.132,0.05-3.021   c-0.826-0.968-2.299-1.085-3.23-0.219C9.55,14.824,5,20.539,5,27.739c0,8.625,5.076,14.017,7.603,16.166   c0.885,0.751,1.45,1.811,1.538,2.967l1.673,21.716c0.09,1.156-0.061,2.316-0.432,3.409l-1.114,3.275   c-0.305,0.889-0.455,1.817-0.455,2.754v7.265c0,1.181,0.954,2.137,2.137,2.137h6.409c0,0,0.574-1.458,0-2.137   c-1.118-1.318-2.136-2.136-2.136-2.136v-2.137l11.273-10.136c0.394-0.351,0.899-0.547,1.427-0.547h2.255h32.703   c0.891,0,1.688,0.555,1.999,1.388l3.808,10.159c1.252,3.338,4.442,5.546,8.004,5.546h4.763v-0.238c0-1.423-0.705-2.758-1.888-3.551   c-1.116-0.751-2.587-1.752-3.987-2.754c-2.806-2.003-2.67-10.549-2.67-10.549V53.112z M74.703,25.469   c0-1.77,1.434-3.205,3.205-3.205c1.767,0,3.205,1.435,3.205,3.205c0,1.771-1.438,3.205-3.205,3.205   C76.137,28.673,74.703,27.24,74.703,25.469"/><path fill="#000000" d="M26.632,81.018c0,3.541,2.869,6.41,6.41,6.41h6.41l0.004-0.259c0.042-2.339-1.94-4.204-4.273-4.014h-0.004   V70.335l-8.546,8.546V81.018z"/><path fill="#000000" d="M69.362,72.472h-8.546v6.723c0,2.426,1.371,4.646,3.541,5.731l1.914,0.956   c1.418,0.711,4.066,1.364,3.092-0.591C67.787,82.142,66.322,79.724,69.362,72.472"/></g></svg>
