<svg xmlns="http://www.w3.org/2000/svg" viewBox="0 0 100 100"><path d="M77.908 53.112c0-2.938.13-5.477 2.27-10.284C82.506 37.583 95 30.946 95 26.136c0-4.57-.39-7.415-2.716-7.69-1.18-.645-5.146 2.714-6.74 4.135-.42.38-2.083-3.102-2.217-3.316-.753-1.218-1.888-2.166-3.11-2.942-5.84-3.712-15.728-2.806-20.882 1.886-3.175 2.89-4.905 7.236-5.166 11.475-.02.286-.03.574-.03.86 0 3.17.204 4.85 1.022 7.03 1.463 3.91 5.477 7.942 9.842 8.182 3.044.167 6.228-.982 6.228-4.396 0-2.82-1.652-4.203-3.403-5.668-1.48-1.242-3.008-2.525-3.008-4.615V25.07c1.47 2.76 2.625 6.12 5.066 8.164 1.92 1.61 4.548 3.81 4.548 8.125 0 5.184-4.296 6.914-8.77 7.44-5.526.65-8.908-3.86-12.077-7.696-.043-.054-4.345.968-4.752 1.035-2.637.43-5.256.596-7.924.73-11.26.556-28.676-1.93-31.374-15.666-.908-4.61 3.63-9.426 4.993-10.808.81-.818.812-2.132.05-3.02-.826-.97-2.3-1.086-3.23-.22C9.55 14.824 5 20.54 5 27.74c0 8.624 5.076 14.016 7.603 16.165.885.75 1.45 1.81 1.538 2.967l1.674 21.716c.09 1.156-.06 2.316-.432 3.41l-1.114 3.274c-.305.89-.455 1.817-.455 2.754v7.265c0 1.182.954 2.138 2.137 2.138h6.41s.573-1.458 0-2.137c-1.12-1.317-2.137-2.135-2.137-2.135v-2.137l11.273-10.136c.394-.35.9-.547 1.427-.547H67.88c.892 0 1.69.555 2 1.388l3.808 10.16c1.252 3.337 4.442 5.545 8.004 5.545h4.763v-.238c0-1.423-.705-2.758-1.888-3.55-1.116-.752-2.587-1.753-3.987-2.755-2.806-2.003-2.67-10.55-2.67-10.55V53.113zM74.703 25.47c0-1.77 1.434-3.206 3.205-3.206 1.767 0 3.205 1.435 3.205 3.205s-1.438 3.204-3.205 3.204c-1.77 0-3.205-1.434-3.205-3.205"/><path d="M26.632 81.018c0 3.54 2.87 6.41 6.41 6.41h6.41l.004-.26c.042-2.338-1.94-4.203-4.273-4.013h-.004v-12.82l-8.547 8.546v2.138zM69.362 72.472h-8.546v6.723c0 2.426 1.37 4.646 3.54 5.73l1.915.957c1.42.71 4.067 1.364 3.093-.59-1.576-3.15-3.04-5.568 0-12.82"/></svg>