<svg xmlns="http://www.w3.org/2000/svg" xmlns:xlink="http://www.w3.org/1999/xlink" version="1.1" x="0px" y="0px" viewBox="0 0 100 125" enable-background="new 0 0 100 100" xml:space="preserve"><g><path d="M47,78c4.418,0,8,3.582,8,8s-3.582,8-8,8c-4.417,0-8-3.582-8-8S42.583,78,47,78 M47,74c-6.617,0-12,5.383-12,12   s5.383,12,12,12c6.617,0,12-5.383,12-12S53.617,74,47,74L47,74z"/><path d="M29,34v15H8V34H29 M28.905,30H8c-2.209,0-4,1.791-4,4v15c0,2.209,1.791,4,4,4h20.905C31.114,53,33,51.209,33,49V34   c0-2.209-1.839-4-4.048-4H28.905z"/><path d="M61,34v15H40V34H61 M60.904,30H40c-2.209,0-4,1.791-4,4v15c0,2.209,1.791,4,4,4h20.904C63.113,53,65,51.209,65,49V34   c0-2.209-1.839-4-4.048-4H60.904z"/><path d="M82,34l4,21v21H72V34H82 M81.904,30H72c-2.209,0-4,1.791-4,4v42c0,2.209,1.791,4,4,4h13.904C88.113,80,90,78.209,90,76V55   c0-0.251-0.071-0.502-0.118-0.748l-4.024-21C85.498,31.365,83.837,30,81.916,30H81.904z"/><path d="M93,30c-1-5-5-9-10-9H1v4h4h3h75c3.23,0,5.503,2.91,6.078,5.785L95,60.359v19.584c0,1.1-0.897,2.057-2,2.057H65.576   C63.732,73,56.104,67.015,47,67.015S30.268,73,28.424,82H8H5H1v4h31c0-8,6.717-14.985,15-14.985C55.283,71.015,62,78,62,86h31   c3.313,0,6-2.746,6-6.057c0-1.664,0-19.98,0-19.98L93,30z"/></g><text x="0" y="115" fill="#000000" font-size="5px" font-weight="bold" font-family="'Helvetica Neue', Helvetica, Arial-Unicode, Arial, Sans-serif">Created by Pieter J. Smits</text><text x="0" y="120" fill="#000000" font-size="5px" font-weight="bold" font-family="'Helvetica Neue', Helvetica, Arial-Unicode, Arial, Sans-serif">from the Noun Project</text></svg>