<svg xmlns="http://www.w3.org/2000/svg" viewBox="0 0 100 125"><path fill="none" d="M69 89h11v4H69zM33 89h11v4H33zM57 89h11v4H57zM45 89h11v4H45zM21 79h11v4H21zM21 89h11v4H21zM21 84h11v4H21zM69 74h11v4H69zM69 60.1V68h11v-4.8s-4.4-1.6-11-3.1zM69 69h11v4H69zM69 84h11v4H69zM68 68v-8.1c-3.2-.7-7-1.3-11-1.6V68h11zM21 74h11v4H21zM69 79h11v4H69zM57 74h11v4H57zM45 84h11v4H45zM33 74h11v4H33zM33 84h11v4H33zM45 79h11v4H45zM45 74h11v4H45zM21 69h11v4H21zM57 84h11v4H57zM57 69h11v4H57zM33 69h11v4H33zM45 69h11v4H45zM56 68v-9.8c-1.9-.1-4-.2-6-.2-1.7 0-3.4.1-5 .2V68h11zM57 79h11v4H57zM33 79h11v4H33zM32 68v-8.1c-5.3 1.1-9.2 2.3-11 2.9V68h11zM44 68v-9.8c-4 .3-7.7.9-11 1.5V68h11z"/><path d="M35 38L9.5 53.3V44H20v-6h15zm45 6v-6H65l25.5 15.3V44H80zM40.7 33.5l9.3-6.7 9.3 6.7-3.5-10.9 9.3-6.7H53.6L50 5l-3.5 10.9H35l9.3 6.7-3.6 10.9zM95 58v37H80v-1H20v1H5V58l45-27 45 27zM32 89H21v4h11v-4zm0-5H21v4h11v-4zm0-5H21v4h11v-4zm0-5H21v4h11v-4zm0-5H21v4h11v-4zm0-9.1c-5.3 1.1-9.2 2.3-11 2.9V68h11v-8.1zM44 89H33v4h11v-4zm0-5H33v4h11v-4zm0-5H33v4h11v-4zm0-5H33v4h11v-4zm0-5H33v4h11v-4zm0-10.8c-4 .3-7.7.9-11 1.5V68h11v-9.8zM56 89H45v4h11v-4zm0-5H45v4h11v-4zm0-5H45v4h11v-4zm0-5H45v4h11v-4zm0-5H45v4h11v-4zm0-10.8c-1.9-.1-4-.2-6-.2-1.7 0-3.4.1-5 .2V68h11v-9.8zm1 9.8h11v-8.1c-3.2-.7-7-1.3-11-1.6V68zm0 5h11v-4H57v4zm0 5h11v-4H57v4zm0 5h11v-4H57v4zm0 5h11v-4H57v4zm11 1H57v4h11v-4zm12 0H69v4h11v-4zm0-5H69v4h11v-4zm0-5H69v4h11v-4zm0-5H69v4h11v-4zm0-5H69v4h11v-4zm0-5.8s-4.4-1.6-11-3V68h11v-4.8z"/></svg>