<svg xmlns="http://www.w3.org/2000/svg" xmlns:xlink="http://www.w3.org/1999/xlink" version="1.1" x="0px" y="0px" viewBox="-2 4 100 125" enable-background="new -2 4 100 100" xml:space="preserve"><g><path d="M72,30H60V18c0-6.617-5.383-12-12-12H16c-2.209,0-4,1.791-4,4v88c0,2.209,1.791,4,4,4h64c2.209,0,4-1.791,4-4V42   C84,35.383,78.617,30,72,30z M76,94H20V14h28c2.206,0,4,1.794,4,4v16c0,2.209,1.791,4,4,4h16c2.206,0,4,1.794,4,4V94z"/><path d="M77.172,28.829C77.952,29.609,78.977,30,80,30s2.048-0.391,2.828-1.171c1.562-1.562,1.562-4.095,0-5.657l-16-16   c-1.561-1.562-4.096-1.562-5.656,0c-1.562,1.562-1.562,4.095,0,5.657L77.172,28.829z"/><path d="M57.172,55.172L44,68.343l-5.171-5.171c-1.562-1.562-4.095-1.562-5.657,0c-1.562,1.562-1.562,4.095,0,5.656l8,8   C41.953,77.609,42.976,78,44,78s2.047-0.391,2.829-1.172l16-16c1.562-1.562,1.562-4.095,0-5.656   C61.268,53.609,58.732,53.609,57.172,55.172z"/></g><text x="-2" y="119" fill="#000000" font-size="5px" font-weight="bold" font-family="'Helvetica Neue', Helvetica, Arial-Unicode, Arial, Sans-serif">Created by Yorlmar Campos</text><text x="-2" y="124" fill="#000000" font-size="5px" font-weight="bold" font-family="'Helvetica Neue', Helvetica, Arial-Unicode, Arial, Sans-serif">from the Noun Project</text></svg>