<svg xmlns="http://www.w3.org/2000/svg" viewBox="-2 4 100 125"><path d="M72 30H60V18c0-6.617-5.383-12-12-12H16c-2.21 0-4 1.79-4 4v88c0 2.21 1.79 4 4 4h64c2.21 0 4-1.79 4-4V42c0-6.617-5.383-12-12-12zm4 64H20V14h28c2.206 0 4 1.794 4 4v16c0 2.21 1.79 4 4 4h16c2.206 0 4 1.794 4 4v52z"/><path d="M77.172 28.83c.78.78 1.805 1.17 2.828 1.17s2.048-.39 2.828-1.17c1.562-1.563 1.562-4.096 0-5.658l-16-16c-1.56-1.562-4.096-1.562-5.656 0-1.562 1.562-1.562 4.095 0 5.657l16 16zM57.172 55.172L44 68.342l-5.17-5.17c-1.563-1.562-4.096-1.562-5.658 0-1.562 1.562-1.562 4.095 0 5.656l8 8C41.952 77.608 42.976 78 44 78s2.047-.39 2.83-1.172l16-16c1.56-1.562 1.56-4.095 0-5.656-1.562-1.563-4.098-1.563-5.658 0z"/></svg>