<svg xmlns="http://www.w3.org/2000/svg" xmlns:xlink="http://www.w3.org/1999/xlink" version="1.1" x="0px" y="0px" viewBox="0 0 512 640" enable-background="new 0 0 512 512" xml:space="preserve"><path d="M256,0C167.781,0,96,71.781,96,160c0,39.656,18.063,75.938,35.563,111C146.188,300.406,160,328.156,160,352  c0,17.688,14.313,32,32,32h128c17.688,0,32-14.313,32-32c0-25.031,13.969-52.906,28.781-82.375C398.094,235.125,416,199.438,416,160  C416,71.781,344.219,0,256,0z M320,352h-48v-96c0-8.844-7.156-16-16-16s-16,7.156-16,16v96h-48c0-63-64-128-64-192  c0-70.688,57.313-128,128-128s128,57.313,128,128C384,224,320,287,320,352z M304,208c0,8.844-7.156,16-16,16h-64  c-8.844,0-16-7.156-16-16s7.156-16,16-16h64C296.844,192,304,199.156,304,208z M304,160c0,8.844-7.156,16-16,16h-64  c-8.844,0-16-7.156-16-16s7.156-16,16-16h64C296.844,144,304,151.156,304,160z M320,432c8.844,0,16,7.156,16,16s-7.156,16-16,16  c8.844,0,16,7.156,16,16s-7.156,16-16,16h-32c-7.563,10.063-19.406,16-32,16s-24.438-5.938-32-16h-32c-8.844,0-16-7.156-16-16  s7.156-16,16-16c-8.844,0-16-7.156-16-16s7.156-16,16-16c-8.844,0-16-7.156-16-16s7.156-16,16-16h128c8.844,0,16,7.156,16,16  S328.844,432,320,432z"/><text x="0" y="527" fill="#000000" font-size="5px" font-weight="bold" font-family="'Helvetica Neue', Helvetica, Arial-Unicode, Arial, Sans-serif">Created by Simple Icons</text><text x="0" y="532" fill="#000000" font-size="5px" font-weight="bold" font-family="'Helvetica Neue', Helvetica, Arial-Unicode, Arial, Sans-serif">from the Noun Project</text></svg>