<svg xmlns:dc="http://purl.org/dc/elements/1.1/" xmlns:cc="http://creativecommons.org/ns#" xmlns:rdf="http://www.w3.org/1999/02/22-rdf-syntax-ns#" xmlns:svg="http://www.w3.org/2000/svg" xmlns="http://www.w3.org/2000/svg" xmlns:sodipodi="http://sodipodi.sourceforge.net/DTD/sodipodi-0.dtd" xmlns:inkscape="http://www.inkscape.org/namespaces/inkscape" version="1.1" x="0px" y="0px" viewBox="0 0 100 125"><g transform="translate(0,-952.36218)"><path d="m 22.473087,962.36218 c -3.800771,0 -6.881731,3.09678 -6.881731,6.88182 l 0,3.44077 0,3.44094 0,3.44077 0,3.44094 c 0,2.53431 1.38701,4.71982 3.440874,5.9139 l 0,1.82792 0,6.88189 0,10.32247 0,3.4408 0,3.4409 0,3.4408 0,17.2044 c 0,3.7849 3.080942,6.8817 6.881713,6.8817 l 24.086049,0 24.086051,0 c 3.80216,0 6.88173,-3.0968 6.88173,-6.8817 l 0,-17.2044 0,-3.4408 0,-3.4409 0,-3.4408 0,-10.32247 0,-6.88189 0,-1.82792 c 2.05386,-1.19408 3.44087,-3.37959 3.44087,-5.9139 l 0,-3.44094 0,-3.44077 0,-3.44094 0,-3.44077 c 0,-3.78504 -3.079579,-6.88182 -6.88173,-6.88182 l -6.88173,0 -17.204317,0 -6.881731,0 -17.204318,0 -6.88173,0 z m 3.440857,3.44086 48.1721,0 c 1.89937,0 3.44087,1.37636 3.44087,3.44096 l 0,3.44077 0,3.44094 0,3.44077 c 0,1.72039 -1.5415,3.44094 -3.44087,3.44094 l -48.1721,0 c -1.900385,0 -3.440856,-1.72055 -3.440856,-3.44094 l 0,-3.44077 0,-3.44094 0,-3.44077 c 0,-2.0646 1.540471,-3.44096 3.440856,-3.44096 z m 20.107551,28.38715 3.978498,0 3.870979,0 0.107362,0 5.376346,9.24731 3.010751,-1.7204 -2.473112,9.6773 -9.462377,-2.7957 3.010751,-1.7204 -3.440873,-5.8064 -4.623654,7.8495 -6.021521,-3.4409 6.666678,-11.29031 z m -4.838706,17.20421 2.473112,9.5701 -3.010751,-1.7204 -3.440856,5.9137 9.354842,0 0,6.8819 -13.333356,0 -3.978497,-6.8819 5.483881,-9.3546 -3.010751,-1.7204 9.462377,-2.6884 z m 23.870997,2.0432 6.666658,11.7202 -3.87096,6.8819 -0.10736,0 -10.860229,0 0,3.4408 -6.881731,-6.8817 6.881731,-6.8817 0,3.4407 6.881731,0 -4.623654,-8.2793 5.913985,-3.4409 z" style="" fill="#000000"/></g><text x="0" y="115" fill="#000000" font-size="5px" font-weight="bold" font-family="'Helvetica Neue', Helvetica, Arial-Unicode, Arial, Sans-serif">Created by Dalpat Prajapati</text><text x="0" y="120" fill="#000000" font-size="5px" font-weight="bold" font-family="'Helvetica Neue', Helvetica, Arial-Unicode, Arial, Sans-serif">from the Noun Project</text></svg>