<svg xmlns="http://www.w3.org/2000/svg" xmlns:xlink="http://www.w3.org/1999/xlink" version="1.1" x="0px" y="0px" viewBox="0 0 100 125" enable-background="new 0 0 100 100" xml:space="preserve"><path fill="#000000" d="M67.6,45.3C56.8,36.2,50,22.4,50,7.1c0,15.1-6.6,28.8-17.2,38c-2.6,2.2-4.7,4.5-6.4,7.5  h10c10,0,18.2,8.1,18.2,18.2h-9.1c0-5-4.1-9.1-9.1-9.1H23.1c-0.3,1.6-0.4,2.9-0.4,4.5c0,15.1,12.2,27.3,27.3,27.3  s27.3-12.2,27.3-27.3C77.3,57.8,73.5,50.3,67.6,45.3z M50.1,88.9c-2,0-3.7-1.3-4.3-3c-0.2-0.5-0.3-1-0.3-1.5c0-1.2,0.5-2.4,1.3-3.2  c1.3-1.3,2.5-2.9,3.2-4.6c0.7,1.7,1.8,3.3,3.1,4.6c0.8,0.8,1.4,2,1.4,3.2C54.6,86.9,52.6,88.9,50.1,88.9z"/><text x="0" y="115" fill="#000000" font-size="5px" font-weight="bold" font-family="'Helvetica Neue', Helvetica, Arial-Unicode, Arial, Sans-serif">Created by Joseph Clough</text><text x="0" y="120" fill="#000000" font-size="5px" font-weight="bold" font-family="'Helvetica Neue', Helvetica, Arial-Unicode, Arial, Sans-serif">from the Noun Project</text></svg>