<svg xmlns="http://www.w3.org/2000/svg" viewBox="0 0 100 125"><path d="M22.473 10c-3.8 0-6.882 3.097-6.882 6.882V30.644c0 2.536 1.388 4.72 3.442 5.915v46.557c0 3.785 3.08 6.882 6.882 6.882h48.172c3.802 0 6.882-3.097 6.882-6.882V36.558c2.054-1.195 3.44-3.38 3.44-5.915V16.883c0-3.786-3.08-6.883-6.88-6.883H22.473zm3.44 3.44h48.173c1.9 0 3.44 1.377 3.44 3.442v10.322c0 1.72-1.54 3.44-3.44 3.44H25.914c-1.9 0-3.44-1.72-3.44-3.44V16.882c0-2.065 1.54-3.44 3.44-3.44zM46.022 41.83H53.98l5.377 9.247 3.01-1.72-2.473 9.677-9.462-2.795 3.01-1.72L50 48.71l-4.624 7.85-6.02-3.442 6.665-11.29zm-4.837 17.204l2.473 9.57-3.01-1.72-3.442 5.914h9.355v6.882H33.225l-3.98-6.882 5.485-9.355-3.01-1.72 9.463-2.688zm23.87 2.043l6.667 11.72-3.87 6.883H56.88v3.44L50 76.238l6.882-6.883v3.44h6.882l-4.624-8.28 5.914-3.44z"/></svg>