<svg xmlns="http://www.w3.org/2000/svg" viewBox="0 0 512 512"><path d="M256 0C167.78 0 96 71.78 96 160c0 39.656 18.063 75.938 35.563 111C146.188 300.406 160 328.156 160 352c0 17.688 14.313 32 32 32h128c17.688 0 32-14.313 32-32 0-25.03 13.97-52.906 28.78-82.375C398.095 235.125 416 199.438 416 160 416 71.78 344.22 0 256 0zm64 352h-48v-96c0-8.844-7.156-16-16-16s-16 7.156-16 16v96h-48c0-63-64-128-64-192 0-70.688 57.313-128 128-128s128 57.313 128 128c0 64-64 127-64 192zm-16-144c0 8.844-7.156 16-16 16h-64c-8.844 0-16-7.156-16-16s7.156-16 16-16h64c8.844 0 16 7.156 16 16zm0-48c0 8.844-7.156 16-16 16h-64c-8.844 0-16-7.156-16-16s7.156-16 16-16h64c8.844 0 16 7.156 16 16zm16 272c8.844 0 16 7.156 16 16s-7.156 16-16 16c8.844 0 16 7.156 16 16s-7.156 16-16 16h-32c-7.563 10.063-19.406 16-32 16s-24.438-5.938-32-16h-32c-8.844 0-16-7.156-16-16s7.156-16 16-16c-8.844 0-16-7.156-16-16s7.156-16 16-16c-8.844 0-16-7.156-16-16s7.156-16 16-16h128c8.844 0 16 7.156 16 16s-7.156 16-16 16z"/></svg>