<svg xmlns="http://www.w3.org/2000/svg" xmlns:xlink="http://www.w3.org/1999/xlink" version="1.1" x="0px" y="0px" viewBox="0 0 100 125" enable-background="new 0 0 100 100" xml:space="preserve"><rect x="69" y="89" fill="none" width="11" height="4"/><rect x="33" y="89" fill="none" width="11" height="4"/><rect x="57" y="89" fill="none" width="11" height="4"/><rect x="45" y="89" fill="none" width="11" height="4"/><rect x="21" y="79" fill="none" width="11" height="4"/><rect x="21" y="89" fill="none" width="11" height="4"/><rect x="21" y="84" fill="none" width="11" height="4"/><rect x="69" y="74" fill="none" width="11" height="4"/><path fill="none" d="M69,60.1V68h11v-4.8C80,63.2,75.6,61.6,69,60.1z"/><rect x="69" y="69" fill="none" width="11" height="4"/><rect x="69" y="84" fill="none" width="11" height="4"/><path fill="none" d="M68,68v-8.1c-3.2-0.7-7-1.3-11-1.6V68H68z"/><rect x="21" y="74" fill="none" width="11" height="4"/><rect x="69" y="79" fill="none" width="11" height="4"/><rect x="57" y="74" fill="none" width="11" height="4"/><rect x="45" y="84" fill="none" width="11" height="4"/><rect x="33" y="74" fill="none" width="11" height="4"/><rect x="33" y="84" fill="none" width="11" height="4"/><rect x="45" y="79" fill="none" width="11" height="4"/><rect x="45" y="74" fill="none" width="11" height="4"/><rect x="21" y="69" fill="none" width="11" height="4"/><rect x="57" y="84" fill="none" width="11" height="4"/><rect x="57" y="69" fill="none" width="11" height="4"/><rect x="33" y="69" fill="none" width="11" height="4"/><rect x="45" y="69" fill="none" width="11" height="4"/><path fill="none" d="M56,68v-9.8c-1.9-0.1-4-0.2-6-0.2c-1.7,0-3.4,0.1-5,0.2V68H56z"/><rect x="57" y="79" fill="none" width="11" height="4"/><rect x="33" y="79" fill="none" width="11" height="4"/><path fill="none" d="M32,68v-8.1c-5.3,1.1-9.2,2.3-11,2.9V68H32z"/><path fill="none" d="M44,68v-9.8c-4,0.3-7.7,0.9-11,1.5V68H44z"/><path d="M35,38L9.5,53.3V44H20v-6H35z M80,44v-6H65l25.5,15.3V44H80z M40.7,33.5l9.3-6.7l9.3,6.7l-3.5-10.9l9.3-6.7l-11.5,0L50,5  l-3.5,10.9l-11.5,0l9.3,6.7L40.7,33.5z M95,58v37H80v-1H69h-1H57h-1H45h-1H33h-1H21h-1v1H5V58l45-27L95,58z M32,89H21v4h11V89z   M32,84H21v4h11V84z M32,79H21v4h11V79z M32,74H21v4h11V74z M32,69H21v4h11V69z M32,59.9c-5.3,1.1-9.2,2.3-11,2.9V68h11V59.9z   M44,89H33v4h11V89z M44,84H33v4h11V84z M44,79H33v4h11V79z M44,74H33v4h11V74z M44,69H33v4h11V69z M44,58.2c-4,0.3-7.7,0.9-11,1.5  V68h11V58.2z M56,89H45v4h11V89z M56,84H45v4h11V84z M56,79H45v4h11V79z M56,74H45v4h11V74z M56,69H45v4h11V69z M56,58.2  c-1.9-0.1-4-0.2-6-0.2c-1.7,0-3.4,0.1-5,0.2V68h11V58.2z M57,68h11v-8.1c-3.2-0.7-7-1.3-11-1.6V68z M57,73h11v-4H57V73z M57,78h11  v-4H57V78z M57,83h11v-4H57V83z M57,88h11v-4H57V88z M68,89H57v4h11V89z M80,89H69v4h11V89z M80,84H69v4h11V84z M80,79H69v4h11V79z   M80,74H69v4h11V74z M80,69H69v4h11V69z M80,63.2c0,0-4.4-1.6-11-3V68h11V63.2z"/><text x="0" y="115" fill="#000000" font-size="5px" font-weight="bold" font-family="'Helvetica Neue', Helvetica, Arial-Unicode, Arial, Sans-serif">Created by Mark Shorter</text><text x="0" y="120" fill="#000000" font-size="5px" font-weight="bold" font-family="'Helvetica Neue', Helvetica, Arial-Unicode, Arial, Sans-serif">from the Noun Project</text></svg>