<svg version="1" xmlns="http://www.w3.org/2000/svg" viewBox="0 0 94.517 100"><path d="M46.834 29.254c7.994 0 14.448-6.57 14.448-14.64C61.282 6.532 54.828 0 46.834 0S32.378 6.532 32.378 14.614c0 8.07 6.462 14.64 14.456 14.64zM60.89 32.813c6.61.236 9.393 5.59 9.393 5.59l21.34 29.61c.884 1.312 1.4 2.92 1.4 4.653 0 4.604-3.69 8.342-8.244 8.342-1.09 0-2.082-.244-3.023-.604l-12.883-3.638v12.997H24.15V76.767l-12.884 3.636c-.908.362-1.93.606-3.03.606C3.68 81.01 0 77.27 0 72.666c0-1.735.51-3.343 1.43-4.656L22.76 38.405s2.8-5.355 9.386-5.59H60.89zM46.518 80.688l16.688-5.606-.365-.074c-11.525-3.416-7.046-18.806 4.453-15.372l1.583.557v-17.37l-22.358 7.38-22.368-7.38v17.366l1.575-.557c11.518-3.435 16.005 11.955 4.48 15.37l-.375.078 16.687 5.608zM92.458 100c1.143 0 2.06-.925 2.06-2.08 0-1.16-.917-2.08-2.06-2.08H2.2c-1.118 0-2.058.92-2.058 2.08 0 1.154.94 2.08 2.058 2.08h90.258z"/></svg>