<svg xmlns="http://www.w3.org/2000/svg" xmlns:xlink="http://www.w3.org/1999/xlink" version="1.1" x="0px" y="0px" viewBox="0 0 72 90" enable-background="new 0 0 72 72" xml:space="preserve"><path fill="#000000" d="M68.4,58.6c-2.6,0.1-5.1,0-7.8,0c-0.3,0-0.5-0.2-0.5-0.5v-2.2c0-0.3,0.2-0.5,0.5-0.5c1.3,0,2.6,0,4,0  c3.6,0,4.5-1.3,4.2-5.5c-0.4-6-0.2-12.1,0-18.1c0.2-4.8-3.4-4.9-3.4-4.9H55.1c-0.6-0.1-1.2-0.1-1.7,0h-0.1v0  c-1.6,0.2-2.8,0.9-3.7,2.4c-0.1,0.2-0.3,0.4-0.5,0.6c-0.4,0.4-1,0.5-1.5,0.1C36.3,20.1,25.1,10.3,13.9,0.5h-1.2  C11.5,1.7,10.4,2.8,9.2,4C8.3,4.9,8.3,5.8,9.1,6.7c0,0,0.1,0.1,0.1,0.1c3.1,2.5,3.6,5.7,3.5,9.5c-0.3,6.7-0.1,6.4-0.1,13.1v0.7  c0,0.6-0.5,1.1-1.1,1.1c-2.1,0-4.2,0-6.3,0c-2.9,0-3.5,0.9-3.3,4.3c0.3,4.8,0.2,9.6,0,14.4c-0.1,2.6,0.6,3.6,3,3.6  c6.7,0,13.4,0,20.1,0c2.4,0,3.1-0.9,3-3.5c-0.2-4.9-0.3-9.9,0-14.8c0.2-3-0.5-3.9-3-4c-2.1,0-4.3,0-6.5,0c-0.6,0-1.1-0.5-1.1-1.1  v-14c7.3,8.3,14.4,16.4,21.6,24.6c0.4,0.4,0.3,1,0,1.4c-2.7,2.8-1.5,6.5-1.6,9.9c-0.1,2.1,1.2,3.2,3.4,3.3c1.6,0,3.1,0,4.7,0  c0.3,0,0.6,0.2,0.6,0.5V58c0,0.3-0.2,0.5-0.5,0.5c-3.7,0-16.6,0-19.2,0c-1.3,0-1.8,0.4-1.8,1.8c0,3.7,0,7.4,0,11.2h45.6  c0-3.7,0-7.4,0-11.1C70.2,59,69.7,58.5,68.4,58.6z M17.7,48.8H7.1c-0.3,0-0.5-0.2-0.5-0.5v-8.7c0-0.4,0.5-0.6,0.8-0.4  c3.6,2.9,7,5.7,10.6,8.7C18.3,48.2,18.1,48.8,17.7,48.8z M22.8,36c0.3,0,0.5,0.2,0.5,0.5v8.8c0,0.4-0.5,0.6-0.8,0.4  c-3.6-2.9-7-5.8-10.7-8.8c-0.4-0.3-0.2-0.9,0.3-0.9H22.8z M45.8,46.4c-0.8,0-1.3-0.9-0.8-1.6c2.1-2.7,6.4-8,8.8-10.8  c0.4-0.5,1.1-0.9,1.8-0.9c2-0.1,3.9-0.1,5.9-0.1c0.5,0,1,0.4,1,1v11.4c0,0.5-0.4,1-1,1H45.8z"/><text x="0" y="87" fill="#000000" font-size="5px" font-weight="bold" font-family="'Helvetica Neue', Helvetica, Arial-Unicode, Arial, Sans-serif">Created by Creative Stall</text><text x="0" y="92" fill="#000000" font-size="5px" font-weight="bold" font-family="'Helvetica Neue', Helvetica, Arial-Unicode, Arial, Sans-serif">from the Noun Project</text></svg>