<svg xmlns="http://www.w3.org/2000/svg" viewBox="0 0 72 90"><path d="M68.4 58.6c-2.6.1-5.1 0-7.8 0-.3 0-.5-.2-.5-.5v-2.2c0-.3.2-.5.5-.5h4c3.6 0 4.5-1.3 4.2-5.5-.4-6-.2-12.1 0-18.1.2-4.8-3.4-4.9-3.4-4.9H55.1c-.6-.1-1.2-.1-1.7 0h-.1c-1.6.2-2.8.9-3.7 2.4-.1.2-.3.4-.5.6-.4.4-1 .5-1.5.1C36.3 20.1 25.1 10.3 13.9.5h-1.2L9.2 4c-.9.9-.9 1.8-.1 2.7l.1.1c3.1 2.5 3.6 5.7 3.5 9.5-.3 6.7-.1 6.4-.1 13.1v.7c0 .6-.5 1.1-1.1 1.1H5.2c-2.9 0-3.5.9-3.3 4.3.3 4.8.2 9.6 0 14.4-.1 2.6.6 3.6 3 3.6H25c2.4 0 3.1-.9 3-3.5-.2-4.9-.3-9.9 0-14.8.2-3-.5-3.9-3-4h-6.5c-.6 0-1.1-.5-1.1-1.1v-14c7.3 8.3 14.4 16.4 21.6 24.6.4.4.3 1 0 1.4-2.7 2.8-1.5 6.5-1.6 9.9-.1 2.1 1.2 3.2 3.4 3.3h4.7c.3 0 .6.2.6.5V58c0 .3-.2.5-.5.5H26.4c-1.3 0-1.8.4-1.8 1.8v11.2h45.6V60.4c0-1.4-.5-1.9-1.8-1.8zm-50.7-9.8H7.1c-.3 0-.5-.2-.5-.5v-8.7c0-.4.5-.6.8-.4 3.6 2.9 7 5.7 10.6 8.7.3.3.1.9-.3.9zM22.8 36c.3 0 .5.2.5.5v8.8c0 .4-.5.6-.8.4-3.6-2.9-7-5.8-10.7-8.8-.4-.3-.2-.9.3-.9h10.7zm23 10.4c-.8 0-1.3-.9-.8-1.6 2.1-2.7 6.4-8 8.8-10.8.4-.5 1.1-.9 1.8-.9 2-.1 3.9-.1 5.9-.1.5 0 1 .4 1 1v11.4c0 .5-.4 1-1 1H45.8z"/></svg>