<svg xmlns="http://www.w3.org/2000/svg" viewBox="0 0 52.68 100"><path d="M45.35 63.874v5.488c0 9.368-6.843 17.13-15.788 18.672v5.514h4.844V100H18.27v-6.452h4.84v-5.514C14.17 86.49 7.332 78.73 7.332 69.362v-5.488c0-1.784 1.445-3.23 3.226-3.23 1.784 0 3.23 1.446 3.23 3.23v5.488c0 6.92 5.627 12.545 12.548 12.545 6.924 0 12.562-5.625 12.562-12.545v-5.488c0-1.784 1.445-3.23 3.23-3.23 1.776 0 3.222 1.446 3.222 3.23z"/><path d="M26.336 35.9c-5.34 0-9.675 4.322-9.675 9.687v22.2c0 5.34 4.337 9.682 9.676 9.682 5.348 0 9.684-4.344 9.684-9.682V45.586c0-5.364-4.336-9.687-9.684-9.687zM38.272 30c0-.312-.065-.605-.176-.892-1.973-4.76-6.57-7.852-11.7-7.884h-.2c-5.138-.04-9.757 2.975-11.808 7.708-.495 1.166.036 2.507 1.188 3.008 1.172.488 2.523-.04 3.02-1.19 1.303-3.035 4.294-4.968 7.576-4.95h.202c3.277.027 6.233 2.026 7.503 5.053.462 1.165 1.816 1.725 2.976 1.23.885-.357 1.4-1.197 1.42-2.083z"/><path d="M43.46 23.217c.685-.437 1.075-1.172 1.075-1.934 0-.41-.117-.846-.357-1.217-3.822-6.16-10.443-9.89-17.705-9.93h-.18C19.026 10.073 12.357 13.7 8.437 19.8c-.68 1.06-.387 2.48.674 3.156 1.064.69 2.477.39 3.174-.677 3.08-4.78 8.29-7.6 13.97-7.566h.187c5.68.045 10.864 2.95 13.858 7.76.67 1.088 2.09 1.407 3.163.743z"/><path d="M52.348 14.8C46.873 5.612 37.23.07 26.558 0h-.203C15.685-.076 5.958 5.32.34 14.435c-.66 1.074-.332 2.48.755 3.158 1.077.658 2.493.312 3.154-.755C9 9.097 17.27 4.507 26.34 4.57h.185c9.053.085 17.256 4.786 21.892 12.585.65 1.08 2.057 1.452 3.145.794.716-.437 1.12-1.186 1.12-1.96-.002-.404-.1-.8-.334-1.19z"/></svg>