<svg xmlns="http://www.w3.org/2000/svg" viewBox="0 0 100 125"><path d="M68.75 26.605c-10.217 0-18.5 8.282-18.5 18.5 0 10.217 8.283 18.5 18.5 18.5s18.5-8.283 18.5-18.5-8.283-18.5-18.5-18.5zm15.326 16.833c-1.36-.615-2.725-1.11-4.078-1.502.002-.043.006-.087.006-.13 0-1.277-1.035-2.313-2.312-2.313-.99 0-1.83.622-2.16 1.496-1.505-.21-2.977-.312-4.397-.327-.006-.267-.005-.528-.015-.797-.047-1.307-.144-2.564-.27-3.747 1.062-.212 1.86-1.147 1.86-2.27 0-1.276-1.034-2.312-2.31-2.312-.074 0-.147.004-.22.012-.124-.675-.25-1.286-.368-1.82 7.465.508 13.47 6.326 14.264 13.708zM68.75 29.688c.034 0 .067.003.103.003.134.606.282 1.327.43 2.136-.712.394-1.195 1.153-1.195 2.024 0 1.105.775 2.028 1.812 2.257.113 1.063.203 2.19.254 3.365-2.814-3.75-6.345-6.068-10.46-6.84 2.54-1.85 5.67-2.944 9.056-2.944zm-10.04 3.724c4.536.6 8.284 3.032 11.2 7.26-2.754.06-5.286.416-7.44.87-.643.135-1.262.28-1.86.433-.393-.722-1.155-1.212-2.034-1.212-1.277 0-2.313 1.036-2.313 2.313 0 .078.004.154.013.23-1.156.418-2.142.824-2.926 1.173.176-4.424 2.217-8.368 5.36-11.068zm-5.366 12.096c.81-.368 1.9-.827 3.216-1.3.396.703 1.15 1.18 2.016 1.18 1.277 0 2.312-1.034 2.312-2.31 0-.065-.004-.13-.01-.19 2.73-.69 5.91-1.228 9.323-1.285.002 3.735-.44 7.776-1.76 11.55-.115-.018-.232-.03-.353-.03-1.277 0-2.312 1.035-2.312 2.313 0 .708.32 1.34.82 1.766-.56.966-1.196 1.893-1.922 2.772-6.41-1.756-11.152-7.542-11.33-14.466zM68.75 60.522c-1.06 0-2.094-.108-3.093-.312.634-.803 1.216-1.658 1.74-2.568.22.067.45.104.69.104 1.276 0 2.31-1.036 2.31-2.312 0-.83-.437-1.556-1.095-1.964 1.123-3.19 1.74-6.826 1.83-10.837.836 1.487 1.59 3.146 2.263 4.98.068.187.133.37.197.557-.71.395-1.19 1.152-1.19 2.02 0 1.278 1.035 2.314 2.312 2.314.05 0 .098-.005.145-.008.61 2.534.943 4.76 1.115 6.226-2.154 1.148-4.613 1.8-7.225 1.8zm8.098-2.298c-.188-1.49-.52-3.598-1.095-5.966.757-.38 1.275-1.16 1.275-2.065 0-1.276-1.035-2.312-2.312-2.312-.08 0-.16.005-.24.014-.066-.19-.134-.383-.204-.576-.773-2.12-1.675-4.025-2.688-5.71 1.244.026 2.516.122 3.8.298.054 1.23 1.065 2.214 2.31 2.214.908 0 1.692-.526 2.07-1.29 1.463.425 2.93.973 4.39 1.663.007.204.015.407.015.614-.003 5.54-2.93 10.4-7.322 13.117z"/><path d="M78.5 63.688c-2.916 1.537-6.23 2.417-9.75 2.417-6.327 0-11.996-2.825-15.85-7.266v4.382h-5.8V44.44h.684c.23-7.2 4.084-13.483 9.808-17.093l-5.567-3.77c-.61-.415-1.316-.624-2.023-.624-.705 0-1.412.21-2.023.623l-13.196 8.94-13.197 8.938c-1.31.89-1.89 2.53-1.426 4.043.466 1.516 1.866 2.547 3.448 2.547h3.27V59.65c-1.68.235-2.988 1.628-3.096 3.347h-.174c-1.99 0-3.605 1.613-3.605 3.605v6.836c0 1.992 1.615 3.607 3.605 3.607h52.79c1.99 0 3.604-1.615 3.604-3.607v-6.836c-.002-1.2-.597-2.26-1.502-2.914zm-36.81-.465h-5.8V44.44h5.8v18.783z"/></svg>