<svg xmlns="http://www.w3.org/2000/svg" xmlns:xlink="http://www.w3.org/1999/xlink" version="1.1" x="0px" y="0px" viewBox="0 0 100 125" enable-background="new 0 0 100 100" xml:space="preserve"><g><path d="M68.75,26.605c-10.217,0-18.5,8.282-18.5,18.5c0,10.217,8.283,18.5,18.5,18.5s18.5-8.283,18.5-18.5   C87.25,34.888,78.967,26.605,68.75,26.605z M84.076,43.438c-1.361-0.615-2.725-1.109-4.078-1.502   c0.002-0.043,0.006-0.087,0.006-0.131c0-1.276-1.035-2.312-2.312-2.312c-0.989,0-1.831,0.622-2.161,1.496   c-1.504-0.21-2.976-0.311-4.396-0.326c-0.006-0.267-0.005-0.528-0.015-0.797c-0.047-1.307-0.144-2.564-0.27-3.747   c1.062-0.211,1.861-1.146,1.861-2.269c0-1.276-1.035-2.312-2.312-2.312c-0.073,0-0.146,0.004-0.218,0.012   c-0.125-0.675-0.252-1.286-0.369-1.821C77.277,30.238,83.282,36.056,84.076,43.438z M68.75,29.688c0.034,0,0.067,0.003,0.103,0.003   c0.134,0.605,0.282,1.326,0.43,2.135c-0.712,0.394-1.195,1.153-1.195,2.024c0,1.105,0.775,2.028,1.812,2.257   c0.113,1.063,0.203,2.191,0.254,3.365c-2.814-3.749-6.345-6.068-10.461-6.84C62.235,30.782,65.364,29.688,68.75,29.688z    M58.709,33.412c4.537,0.599,8.285,3.032,11.202,7.259c-2.755,0.06-5.287,0.417-7.442,0.871c-0.642,0.135-1.261,0.281-1.86,0.433   c-0.392-0.722-1.154-1.212-2.033-1.212c-1.277,0-2.313,1.036-2.313,2.313c0,0.078,0.004,0.154,0.013,0.229   c-1.156,0.419-2.142,0.825-2.926,1.174C53.526,40.056,55.567,36.112,58.709,33.412z M53.344,45.508   c0.811-0.368,1.899-0.827,3.216-1.3c0.396,0.703,1.149,1.181,2.016,1.181c1.277,0,2.312-1.035,2.312-2.312   c0-0.064-0.004-0.128-0.009-0.189c2.729-0.691,5.909-1.228,9.322-1.285c0.001,3.735-0.442,7.776-1.761,11.55   c-0.115-0.018-0.232-0.029-0.353-0.029c-1.277,0-2.312,1.034-2.312,2.312c0,0.708,0.319,1.341,0.82,1.766   c-0.559,0.966-1.196,1.893-1.922,2.772C58.262,58.218,53.521,52.432,53.344,45.508z M68.75,60.522c-1.06,0-2.094-0.108-3.093-0.312   c0.634-0.803,1.216-1.658,1.741-2.568c0.218,0.067,0.448,0.104,0.688,0.104c1.277,0,2.312-1.036,2.312-2.312   c0-0.83-0.438-1.556-1.096-1.964c1.123-3.189,1.739-6.826,1.829-10.837c0.837,1.487,1.592,3.146,2.264,4.981   c0.068,0.186,0.133,0.37,0.197,0.556c-0.709,0.395-1.19,1.152-1.19,2.021c0,1.277,1.035,2.313,2.312,2.313   c0.049,0,0.098-0.005,0.145-0.008c0.612,2.534,0.944,4.76,1.116,6.226C73.821,59.87,71.362,60.522,68.75,60.522z M76.848,58.224   c-0.188-1.491-0.521-3.598-1.095-5.966c0.757-0.381,1.275-1.161,1.275-2.065c0-1.276-1.035-2.312-2.312-2.312   c-0.08,0-0.16,0.004-0.239,0.013c-0.067-0.191-0.135-0.383-0.205-0.576c-0.773-2.121-1.675-4.025-2.688-5.711   c1.244,0.027,2.516,0.123,3.801,0.299c0.053,1.231,1.064,2.214,2.308,2.214c0.909,0,1.693-0.526,2.072-1.29   c1.462,0.425,2.929,0.973,4.388,1.663c0.008,0.204,0.016,0.407,0.016,0.614C84.167,50.648,81.239,55.507,76.848,58.224z"/><path d="M78.5,63.688c-2.916,1.537-6.23,2.417-9.75,2.417c-6.327,0-11.996-2.825-15.85-7.266v4.383H47.1V44.439h0.684   c0.229-7.198,4.084-13.482,9.808-17.092l-5.567-3.771c-0.611-0.414-1.316-0.623-2.023-0.623c-0.705,0-1.412,0.209-2.023,0.623   l-13.195,8.939l-13.197,8.939c-1.311,0.889-1.889,2.529-1.426,4.043c0.465,1.516,1.865,2.547,3.447,2.547h3.27v11.607   c-1.68,0.234-2.988,1.627-3.096,3.346h-0.174c-1.99,0-3.605,1.613-3.605,3.605v6.836c0,1.992,1.615,3.607,3.605,3.607h52.789   c1.99,0,3.605-1.615,3.605-3.607v-6.836C80,65.401,79.405,64.343,78.5,63.688z M41.691,63.223h-5.801V44.439h5.801V63.223z"/></g><text x="0" y="115" fill="#000000" font-size="5px" font-weight="bold" font-family="'Helvetica Neue', Helvetica, Arial-Unicode, Arial, Sans-serif">Created by Berkay Sargın</text><text x="0" y="120" fill="#000000" font-size="5px" font-weight="bold" font-family="'Helvetica Neue', Helvetica, Arial-Unicode, Arial, Sans-serif">from the Noun Project</text></svg>