<svg xmlns="http://www.w3.org/2000/svg" xmlns:xlink="http://www.w3.org/1999/xlink" version="1.1" x="0px" y="0px" viewBox="0 0 100 100" enable-background="new 0 0 100 100" xml:space="preserve"><g><path fill="#000000" d="M66.649,62.631H33.351c-0.832,0-1.507,0.674-1.507,1.51c0,0.832,0.675,1.506,1.507,1.506h33.299   c0.832,0,1.507-0.674,1.507-1.506C68.156,63.305,67.481,62.631,66.649,62.631z"></path><path fill="#000000" d="M32.652,55.066c0,1.664,1.349,3.016,3.015,3.016h6.296c1.666,0,3.016-1.352,3.016-3.016v-3.184h3.182   c1.666,0,3.016-1.352,3.016-3.016v-6.296c0-1.665-1.35-3.016-3.016-3.016h-3.182v-3.184c0-1.664-1.351-3.015-3.016-3.015h-6.296   c-1.666,0-3.015,1.351-3.015,3.015v3.184h-3.185c-1.667,0-3.016,1.351-3.016,3.016v6.296c0,1.664,1.349,3.016,3.016,3.016h3.185   V55.066z M29.467,48.867v-6.296h6.199v-6.199h6.296v6.199h6.198v6.296h-6.198v6.199h-6.296v-6.199H29.467z"></path><path fill="#000000" d="M95.976,61.533V50.476c0-0.946-0.267-1.875-0.772-2.678L81.521,26.059c-0.92-1.462-2.525-2.35-4.254-2.35   h-4.05c-0.156-3.108-2.711-5.598-5.858-5.598c-3.146,0-5.701,2.489-5.856,5.598H9.087c-2.777,0-5.027,2.251-5.027,5.027v32.77   C2.812,62.42,2,63.896,2,65.564v5.141c0,2.775,2.25,5.025,5.027,5.025h7.141c1.208,3.574,4.588,6.158,8.565,6.158   s7.356-2.584,8.565-6.158h37.403c1.211,3.574,4.588,6.158,8.565,6.158s7.356-2.584,8.565-6.158h7.143   c2.775,0,5.025-2.25,5.025-5.025v-5.141C98,63.912,97.205,62.447,95.976,61.533z M90,48.967H64.487V34.588h16.464L90,48.967z    M67.358,21.128c1.483,0,2.695,1.135,2.843,2.581h-5.685C64.664,22.263,65.876,21.128,67.358,21.128z M22.733,76.861   c-2.218,0-4.021-1.803-4.021-4.02c0-2.219,1.803-4.023,4.021-4.023s4.021,1.805,4.021,4.023   C26.754,75.059,24.951,76.861,22.733,76.861z M77.267,76.861c-2.218,0-4.021-1.803-4.021-4.02c0-2.219,1.803-4.023,4.021-4.023   s4.021,1.805,4.021,4.023C81.287,75.059,79.484,76.861,77.267,76.861z M86.049,70.705c-0.965-3.961-4.529-6.91-8.782-6.91   c-4.251,0-7.817,2.949-8.782,6.91H31.515c-0.964-3.961-4.529-6.91-8.782-6.91s-7.818,2.949-8.782,6.91H7.027v-5.059h6.205   c0.833,0,1.509-0.674,1.509-1.506c0-0.836-0.675-1.51-1.509-1.51H9.087V28.736h68.18l1.786,2.836H62.98   c-0.832,0-1.508,0.675-1.508,1.509v17.395c0,0.833,0.676,1.509,1.508,1.509h27.969v10.646h-4.167c-0.832,0-1.507,0.674-1.507,1.51   c0,0.832,0.675,1.506,1.507,1.506h6.192v5.059H86.049z"></path></g></svg>