<svg xmlns="http://www.w3.org/2000/svg" xmlns:xlink="http://www.w3.org/1999/xlink" version="1.1" x="0px" y="0px" viewBox="0 0 100 100" enable-background="new 0 0 100 100" xml:space="preserve"><path d="M25.3,54.6c0.2-3.1,1.2-6,2.8-8.5h-19c-3.5,0-4.1,1.7-4.1,2.9v2.8c0,2.9,2.8,2.9,4.1,2.9H25.3z M13.1,57.6  c-3.5,0-4.1,1.7-4.1,2.9v2.2c0,1.9,1.3,2.9,4.1,2.9h14.8c-1.4-2.4-2.4-5.1-2.6-8H13.1z M82.7,40.6c-2.9-4.5-10.4-17-19.5-17H43.8  c0,0-3.5,0-3.5,3.6v2.2c0,0,0,2.9,3.5,2.9h12.7c1.3,0,1.3,2.9-0.3,2.9H13.1C9.6,35.1,9,37.3,9,38v2.1c-0.1,3.1,3.3,2.9,4.1,2.9h17.4  c3.3-3.4,8-5.6,13.3-5.6c10.2,0,18.5,8.2,18.5,18.5c0,10.2-8.3,18.5-18.5,18.5c-5.5,0-10.2-2.3-13.6-6H21c-3.5,0-3.5,2.9-3.5,2.9  v2.2c0,2.9,3.5,2.9,3.5,2.9h43.7c9.3,0,15.2-3.7,18.1-8h9.4c1.8-5.2,2.9-10.8,2.9-16.7c0-3.9-0.5-7.6-1.3-11.2H82.7z M43.7,61.5  c-1.2,0-3.1-0.4-3.1-1.8c0-1.1-0.8-1.9-1.9-1.9c-1,0-1.8,0.8-1.8,1.8c-0.1,2.8,2.4,4.8,4.9,5.4V67c0,1.1,0.8,1.9,1.9,1.9  c1,0,1.8-0.8,1.8-1.8V65c2.9-0.6,5-2.7,5-5.3c0-1.3-0.6-2.6-1.5-3.6c-1.3-1.3-3.2-2-5.2-2c-1.2,0-3.1-0.5-3.1-1.9  c0-0.9,1.3-1.8,3.1-1.8c1.1,0,3.1,0.5,3.1,1.8c0,1,0.8,1.9,1.8,1.9c1.1,0,1.9-0.8,1.9-1.9c0-2.9-2.5-4.6-4.9-5.3v-2.1  c0-1-0.8-1.9-1.9-1.9c-1,0-1.9,0.8-1.9,1.8v2.1c-2.9,0.6-5,2.8-5,5.2c0,1.4,0.5,2.6,1.6,3.6c1.2,1.3,3.2,2,5.2,2c1.1,0,3,0.6,3,1.9  C46.8,60.5,45.5,61.5,43.7,61.5z"></path></svg>