<svg xmlns="http://www.w3.org/2000/svg" xmlns:xlink="http://www.w3.org/1999/xlink" version="1.1" x="0px" y="0px" viewBox="0 0 100 125" enable-background="new 0 0 100 100" xml:space="preserve"><path d="M92.79,32.931c-12.758,0-23.164-10.344-23.164-23.1V9.776c0.004-3.645,5.467-3.637,5.463,0.006v0.051  c0,9.736,7.955,17.631,17.693,17.633C96.425,27.461,96.433,32.924,92.79,32.931L92.79,32.931z M92.794,22.651  c-7.08,0-12.889-5.744-12.889-12.822V9.771c0.01-3.643,5.475-3.627,5.465,0.016l-0.002,0.047c0,4.059,3.35,7.35,7.41,7.354  C96.419,17.174,96.437,22.64,92.794,22.651L92.794,22.651z M92.722,12.485c-1.463,0-2.65-1.186-2.65-2.65  c0-1.463,1.188-2.65,2.65-2.65c1.465,0,2.652,1.188,2.652,2.65C95.374,11.299,94.187,12.485,92.722,12.485L92.722,12.485z   M92.788,43.437c-18.562,0-33.67-15.045-33.67-33.605V9.776c0.004-3.645,5.467-3.639,5.463,0.006v0.053  c0,15.541,12.66,28.139,28.201,28.139C96.427,37.972,96.431,43.435,92.788,43.437L92.788,43.437z M67.769,75.894  c0-5.852,4.744-10.596,10.596-10.596c5.853,0,10.596,4.744,10.596,10.596s-4.744,10.596-10.596,10.596  C72.512,86.489,67.769,81.745,67.769,75.894L67.769,75.894z M73.183,75.894c0,2.859,2.32,5.182,5.182,5.182  c2.862,0,5.183-2.322,5.183-5.182c0-2.863-2.32-5.182-5.183-5.182C75.503,70.712,73.183,73.03,73.183,75.894L73.183,75.894z   M11.165,38.942c-1.005,0-1.819,0.814-1.819,1.82v8.264c0,1.004,0.814,1.817,1.819,1.817l1.099,0.003  c1.014,0,1.385-0.093,2.304-1.309l6.233-8.775c0.71-1.006,0.472-1.82-0.534-1.82h-8.409H11.165L11.165,38.942z M60.806,40.25  c-0.918-1.215-1.289-1.309-2.303-1.309l-9.289,0.002c-1.005,0-1.82,0.814-1.82,1.818v8.264c0,1.006,0.815,1.819,1.82,1.819h17.289  c1.006,0,1.246-0.813,0.537-1.819L60.806,40.25L60.806,40.25z M41.411,50.844c1.005,0,1.819-0.813,1.819-1.819V40.76  c0-1.004-0.814-1.818-1.819-1.818L28.206,38.94c-1.013,0-1.385,0.094-2.303,1.309l-6.234,8.775c-0.71,1.006-0.471,1.819,0.534,1.819  H41.411L41.411,50.844z M51.395,54.158c-0.303-0.361-0.769-0.607-1.397-0.607c-2.434,0-2.434,3.641-0.008,3.641  c0.631,0,1.099-0.246,1.402-0.605h4.379c1.618,0,1.618-2.428,0-2.428H51.395L51.395,54.158z M39.539,54.158h-4.378  c-1.616,0-1.616,2.428,0,2.428h4.381c0.304,0.358,0.771,0.604,1.401,0.604c2.427,0,2.427-3.642-0.008-3.642  C40.308,53.549,39.842,53.795,39.539,54.158L39.539,54.158z M2.102,73.524c-1.004,0-1.818-0.814-1.818-1.818v-4.799  c0-1.004,0.814-1.818,1.818-1.818l3.035-0.008l0.003-24.32c0-3.35,2.717-6.063,6.065-6.063h47.726c2.508,0,4.08,0.852,5.719,3.029  l9.312,13.117l15.727,0.002c2.678,0,4.852,2.172,4.852,4.852v9.386l3.205,0.008c1.004,0,1.818,0.813,1.818,1.818v4.799  c0,1.004-0.814,1.817-1.818,1.817h-5.354c-1.129-6.729-6.979-11.854-14.027-11.854c-7.047,0-12.898,5.125-14.027,11.854H36.759  C35.63,66.796,29.78,61.669,22.73,61.669c-7.048,0-12.898,5.127-14.026,11.854L2.102,73.524L2.102,73.524z M17.549,75.894  c0,2.859,2.32,5.182,5.182,5.182c2.862,0,5.183-2.322,5.183-5.182c0-2.863-2.32-5.182-5.183-5.182  C19.869,70.712,17.549,73.03,17.549,75.894L17.549,75.894z M12.136,75.894c0-5.852,4.743-10.596,10.595-10.596  c5.853,0,10.597,4.744,10.597,10.596S28.583,86.489,22.73,86.489C16.878,86.489,12.136,81.745,12.136,75.894L12.136,75.894z"/></svg>