<?xml version="1.0" encoding="utf-8"?>
<!-- Generator: Adobe Illustrator 19.0.0, SVG Export Plug-In . SVG Version: 6.00 Build 0)  -->
<svg version="1.1" id="Layer_1" xmlns="http://www.w3.org/2000/svg" xmlns:xlink="http://www.w3.org/1999/xlink" x="0px" y="0px"
	 viewBox="-589 351 100 100" style="enable-background:new -589 351 100 100;" xml:space="preserve">
<style type="text/css">
	.st0{fill:none;}
	.st1{stroke:#231F20;stroke-width:5;stroke-linecap:round;stroke-miterlimit:10;}
</style>
<path class="st0" d="M-491.5,382.8v-17.4c0-1.5-1.2-2.8-2.8-2.8h-20.1c-1.5,0-2.8,1.2-2.8,2.8v17.4c0,1.5,1.2,2.8,2.8,2.8h20.1
	C-492.8,385.6-491.5,384.4-491.5,382.8z"/>
<path class="st0" d="M-495.5,358.6v-3.5c0-1-0.8-1.9-1.9-1.9h-41.9c-1,0-1.9,0.8-1.9,1.9v3.5c0,1,0.8,1.9,1.9,1.9h41.9
	C-496.3,360.4-495.5,359.6-495.5,358.6z"/>
<path class="st0" d="M-492.3,397.5h-8.6c-0.4,0-0.8,0.4-0.8,0.8v3.4c0,0.4,0.4,0.8,0.8,0.8h8.6c0.4,0,0.8-0.4,0.8-0.8v-3.4
	C-491.5,397.8-491.9,397.5-492.3,397.5z"/>
<path class="st0" d="M-577,431.8h-8.6c-0.4,0-0.8,0.4-0.8,0.8v3.4c0,0.4,0.4,0.8,0.8,0.8h8.6c0.4,0,0.8-0.4,0.8-0.8v-3.4
	C-576.2,432.1-576.6,431.8-577,431.8z M-577.5,435.5h-4.2V433h4.2V435.5z"/>
<path class="st0" d="M-533.6,431.8h-8.6c-0.5,0-0.8,0.4-0.8,0.8v3.4c0,0.4,0.4,0.8,0.8,0.8h8.6c0.4,0,0.8-0.4,0.8-0.8v-3.4
	C-532.8,432.1-533.2,431.8-533.6,431.8z M-537.7,435.5h-4.2V433h4.2V435.5z"/>
<rect x="-500.5" y="398.7" width="4.2" height="2.5"/>
<path d="M-494.5,351h-47.7c-3,0-5.5,2.5-5.5,5.5c0,0,0,24,0,24.3c0,0.3,0.2,0.5,0.5,0.5c0.3,0,1.2,0,1.4,0c0.4,0,0.6-0.2,0.6-0.5
	c0-0.3,0-15.3,0-15.3c0-1.5,1.2-2.8,2.8-2.8h20.1c1.5,0,2.8,1.2,2.8,2.8v17.4c0,1.5-1.2,2.8-2.8,2.8c0,0-4.7,0-5,0
	c-0.3,0-0.4,0.2-0.2,0.5c0.8,1.4,1.3,3,1.3,4.7c0,0,0,17.7,0,18.1c0,0.4,0.2,0.8,0.7,0.8c0.5,0,21.6,0,21.6,0v2.9
	c0,2.3,1.8,4.1,4.1,4.1h2c2.3,0,4.1-1.8,4.1-4.1v-3c2.7-0.3,4.8-2.6,4.8-5.5v-47.7C-489,353.5-491.5,351-494.5,351z M-539.3,360.4
	c-1,0-1.9-0.8-1.9-1.9v-3.5c0-1,0.8-1.9,1.9-1.9h41.9c1,0,1.9,0.8,1.9,1.9v3.5c0,1-0.8,1.9-1.9,1.9H-539.3z M-514.4,385.6
	c-1.5,0-2.8-1.2-2.8-2.8v-17.4c0-1.5,1.2-2.8,2.8-2.8h20.1c1.5,0,2.8,1.2,2.8,2.8v17.4c0,1.5-1.2,2.8-2.8,2.8H-514.4z M-491.5,401.7
	c0,0.4-0.4,0.8-0.8,0.8h-8.6c-0.4,0-0.8-0.4-0.8-0.8v-3.4c0-0.4,0.4-0.8,0.8-0.8h8.6c0.4,0,0.8,0.4,0.8,0.8V401.7z"/>
<rect x="-581.6" y="433" width="4.2" height="2.5"/>
<rect x="-541.9" y="433" width="4.2" height="2.5"/>
<path d="M-535.8,385.3h-47.7c-3,0-5.5,2.5-5.5,5.5v47.7c0,2.8,2.1,5.1,4.8,5.5v3c0,2.3,1.8,4.1,4.1,4.1h2c2.3,0,4.1-1.8,4.1-4.1V444
	h28.6v2.9c0,2.3,1.8,4.1,4.1,4.1h2c2.3,0,4.1-1.8,4.1-4.1v-3c2.7-0.3,4.8-2.6,4.8-5.5v-47.7C-530.3,387.8-532.8,385.3-535.8,385.3z
	 M-582.5,389.4c0-1,0.8-1.9,1.9-1.9h41.9c1,0,1.9,0.8,1.9,1.9v3.5c0,1-0.8,1.9-1.9,1.9h-41.9c-1,0-1.9-0.8-1.9-1.9V389.4z
	 M-576.2,436c0,0.4-0.4,0.8-0.8,0.8h-8.6c-0.4,0-0.8-0.4-0.8-0.8v-3.4c0-0.4,0.4-0.8,0.8-0.8h8.6c0.4,0,0.8,0.4,0.8,0.8L-576.2,436
	L-576.2,436z M-560.9,417.1c0,1.5-1.2,2.8-2.8,2.8h-20.1c-1.5,0-2.8-1.2-2.8-2.8v-17.4c0-1.5,1.2-2.8,2.8-2.8h20.1
	c1.5,0,2.8,1.2,2.8,2.8L-560.9,417.1L-560.9,417.1z M-555.7,419.9c-1.5,0-2.8-1.2-2.8-2.8v-17.4c0-1.5,1.2-2.8,2.8-2.8h20.1
	c1.5,0,2.8,1.2,2.8,2.8v17.4c0,1.5-1.2,2.8-2.8,2.8H-555.7z M-532.8,436c0,0.4-0.4,0.8-0.8,0.8h-8.6c-0.5,0-0.8-0.4-0.8-0.8v-3.4
	c0-0.4,0.4-0.8,0.8-0.8h8.6c0.4,0,0.8,0.4,0.8,0.8V436z"/>
<path class="st1" d="M-551.2,363.6"/>
</svg>
