<svg xmlns="http://www.w3.org/2000/svg" xmlns:xlink="http://www.w3.org/1999/xlink" version="1.1" x="0px" y="0px" viewBox="-346 256 100 100" enable-background="new -346 256 100 100" xml:space="preserve"><path d="M-277.319,317.777v-7.519h-4.219v-15.91h2.271v-4.871h-2.597c0,0,0-4.87-3.247-9.09s-7.145-6.168-7.145-6.168v-8.442h-1.947  v-7.144h-1.623h-1.95v7.144h-1.946v8.442c0,0-3.897,1.948-7.145,6.168s-3.247,9.09-3.247,9.09h-2.596v4.871h2.271v15.91h-4.221  v7.519h-31.232V356h5.278v-16.794h3.088V356h3.089v-16.794h3.087V356h3.089v-16.794h3.088V356h9.266v-16.794h3.088V356h3.089  v-16.794h3.089V356h3.087v-16.794h3.089V356h3.087v-16.794h3.09V356h3.087v-16.794h3.09V356h3.087v-16.794h3.09V356h3.089v-16.794  h3.089V356h9.264v-16.794h3.09V356h3.089v-16.794h3.088V356h3.089v-16.794h3.089V356h5.003v-38.223H-277.319z M-337.523,336.118  h-3.088v-4.931h3.088V336.118z M-331.346,336.118h-3.087v-4.931h3.087V336.118z M-287.707,294.354h2.361v15.74h-2.361V294.354z   M-292.425,294.354h2.359v15.74h-2.359V294.354z M-297.142,294.354h2.358v15.74h-2.358V294.354z M-301.861,294.354h2.358v15.74  h-2.358V294.354z M-306.58,294.354h2.358v15.74h-2.358V294.354z M-325.169,336.118h-3.088v-4.931h3.088V336.118z M-312.815,336.118  h-3.088v-4.931h3.088V336.118z M-306.636,336.118h-3.089v-4.931h3.089V336.118z M-300.459,336.118h-3.089v-4.931h3.089V336.118z   M-294.282,336.118h-3.09v-4.931h3.09V336.118z M-288.105,336.118h-3.09v-4.931h3.09V336.118z M-281.929,336.118h-3.09v-4.931h3.09  V336.118z M-275.751,336.118h-3.089v-4.931h3.089V336.118z M-316.124,327.713l20.103-5.88l20.599,5.88H-316.124z M-263.397,336.118  h-3.09v-4.931h3.09V336.118z M-257.221,336.118h-3.088v-4.931h3.088V336.118z M-251.043,336.118h-3.089v-4.931h3.089V336.118z"></path></svg>