<?xml version="1.0" encoding="utf-8"?><!DOCTYPE svg PUBLIC "-//W3C//DTD SVG 1.1//EN" "http://www.w3.org/Graphics/SVG/1.1/DTD/svg11.dtd"><svg version="1.1" xmlns="http://www.w3.org/2000/svg" xmlns:xlink="http://www.w3.org/1999/xlink" x="0px" y="0px" viewBox="0 0 100 96.101" enable-background="new 0 0 100 96.101" xml:space="preserve"><path d="M18.055,39.156v-5.823h2.778v5.823c0,1.038,0.391,1.979,1.02,2.707c0.245,0.287,0.518,0.546,0.833,0.755l9.969,5.711
	l0.009-0.016c0.609,0.349,1.305,0.565,2.058,0.565c2.302,0,4.167-1.867,4.167-4.167c0-1.548-0.854-2.884-2.108-3.603l0.008-0.016
	l-7.623-4.355V25.267c0-0.474-0.049-0.936-0.125-1.388c-0.167-0.999-0.514-1.935-1.002-2.778c-1.439-2.488-4.123-4.167-7.206-4.167
	c-3.262,0-6.08,1.879-7.447,4.609l-0.007-0.002L0.748,46.833L0.75,46.83c-0.439,0.971-0.7,2.042-0.736,3.169v0.536L0,89.851
	c0,3.452,2.798,6.25,6.25,6.25s6.25-2.798,6.25-6.25l1.402-32.087l6.645-13.29C18.978,43.162,18.055,41.226,18.055,39.156z"></path><circle cx="86.111" cy="14.156" r="8.333"></circle><path d="M44.236,51.229l3.213-1.846l-1.382-2.409l-11.346,6.512l-11.346-6.512l-1.382,2.409l3.214,1.846
	c-1.443,3.314-3.027,9.273,2.831,11.539h-9.984v33.333h5.556V69.713h22.222v26.388h5.556V62.768h-9.984
	C47.263,60.502,45.678,54.543,44.236,51.229z"></path><path d="M95.833,59.643c2.303,0,4.167-1.866,4.167-4.167V32.212c0-4.604-3.731-8.333-8.333-8.333s-8.334,3.729-8.334,8.333v20.833
	l4.175,37.132h0.024c0.174,3.295,2.878,5.923,6.218,5.923c3.452,0,6.25-2.798,6.25-6.25V64.156v-3.16
	c-1.164,0.882-2.598,1.425-4.167,1.425c-3.829,0-6.943-3.116-6.943-6.945v-14.93c0-0.55-0.367-2.009-0.662-3.181
	c-0.391-1.559-0.728-2.902-0.728-3.764h2.777c0,0.518,0.358,1.942,0.646,3.087c0.383,1.525,0.744,2.965,0.744,3.858v14.93
	C91.667,57.776,93.531,59.643,95.833,59.643z"></path><path d="M40.615,18.659l1.964-1.964l-0.343-0.342l-11.1-11.1l-0.342-0.341L28.83,6.875c-3.254,3.254-3.255,8.53,0,11.784
	C32.085,21.914,37.361,21.914,40.615,18.659z"></path><polygon points="46.508,12.767 49.454,11.785 33.741,0 32.759,2.945 46.508,16.695 "></polygon></svg>