<?xml version="1.0" encoding="utf-8"?>
<!-- Generator: Adobe Illustrator 19.0.0, SVG Export Plug-In . SVG Version: 6.00 Build 0)  -->
<svg version="1.1" id="Layer_1" xmlns="http://www.w3.org/2000/svg" xmlns:xlink="http://www.w3.org/1999/xlink" x="0px" y="0px"
	 viewBox="-589 351 100 100" style="enable-background:new -589 351 100 100;" xml:space="preserve">
<style type="text/css">
	.st0{fill:none;}
</style>
<g>
	<path class="st0" d="M-536.4,404.9v2.7c0.2-0.4,0.4-0.9,0.4-1.4C-536,405.8-536.2,405.3-536.4,404.9z"/>
	<path class="st0" d="M-541.8,406.3c0,0.4,0.1,0.8,0.3,1.2v-2.4C-541.7,405.4-541.8,405.8-541.8,406.3z"/>
	<path class="st0" d="M-526.4,396.7c2.7,0.1,4.4,0.3,4.4,0.3v1.5h3c-0.2-6.3-1.1-12.2-2.5-17.5h-7.8c1.8,2.1,2.9,4.8,2.9,7.7V396.7z
		"/>
	<path class="st0" d="M-536.4,420.1v0.9h15c1.3-5.3,2.2-11.2,2.4-17.5h-3v16C-522,419.5-529,420-536.4,420.1z"/>
	<path class="st0" d="M-541.5,443.1V426H-555C-551.8,435.1-547,441.6-541.5,443.1z"/>
	<path class="st0" d="M-561.8,381h-14.7c-2.8,5.3-4.5,11.2-4.9,17.5h17.4C-563.8,392.2-563,386.3-561.8,381z"/>
	<path class="st0" d="M-552.4,360.7c-8.5,2.8-15.8,8.2-21,15.3h13C-558.4,369.8-555.7,364.6-552.4,360.7z"/>
	<path class="st0" d="M-573.3,426c5.1,7.1,12.4,12.5,21,15.3c-3.3-3.8-6-9.1-8-15.3H-573.3z"/>
	<path class="st0" d="M-564,403.5h-17.4c0.4,6.3,2.1,12.2,4.9,17.5h14.7C-563.1,415.6-563.8,409.8-564,403.5z"/>
	<path class="st0" d="M-536.5,426v17.1c5.5-1.5,10.3-8,13.5-17.1H-536.5z"/>
	<path class="st0" d="M-516.2,421h14.7c2.8-5.3,4.5-11.2,4.9-17.5H-514C-514.1,409.8-514.9,415.7-516.2,421z"/>
	<path class="st0" d="M-525.6,441.3c8.5-2.8,15.8-8.2,21-15.3h-13C-519.6,432.2-522.3,437.4-525.6,441.3z"/>
	<path class="st0" d="M-541.5,376v-17.1c-5.5,1.5-10.3,8-13.5,17.1H-541.5z"/>
	<path class="st0" d="M-504.7,376c-5.1-7.1-12.4-12.5-21-15.3c3.3,3.8,6,9.1,8,15.3H-504.7z"/>
	<path class="st0" d="M-516.2,381c1.2,5.3,2,11.2,2.2,17.5h17.4c-0.3-6.3-2.1-12.2-4.9-17.5H-516.2z"/>
	<path class="st0" d="M-536.5,358.9V376h13.5C-526.2,366.9-531,360.4-536.5,358.9z"/>
	<path class="st0" d="M-555.8,403.5h-3.1c0.1,6.3,1,12.2,2.4,17.5h15v-0.9c-7.6-0.1-14.3-0.6-14.3-0.6V403.5z"/>
	<path class="st0" d="M-551.2,396.7v-8c0-3,1.1-5.7,2.9-7.7h-8.2c-1.3,5.3-2.2,11.2-2.3,17.5h3.1V397
		C-555.8,397-554,396.9-551.2,396.7z"/>
	<path d="M-491.6,398.5c-0.3-6.2-1.9-12.1-4.4-17.5c-0.8-1.7-1.7-3.4-2.7-5c-8.3-13.5-23.3-22.5-40.3-22.5s-32,9-40.4,22.5
		c-1,1.6-1.9,3.3-2.7,5c-2.5,5.4-4,11.3-4.4,17.5c0,0.8-0.1,1.7-0.1,2.5s0,1.7,0.1,2.5c0.4,6.2,1.9,12.1,4.4,17.5
		c0.8,1.7,1.7,3.4,2.7,5c8.4,13.5,23.4,22.5,40.4,22.5s32-9,40.4-22.5c1-1.6,1.9-3.3,2.7-5c2.5-5.4,4-11.3,4.4-17.5
		c0-0.8,0.1-1.7,0.1-2.5S-491.5,399.3-491.6,398.5z M-504.7,376h-13c-2-6.2-4.7-11.5-8-15.3C-517.1,363.5-509.8,368.9-504.7,376z
		 M-536.5,358.9c5.5,1.5,10.3,8,13.5,17.1h-13.5V358.9z M-541.5,358.9V376H-555C-551.8,366.9-547,360.4-541.5,358.9z M-552.4,360.7
		c-3.3,3.9-6,9.1-8,15.3h-13C-568.2,368.9-560.9,363.5-552.4,360.7z M-576.5,381h14.7c-1.2,5.3-2,11.2-2.2,17.5h-17.4
		C-581,392.2-579.3,386.3-576.5,381z M-581.4,403.5h17.4c0.2,6.3,0.9,12.1,2.2,17.5h-14.7C-579.3,415.7-581,409.8-581.4,403.5z
		 M-573.3,426h13c2,6.2,4.7,11.5,8,15.3C-560.9,438.5-568.2,433.1-573.3,426z M-541.5,443.1c-5.5-1.5-10.3-8-13.5-17.1h13.5V443.1z
		 M-539,420.1c-0.8,0-1.7,0-2.5,0v0.9h-15c-1.4-5.3-2.3-11.2-2.4-17.5h3.1v-5h-3.1c0.1-6.3,1-12.2,2.3-17.5h8.2
		c2.2-2.5,5.4-4.1,9-4.1h1.1c3.6,0,6.8,1.6,8.9,4.1h7.8c1.4,5.3,2.3,11.2,2.5,17.5h-3v5h3c-0.2,6.3-1.1,12.2-2.4,17.5h-15v-0.9
		C-537.3,420.1-538.1,420.1-539,420.1z M-536.5,443.1V426h13.5C-526.2,435.1-531,441.6-536.5,443.1z M-525.6,441.3
		c3.3-3.9,6-9.1,8-15.3h13C-509.8,433.1-517.1,438.5-525.6,441.3z M-501.5,421h-14.7c1.3-5.3,2.1-11.2,2.2-17.5h17.4
		C-497,409.8-498.7,415.7-501.5,421z M-514,398.5c-0.2-6.3-1-12.2-2.2-17.5h14.7c2.8,5.3,4.6,11.2,4.9,17.5H-514z"/>
</g>
<path d="M-537.4,407.2c0.7-0.4,1.1-1.2,1.1-2c0-1.4-1.1-2.5-2.5-2.5c-1.4,0-2.5,1.1-2.5,2.5c0,0.9,0.5,1.7,1.3,2.1l-0.7,6.6l2.1-0.1
	l2.1,0.1L-537.4,407.2z M-539.2,379.4h1c5.7,0,10.4,4.7,10.4,10.4v7c2.3,0.1,3.9,0.3,3.9,0.3v19.7c0,0-7.6,0.5-14.9,0.5
	c-7.5,0-14.7-0.5-14.7-0.5V397c0,0,1.6-0.1,4-0.3v-7C-549.6,384-545,379.4-539.2,379.4z M-547.2,390.5v6.1c2.5-0.1,5.4-0.2,8.3-0.2
	c3,0,6.1,0.1,8.6,0.2v-6.2c0-4.8-3.7-8.7-8.5-8.9C-543.4,381.9-547.2,385.7-547.2,390.5z"/>
</svg>
