<svg xmlns="http://www.w3.org/2000/svg" xmlns:xlink="http://www.w3.org/1999/xlink" version="1.1" x="0px" y="0px" viewBox="0 0 100 100" enable-background="new 0 0 100 100" xml:space="preserve"><path d="M64.842,85.035v4.474c0,0.825-0.686,1.491-1.535,1.491H36.694c-0.85,0-1.535-0.666-1.535-1.491v-4.474  c0-5.259,3.511-9.727,8.378-11.308c1.863,1.158,4.074,1.824,6.443,1.824c2.375,0,4.591-0.671,6.459-1.834  C61.321,75.293,64.842,79.766,64.842,85.035z"></path><g><path d="M38.684,42.684v4.474c0,0.825-0.686,1.491-1.535,1.491H10.535C9.686,48.649,9,47.983,9,47.158v-4.474   c0-5.259,3.511-9.727,8.378-11.308c1.863,1.158,4.074,1.824,6.443,1.824c2.375,0,4.591-0.671,6.459-1.834   C35.162,32.942,38.684,37.415,38.684,42.684z"></path></g><g><path d="M33.289,18.404v2.714c0,5.19-4.248,9.404-9.468,9.404s-9.468-4.214-9.468-9.404v-2.714c0-5.185,4.248-9.404,9.468-9.404   S33.289,13.219,33.289,18.404z"></path></g><g><path d="M91,42.684v4.474c0,0.825-0.686,1.491-1.535,1.491H62.852c-0.85,0-1.535-0.666-1.535-1.491v-4.474   c0-5.259,3.511-9.727,8.378-11.308c1.863,1.158,4.074,1.824,6.443,1.824c2.375,0,4.591-0.671,6.459-1.834   C87.479,32.942,91,37.415,91,42.684z"></path></g><g><path d="M85.606,18.404v2.714c0,5.19-4.248,9.404-9.468,9.404c-5.22,0-9.468-4.214-9.468-9.404v-2.714   C66.67,13.219,70.918,9,76.138,9C81.358,9,85.606,13.219,85.606,18.404z"></path></g><g><path d="M59.448,60.755v2.714c0,5.19-4.248,9.404-9.468,9.404s-9.468-4.214-9.468-9.404v-2.714c0-5.185,4.248-9.404,9.468-9.404   S59.448,55.57,59.448,60.755z"></path></g><g><path d="M20.674,51.65h-5.036c0.526,12.113,7.415,22.611,17.437,28.26c0.59-1.577,1.442-3.039,2.522-4.327   C27.076,70.801,21.195,61.918,20.674,51.65z"></path></g><g><path d="M79.327,51.65c-0.522,10.267-6.402,19.15-14.923,23.933c1.08,1.288,1.932,2.75,2.522,4.327   c10.022-5.649,16.911-16.146,17.437-28.259H79.327z"></path></g><g><path d="M63.648,21.118v-2.317c-4.187-1.806-8.799-2.816-13.648-2.816c-4.863,0-9.491,1.013-13.689,2.828v2.305   c0,1.223-0.186,2.403-0.52,3.52c4.214-2.323,9.057-3.651,14.209-3.651c5.132,0,9.959,1.317,14.161,3.625   C63.832,23.503,63.648,22.332,63.648,21.118z"></path></g></svg>