<svg xmlns="http://www.w3.org/2000/svg" viewBox="0 0 72 72"><path d="M3.7 63.8H1c-.3 0-.5-.2-.5-.5V8.7c0-.3.2-.5.5-.5h2.7c.3 0 .5.2.5.5v54.6c.1.3-.2.5-.5.5zM9.3 63.8h-.8c-.3 0-.5-.2-.5-.5V8.7c0-.3.2-.5.5-.5h.8c.3 0 .5.2.5.5v54.6c0 .3-.2.5-.5.5zM14.8 63.8H14c-.3 0-.5-.2-.5-.5V8.7c0-.3.2-.5.5-.5h.8c.3 0 .5.2.5.5v54.6c.1.3-.2.5-.5.5zM23.2 63.8h-3.9c-.3 0-.5-.2-.5-.5V8.7c0-.3.2-.5.5-.5h3.9c.3 0 .5.2.5.5v54.6c0 .3-.2.5-.5.5zM30.3 16.3V8.7c0-.3-.2-.5-.5-.5h-.9c-.3 0-.5.2-.5.5v9c0 .4.5.6.8.2.3-.4.7-.9 1-1.3 0-.1.1-.2.1-.3zM28.4 36.2v27.1c0 .3.2.5.5.5h.9c.3 0 .5-.2.5-.5V38.4v-.1c-.2-.2-1.1-1.3-1.6-2.2-.2 0-.3 0-.3.1zM34.5 12.9V8.7c0-.3-.2-.5-.5-.5h-.9c-.3 0-.5.2-.5.5v4.9c0 .3.4.5.7.3.3-.2.7-.5 1-.7.1-.1.2-.2.2-.3zM32.6 41.4v22c0 .3.2.5.5.5h.9c.3 0 .5-.2.5-.5V42c0-.1-.1-.3-.2-.4-.3-.2-.7-.4-1-.7-.3-.1-.7.1-.7.5zM42.2 10.5V8.7c0-.3-.2-.5-.5-.5H39c-.3 0-.5.2-.5.5V11c0 .3.3.5.5.4.9-.2 1.9-.3 2.9-.4.2 0 .3-.2.3-.5zM38.5 43.9v19.4c0 .3.2.5.5.5h2.8c.3 0 .5-.2.5-.5v-19c0-.2-.2-.4-.4-.4-1 0-1.9-.2-2.9-.4-.3 0-.5.2-.5.4zM46.8 10.9V8.7c0-.3-.2-.5-.5-.5h-.9c-.3 0-.5.2-.5.5v2.1c0 .2.2.4.4.4.3.1.7.1 1 .2.2 0 .5-.2.5-.5zM44.9 44.1v19.2c0 .3.2.5.5.5h.9c.3 0 .5-.2.5-.5V43.9c0-.3-.3-.5-.5-.4-.3.1-.7.1-1 .2-.3.1-.4.2-.4.4zM50.7 12.3V8.7c0-.3-.2-.5-.5-.5h-.9c-.3 0-.5.2-.5.5v3.2c0 .2.1.3.3.4.3.1.7.3 1 .5.3.1.6-.1.6-.5zM48.8 43v20.3c0 .3.2.5.5.5h.9c.3 0 .5-.2.5-.5V42.5c0-.3-.3-.5-.6-.4-.3.2-.7.3-1 .5-.2.1-.3.2-.3.4zM55 15.5V8.7c0-.3-.2-.5-.5-.5h-.9c-.3 0-.5.2-.5.5v5.8c0 .1.1.2.1.3.3.2.7.6 1 1 .3.2.8.1.8-.3zM54.9 48.5l-1.4-1.4c-.1-.1-.3 0-.3.1v16.1c0 .3.2.5.5.5h.9c.3 0 .5-.2.5-.5V48.8c-.1-.1-.2-.2-.2-.3zM58.7 31v5c0 .2.1.3.3.3 1.1.3 2.2.8 3 1.7l1.8 1.8c.2.2.6.1.6-.2V8.7c0-.3-.2-.5-.5-.5h-4.7c-.3 0-.5.2-.5.5v15.2c.5 2.3.5 4.7 0 7.1zM59.4 53.1c-.3-.3-.7-.1-.7.3v10c0 .3.2.5.5.5h4.7c.3 0 .5-.2.5-.5v-4.9c0-.3-.1-.5-.3-.7l-4.7-4.7z"/><path d="M52.2 17.8c-5.5-5.5-14.4-5.3-19.7.5-4.6 5-4.7 12.9-.2 18.1 4.8 5.5 12.9 6.2 18.5 2 .2-.2.5-.2.7 0l2.7 2.7c.1.1.2.3.1.5-.3 1.1 0 2.3.9 3.1l10.5 10.5c1.1 1.1 2.9 1.4 4.2.5 1.8-1.2 2-3.7.5-5.2L60 40.1c-.9-.9-2.1-1.1-3.1-.9-.2 0-.4 0-.5-.1l-2.7-2.7c-.2-.2-.2-.5 0-.7 3.8-5.4 3.4-13-1.5-17.9zM35 35c-4.2-4.2-4.2-11 0-15.2s11-4.2 15.2 0 4.2 11 0 15.2-11 4.2-15.2 0z"/></svg>