<svg xmlns="http://www.w3.org/2000/svg" xmlns:xlink="http://www.w3.org/1999/xlink" version="1.1" x="0px" y="0px" viewBox="0 0 72 72" enable-background="new 0 0 72 72" xml:space="preserve"><g><path fill="#000000" d="M3.7,63.8H1c-0.3,0-0.5-0.2-0.5-0.5V8.7c0-0.3,0.2-0.5,0.5-0.5h2.7c0.3,0,0.5,0.2,0.5,0.5v54.6   C4.3,63.6,4,63.8,3.7,63.8z"/><path fill="#000000" d="M9.3,63.8H8.5c-0.3,0-0.5-0.2-0.5-0.5V8.7c0-0.3,0.2-0.5,0.5-0.5h0.8c0.3,0,0.5,0.2,0.5,0.5v54.6   C9.8,63.6,9.6,63.8,9.3,63.8z"/><path fill="#000000" d="M14.8,63.8H14c-0.3,0-0.5-0.2-0.5-0.5V8.7c0-0.3,0.2-0.5,0.5-0.5h0.8c0.3,0,0.5,0.2,0.5,0.5v54.6   C15.4,63.6,15.1,63.8,14.8,63.8z"/><path fill="#000000" d="M23.2,63.8h-3.9c-0.3,0-0.5-0.2-0.5-0.5V8.7c0-0.3,0.2-0.5,0.5-0.5h3.9c0.3,0,0.5,0.2,0.5,0.5v54.6   C23.7,63.6,23.5,63.8,23.2,63.8z"/><path fill="#000000" d="M30.3,16.3V8.7c0-0.3-0.2-0.5-0.5-0.5h-0.9c-0.3,0-0.5,0.2-0.5,0.5v9c0,0.4,0.5,0.6,0.8,0.2   c0.3-0.4,0.7-0.9,1-1.3C30.2,16.5,30.3,16.4,30.3,16.3z"/><path fill="#000000" d="M28.4,36.2v27.1c0,0.3,0.2,0.5,0.5,0.5h0.9c0.3,0,0.5-0.2,0.5-0.5V38.4c0,0,0-0.1,0-0.1   c-0.2-0.2-1.1-1.3-1.6-2.2C28.5,36.1,28.4,36.1,28.4,36.2z"/><path fill="#000000" d="M34.5,12.9V8.7c0-0.3-0.2-0.5-0.5-0.5h-0.9c-0.3,0-0.5,0.2-0.5,0.5v4.9c0,0.3,0.4,0.5,0.7,0.3   c0.3-0.2,0.7-0.5,1-0.7C34.4,13.1,34.5,13,34.5,12.9z"/><path fill="#000000" d="M32.6,41.4v22c0,0.3,0.2,0.5,0.5,0.5H34c0.3,0,0.5-0.2,0.5-0.5V42c0-0.1-0.1-0.3-0.2-0.4   c-0.3-0.2-0.7-0.4-1-0.7C33,40.8,32.6,41,32.6,41.4z"/><path fill="#000000" d="M42.2,10.5V8.7c0-0.3-0.2-0.5-0.5-0.5H39c-0.3,0-0.5,0.2-0.5,0.5V11c0,0.3,0.3,0.5,0.5,0.4   c0.9-0.2,1.9-0.3,2.9-0.4C42.1,11,42.2,10.8,42.2,10.5z"/><path fill="#000000" d="M38.5,43.9v19.4c0,0.3,0.2,0.5,0.5,0.5h2.8c0.3,0,0.5-0.2,0.5-0.5v-19c0-0.2-0.2-0.4-0.4-0.4   c-1,0-1.9-0.2-2.9-0.4C38.7,43.5,38.5,43.7,38.5,43.9z"/><path fill="#000000" d="M46.8,10.9V8.7c0-0.3-0.2-0.5-0.5-0.5h-0.9c-0.3,0-0.5,0.2-0.5,0.5v2.1c0,0.2,0.2,0.4,0.4,0.4   c0.3,0.1,0.7,0.1,1,0.2C46.5,11.4,46.8,11.2,46.8,10.9z"/><path fill="#000000" d="M44.9,44.1v19.2c0,0.3,0.2,0.5,0.5,0.5h0.9c0.3,0,0.5-0.2,0.5-0.5V43.9c0-0.3-0.3-0.5-0.5-0.4   c-0.3,0.1-0.7,0.1-1,0.2C45,43.8,44.9,43.9,44.9,44.1z"/><path fill="#000000" d="M50.7,12.3V8.7c0-0.3-0.2-0.5-0.5-0.5h-0.9c-0.3,0-0.5,0.2-0.5,0.5v3.2c0,0.2,0.1,0.3,0.3,0.4   c0.3,0.1,0.7,0.3,1,0.5C50.4,12.9,50.7,12.7,50.7,12.3z"/><path fill="#000000" d="M48.8,43v20.3c0,0.3,0.2,0.5,0.5,0.5h0.9c0.3,0,0.5-0.2,0.5-0.5V42.5c0-0.3-0.3-0.5-0.6-0.4   c-0.3,0.2-0.7,0.3-1,0.5C48.9,42.7,48.8,42.8,48.8,43z"/><path fill="#000000" d="M55,15.5V8.7c0-0.3-0.2-0.5-0.5-0.5h-0.9c-0.3,0-0.5,0.2-0.5,0.5v5.8c0,0.1,0.1,0.2,0.1,0.3   c0.3,0.2,0.7,0.6,1,1C54.5,16,55,15.9,55,15.5z"/><path fill="#000000" d="M54.9,48.5c0,0-0.9-0.9-1.4-1.4c-0.1-0.1-0.3,0-0.3,0.1v16.1c0,0.3,0.2,0.5,0.5,0.5h0.9   c0.3,0,0.5-0.2,0.5-0.5V48.8C55,48.7,54.9,48.6,54.9,48.5z"/><g><path fill="#000000" d="M58.7,31v5c0,0.2,0.1,0.3,0.3,0.3c1.1,0.3,2.2,0.8,3,1.7l1.8,1.8c0.2,0.2,0.6,0.1,0.6-0.2V8.7    c0-0.3-0.2-0.5-0.5-0.5h-4.7c-0.3,0-0.5,0.2-0.5,0.5v15.2C59.2,26.2,59.2,28.6,58.7,31z"/><path fill="#000000" d="M59.4,53.1c-0.3-0.3-0.7-0.1-0.7,0.3v10c0,0.3,0.2,0.5,0.5,0.5h4.7c0.3,0,0.5-0.2,0.5-0.5v-4.9    c0-0.3-0.1-0.5-0.3-0.7C63,56.7,59.4,53.1,59.4,53.1z"/></g><path fill="#000000" d="M52.2,17.8c-5.5-5.5-14.4-5.3-19.7,0.5c-4.6,5-4.7,12.9-0.2,18.1c4.8,5.5,12.9,6.2,18.5,2   c0.2-0.2,0.5-0.2,0.7,0l2.7,2.7c0.1,0.1,0.2,0.3,0.1,0.5c-0.3,1.1,0,2.3,0.9,3.1l10.5,10.5c1.1,1.1,2.9,1.4,4.2,0.5   c1.8-1.2,2-3.7,0.5-5.2L60,40.1c-0.9-0.9-2.1-1.1-3.1-0.9c-0.2,0-0.4,0-0.5-0.1l-2.7-2.7c-0.2-0.2-0.2-0.5,0-0.7   C57.5,30.3,57.1,22.7,52.2,17.8z M35,35c-4.2-4.2-4.2-11,0-15.2s11-4.2,15.2,0s4.2,11,0,15.2S39.2,39.2,35,35z"/></g>
<!-- <text x="0" y="87" fill="#000000" font-size="5px" font-weight="bold" font-family="'Helvetica Neue', Helvetica, Arial-Unicode, Arial, Sans-serif">Created by Creative Stall</text><text x="0" y="92" fill="#000000" font-size="5px" font-weight="bold" font-family="'Helvetica Neue', Helvetica, Arial-Unicode, Arial, Sans-serif">from the Noun Project</text> -->
</svg>