<svg xmlns="http://www.w3.org/2000/svg" xmlns:xlink="http://www.w3.org/1999/xlink" version="1.1" x="0px" y="0px" viewBox="0 0 100 100" enable-background="new 0 0 100 100" xml:space="preserve"><g><path fill="none" d="M34.163,33.478c0.083-0.793,1.08-7.341,7.067-7.612C35.242,26.136,34.245,32.685,34.163,33.478   c-0.002,0.02-0.004,0.04-0.004,0.06c0,0,0,0,0.001,0C34.16,33.518,34.162,33.498,34.163,33.478z"/><path fill="none" d="M54.413,26.166c0.305-0.007,0.605-0.011,0.898-0.012C55.018,26.155,54.717,26.159,54.413,26.166   c-1.774,0.633-3.604,0.845-5.28,0.836C50.81,27.011,52.639,26.799,54.413,26.166z"/><path fill="none" d="M66.025,33.282c-0.24-0.042-0.49,0.047-0.737,0.24l-0.013,0.016l0.014-0.016   C65.536,33.329,65.786,33.24,66.025,33.282z"/><path fill="none" d="M35.228,41.109C35.228,41.109,35.228,41.109,35.228,41.109c1.458,4.537,4.252,9.056,7.778,11.752   c2.031,1.558,4.304,2.509,6.704,2.509h0c-2.4,0-4.672-0.951-6.704-2.509C39.481,50.165,36.687,45.645,35.228,41.109z"/><path fill="none" d="M64.197,41.11c0.118,0.11,0.249,0.181,0.394,0.205h0.001C64.447,41.291,64.314,41.219,64.197,41.11   C64.197,41.109,64.197,41.109,64.197,41.11z"/><path fill="none" d="M61.814,28.26c-0.063-0.774-0.656-1.568-0.627-2.092C61.157,26.692,61.751,27.486,61.814,28.26z"/><path fill="none" d="M33.916,40.915c0.227,0.227,0.461,0.368,0.69,0.402C34.377,41.283,34.144,41.142,33.916,40.915   c-0.611-0.61-1.169-1.848-1.433-3.332c-0.018-0.098-0.027-0.192-0.041-0.289c0.016-1.039,0.06-2.045,0.131-3.041   c0.129-0.382,0.302-0.681,0.524-0.839c0.093-0.067,0.194-0.112,0.303-0.131c0,0,0,0-0.001,0c-0.109,0.019-0.21,0.064-0.303,0.131   c-0.222,0.158-0.395,0.457-0.524,0.839c-0.071,0.996-0.115,2.002-0.132,3.041c0.014,0.097,0.023,0.191,0.041,0.289   C32.746,39.067,33.304,40.305,33.916,40.915z"/><path fill="none" d="M32.573,34.253c-0.071,0.996-0.115,2.002-0.131,3.041c0.014,0.097,0.023,0.191,0.041,0.289   c0.264,1.484,0.822,2.722,1.434,3.332c0.227,0.227,0.46,0.368,0.689,0.402c0.076,0.011,0.151,0.011,0.226-0.002   c0.145-0.024,0.276-0.096,0.395-0.206v0c0,0,0,0,0.001,0c1.459,4.536,4.253,9.056,7.779,11.752   c2.031,1.558,4.304,2.509,6.704,2.509c2.454,0,4.776-0.996,6.839-2.61c3.462-2.71,6.206-7.173,7.646-11.651   c0,0,0.001,0,0.002,0.001c0,0,0,0,0-0.001c0.117,0.11,0.25,0.182,0.395,0.206c0.258,0.044,0.525-0.059,0.79-0.281   c0.495-0.418,0.968-1.257,1.293-2.32c0.107-0.354,0.2-0.733,0.271-1.129c0.046-0.258,0.081-0.513,0.105-0.761   c0.05-0.496,0.058-0.967,0.027-1.394c-0.076-1.068-0.39-1.862-0.876-2.092c-0.056-0.026-0.114-0.044-0.177-0.056   c-0.239-0.042-0.489,0.047-0.736,0.24l-0.014,0.016c0-0.001-0.002-0.002-0.002-0.004c-0.004,0.003-0.006,0.004-0.008,0.006   c-0.002-0.014-0.002-0.029-0.004-0.044c-0.934-3.546-2.111-5.716-3.324-7.009c-0.234-0.127-0.479-0.241-0.75-0.319   c-0.029,0.524,0.564,1.318,0.627,2.092c-0.211-0.098-0.42-0.203-0.63-0.312c-1.469-0.761-2.959-1.704-5.017-1.78   c-0.276-0.01-0.563-0.014-0.856-0.014c-0.293,0-0.594,0.005-0.898,0.012c-1.774,0.633-3.604,0.845-5.28,0.836   c-3.688-0.019-6.638-1.103-6.638-1.103c-0.444-0.042-0.866-0.051-1.265-0.033c-5.988,0.271-6.985,6.819-7.067,7.612   c-0.001,0.02-0.003,0.04-0.003,0.06c0,0-0.001,0-0.001,0s0,0-0.001,0c0,0,0,0-0.001,0c-0.253-0.204-0.511-0.299-0.757-0.255   c-0.109,0.019-0.21,0.064-0.303,0.131C32.875,33.572,32.702,33.871,32.573,34.253z"/><path d="M80,64c0.682,0,1.348,0.057,2.005,0.141c-3.604-4.023-7.233-4.33-8.327-4.586c-3.373-0.789-7.457-0.453-9.635-1.133   c-0.382,3.189-6.521,5.727-14.042,5.727c-7.52,0-13.661-2.537-14.043-5.727c-2.178,0.682-6.262,0.344-9.635,1.133   c-1.712,0.4-9.672,0.911-13.978,15.729c-0.583,2.014-0.378,4.2,0.572,5.993c3.528,6.672,22.084,8.727,37.084,8.724   c5.438,0.001,11.345-0.271,16.832-0.933C65.051,86.488,64,83.366,64,80C64,71.178,71.178,64,80,64z"/><path d="M32.274,42.648c1.587,4.27,4.099,8.417,7.206,11.45c1.758,1.719,3.706,3.08,5.784,3.902   c1.428,0.566,2.919,0.881,4.451,0.881c1.53,0,3.021-0.313,4.45-0.881c2.149-0.852,4.163-2.277,5.968-4.082   c3.03-3.027,5.48-7.109,7.037-11.306c1.196-0.353,2.451-2.594,2.962-5.457c0.556-3.107,0.03-5.817-1.168-6.269   c0.043-0.758,0.071-1.525,0.069-2.313c-0.028-11.262-6.631-17.81-17.045-18.508c-9.077-0.608-15.917,2.997-19.03,8.994   c-1.048,2.017-1.646,4.54-1.876,7.281c-0.35,1.427-0.555,2.911-0.555,4.445h0.034c-0.001,0.012-0.002,0.023-0.002,0.036   c-0.022,0.002-0.045,0.003-0.066,0.008c-1.328,0.231-1.933,3.064-1.35,6.327C29.675,40.155,31.027,42.474,32.274,42.648z    M32.572,34.253c0.129-0.382,0.302-0.681,0.524-0.839c0.093-0.067,0.194-0.112,0.303-0.131c0,0,0,0,0.001,0l0,0   c0.247-0.044,0.505,0.051,0.758,0.255c0,0,0.001,0,0.001,0c0-0.02,0.002-0.04,0.003-0.06c0.083-0.793,1.08-7.342,7.068-7.612   c0.399-0.018,0.821-0.008,1.266,0.033c0,0,2.949,1.084,6.637,1.103c1.677,0.009,3.506-0.203,5.279-0.836   c0.305-0.007,0.605-0.011,0.899-0.012c0.294,0,0.581,0.004,0.857,0.014c2.057,0.076,3.547,1.02,5.016,1.78   c0.21,0.109,0.419,0.214,0.63,0.312c-0.063-0.774-0.657-1.568-0.627-2.092c0.271,0.078,0.516,0.192,0.75,0.319   c1.213,1.293,2.391,3.463,3.324,7.009c0.002,0.015,0.002,0.03,0.004,0.044c0.002-0.002,0.004-0.003,0.008-0.006   c0,0.002,0.002,0.003,0.002,0.004l0.013-0.016c0.247-0.193,0.497-0.282,0.737-0.24c0.063,0.012,0.121,0.03,0.178,0.056   c0.486,0.23,0.799,1.024,0.875,2.092c0.03,0.427,0.022,0.898-0.027,1.394c-0.024,0.248-0.06,0.502-0.105,0.761   c-0.07,0.396-0.163,0.775-0.271,1.129c-0.325,1.063-0.798,1.901-1.292,2.32c-0.265,0.222-0.533,0.326-0.791,0.281l0,0h-0.001   c-0.145-0.024-0.275-0.095-0.394-0.205c-1.441,4.478-4.184,8.94-7.646,11.65c-2.064,1.614-4.386,2.61-6.84,2.61h0h0   c-2.4,0-4.673-0.951-6.704-2.509c-3.526-2.696-6.319-7.216-7.779-11.752c-0.119,0.11-0.25,0.182-0.394,0.206   c-0.075,0.013-0.15,0.014-0.227,0.002c-0.229-0.034-0.464-0.175-0.69-0.402c-0.612-0.61-1.17-1.848-1.435-3.332   c-0.018-0.098-0.027-0.192-0.041-0.289C32.457,36.255,32.501,35.249,32.572,34.253z"/><path d="M56.55,52.76c-2.063,1.614-4.386,2.61-6.839,2.61h0C52.165,55.37,54.486,54.374,56.55,52.76   c3.464-2.71,6.206-7.172,7.647-11.65c-0.001,0-0.002,0-0.002-0.001C62.756,45.587,60.012,50.05,56.55,52.76z"/><path d="M65.382,41.034c-0.265,0.222-0.532,0.325-0.79,0.281l0,0C64.85,41.36,65.118,41.256,65.382,41.034   c0.495-0.418,0.968-1.257,1.293-2.32C66.35,39.777,65.877,40.616,65.382,41.034z"/><path d="M34.832,41.315c-0.074,0.013-0.15,0.013-0.226,0.002C34.683,41.329,34.758,41.328,34.832,41.315   c0.146-0.024,0.276-0.096,0.395-0.206v0C35.108,41.219,34.977,41.291,34.832,41.315z"/><path d="M49.133,27.002c-3.688-0.019-6.637-1.103-6.637-1.103c-0.445-0.042-0.866-0.051-1.266-0.033   c0.399-0.018,0.82-0.008,1.265,0.033C42.495,25.899,45.445,26.983,49.133,27.002z"/><path d="M34.158,33.538c-0.253-0.204-0.511-0.299-0.758-0.255l0,0C33.646,33.239,33.904,33.334,34.158,33.538   C34.158,33.538,34.158,33.538,34.158,33.538z"/><path d="M61.185,27.948c-1.469-0.761-2.959-1.704-5.016-1.78c-0.276-0.01-0.563-0.014-0.857-0.014c0.294,0,0.58,0.004,0.856,0.014   C58.226,26.244,59.716,27.188,61.185,27.948z"/><path d="M67.078,35.43c-0.076-1.068-0.389-1.862-0.875-2.092c-0.057-0.026-0.114-0.044-0.178-0.056   c0.063,0.012,0.121,0.03,0.177,0.056C66.688,33.568,67.002,34.362,67.078,35.43z"/><path d="M67.051,36.824c0.05-0.496,0.058-0.967,0.027-1.394C67.108,35.857,67.101,36.328,67.051,36.824z"/><path d="M80,66c-7.721,0-14,6.279-14,14s6.279,14,14,14c7.719,0,14-6.279,14-14S87.719,66,80,66z M86.557,81.688h-4.554v4.87   h-3.989v-4.87h-4.571l0.001-3.989h4.57v-4.256h3.989v4.256h4.555L86.557,81.688z"/></g>
<!-- <text x="0" y="115" fill="#000000" font-size="5px" font-weight="bold" font-family="'Helvetica Neue', Helvetica, Arial-Unicode, Arial, Sans-serif">Created by Wilson Joseph</text><text x="0" y="120" fill="#000000" font-size="5px" font-weight="bold" font-family="'Helvetica Neue', Helvetica, Arial-Unicode, Arial, Sans-serif">from the Noun Project</text> -->
</svg>