<svg xmlns="http://www.w3.org/2000/svg" xmlns:xlink="http://www.w3.org/1999/xlink" version="1.1" x="0px" y="0px" viewBox="0 0 100 100" enable-background="new 0 0 100 100" xml:space="preserve"><path fill="#000000" d="M68.64,31.991c0.55-0.404,1.094,0.368,0.546,0.773c-0.46,0.338-0.937,1.173-1.246,2.341  c0.069,0.27,0.087,0.467-0.022,0.871c-0.352,1.274-1.48,1.854-1.18,0.055c0.109-0.64,0.223-1.04,0.301-1.286  C67.388,33.522,67.94,32.507,68.64,31.991z M33.075,31.991c0.699,0.517,1.252,1.533,1.603,2.754c0.077,0.246,0.192,0.646,0.3,1.286  c0.303,1.798-0.827,1.219-1.177-0.055c-0.112-0.404-0.097-0.601-0.024-0.871c-0.312-1.168-0.787-2.003-1.244-2.341  C31.982,32.358,32.525,31.585,33.075,31.991z M50.306,48.843c0.382,0.056,0.464-0.517,0.083-0.572  c-0.252-0.037-0.427-0.046-0.673-0.14c-0.358-0.138-0.565,0.402-0.206,0.54C49.819,48.789,49.995,48.797,50.306,48.843z   M54.169,47.95c-0.914,0.763-1.926,1.348-3.236,1.374h-0.105c-1.506-0.029-2.615-0.796-3.636-1.723  c-0.409-0.33-0.831-0.732-1.312-1.211c-0.312-0.31-0.687-0.538-1.096-0.69c-0.104-0.028-0.195-0.059-0.271-0.091  c-0.585-0.241-0.24-1.142,0.365-0.915l0.035,0.013l0.098,0.031c1.544,0.467,3.984-0.562,5.865,0.323  c1.881-0.885,4.328,0.145,5.873-0.323l0.096-0.031l0.035-0.013c0.607-0.228,0.951,0.674,0.367,0.915  c-0.076,0.032-0.166,0.062-0.266,0.089C55.751,46.156,55.263,47.196,54.169,47.95z M46.944,46.005  c0.366,0.361,0.742,0.739,1.145,1.084c0.626,0.43,1.451,0.739,2.799,0.744c1.339-0.005,2.162-0.315,2.786-0.745  c0.399-0.344,0.776-0.722,1.144-1.083c-1.464,0.117-3.123,0.148-3.891,0.15h-0.086C50.066,46.154,48.407,46.123,46.944,46.005z   M47.991,41.211c0,0,0.053-0.061,0.154-0.134c1.057-0.773,1.686,0.489,2.723,0.489c1.041,0,1.686-1.257,2.735-0.489  c0.103,0.074,0.154,0.134,0.154,0.134c0.442,0.484-0.282,1.147-0.726,0.664c-0.267-0.193-0.817,0.335-1.08,0.457  c-0.287,0.132-0.635,0.217-1.086,0.217c-0.754,0-1.132-0.196-1.687-0.612c-0.151-0.113-0.31-0.175-0.465-0.062  C48.272,42.358,47.549,41.695,47.991,41.211z M52.848,30.448c0.024-0.29,0.175-0.589,0.493-0.804  c1.779-1.193,3.85-1.863,6.025-1.777c1.445,0.058,2.608,0.385,3.738,1.025l0.094,0.055c-2.677-0.225-6,0.171-7.838,0.681  C54.343,29.911,53.622,30.228,52.848,30.448z M38.528,28.938l0.081-0.048c1.13-0.64,2.292-0.967,3.739-1.025  c2.175-0.086,4.246,0.584,6.023,1.777c0.334,0.223,0.481,0.538,0.494,0.839c-0.871-0.235-1.701-0.609-2.594-0.856  C44.454,29.123,41.186,28.73,38.528,28.938z M48.561,30.978c0.824,0.29,2.153,0.287,2.257,0.286c0.104,0,1.434,0.004,2.258-0.286  c0.857-0.301,3.282-1.392,7.029-1.531c3.212-0.119,5.325,0.393,5.938,0.748c0.127,0.083,0.213,0.229,0.213,0.393v1.771  c0,0.246-0.115,0.444-0.432,0.724c-0.574,0.423-0.58,1.007-0.695,1.945c-0.182,1.478-0.325,4.708-5.185,5.184  c-4.575,0.448-6.521-2.03-7.228-3.875c-0.698-1.818-0.684-2.712-1.898-2.715c-1.216,0.002-1.201,0.896-1.896,2.715  c-0.709,1.844-2.652,4.322-7.229,3.875c-4.859-0.476-5.004-3.707-5.185-5.184c-0.115-0.938-0.124-1.522-0.696-1.945  c-0.316-0.279-0.432-0.478-0.432-0.724v-1.771c0-0.164,0.084-0.309,0.214-0.393c0.61-0.355,2.724-0.867,5.937-0.748  C45.275,29.586,47.702,30.678,48.561,30.978z M37.471,34.854c0.022,3.213,2.271,4.791,5.055,4.791c3.47,0,5.519-2.237,5.732-4.675  c0.219-2.492,0.858-3.814-5.585-4.28C39.896,30.488,37.44,30.747,37.471,34.854z M64.163,34.854  c0.029-4.107-2.426-4.366-5.203-4.165c-6.441,0.466-5.803,1.789-5.584,4.28c0.213,2.438,2.265,4.675,5.731,4.675  C61.893,39.644,64.142,38.066,64.163,34.854z M39.993,33.905l-1.295-0.372c-0.629-0.181-0.357-1.125,0.271-0.944l0.886,0.254  c0.038-0.054,0.077-0.107,0.117-0.158l-0.392-0.174c-0.599-0.267-0.199-1.164,0.397-0.898l0.79,0.35  c0.564-0.376,1.26-0.625,2.02-0.719c1.172,0.089,2.07,0.207,2.761,0.345c0.348,0.137,0.671,0.308,0.963,0.507  c0.083,0.057,0.162,0.116,0.239,0.177l0.05,0.04l0.05,0.042c0.445,0.378,0.787,0.835,0.977,1.348  c0.057,0.151,0.047,0.287-0.006,0.397c-0.168,0.361-0.777,0.456-0.961-0.038c-0.074-0.201-0.191-0.401-0.349-0.588  c-0.394-0.473-1.031-0.875-1.829-1.085c0.372,0.286,0.598,0.747,0.562,1.25c-0.057,0.799-0.75,1.401-1.547,1.345  c-0.8-0.056-1.402-0.749-1.346-1.547c0.035-0.527,0.352-0.968,0.789-1.192c-1.234,0.087-2.172,0.665-2.557,1.378  C40.477,33.846,40.27,33.983,39.993,33.905z M61.857,32.843l0.888-0.254c0.629-0.181,0.899,0.764,0.271,0.944l-1.295,0.372  c-0.275,0.08-0.484-0.059-0.576-0.254c-0.4-0.742-1.338-1.319-2.57-1.407c0.438,0.224,0.752,0.665,0.789,1.192  c0.057,0.799-0.547,1.492-1.346,1.547c-0.799,0.055-1.49-0.546-1.547-1.345c-0.036-0.503,0.189-0.964,0.562-1.25  c-1.117,0.292-1.916,0.962-2.18,1.673c-0.238,0.646-1.207,0.287-0.968-0.359c0.356-0.963,1.241-1.726,2.358-2.145  c0.678-0.127,1.543-0.236,2.648-0.318c0.77,0.09,1.477,0.341,2.05,0.723l0.79-0.35c0.598-0.266,0.996,0.631,0.398,0.898  l-0.393,0.174C61.782,32.736,61.821,32.789,61.857,32.843z M58.737,58.097c-0.941,3.093-2.996,6.825-6.375,7.722  c0.364,0.43,0.598,0.947,0.879,1.428c0.676,1.152,1.711,3.485,3.219,6.444c2.111-5.767,3.771-10.048,4.363-11.688  c-0.31-0.533-1.164-2.039-1.73-3.319C58.956,58.379,58.831,58.203,58.737,58.097z M50.858,65.039  c4.322-0.071,6.34-5.317,6.905-7.121c0.071-2.164,0.353-4.08,1.053-6.103c-0.192,0.108-0.392,0.218-0.596,0.324  c-1.399,0.72-2.866,1.321-4.213,2.14c-0.972,0.59-2.062,0.594-3.173,0.602c-2.166-0.018-2.182-0.118-3.779-0.955  c-1.323-0.692-2.766-1.288-4.102-2.035c0.67,1.964,0.946,3.827,1.022,5.923c0.092,0.298,0.149,0.587,0.192,0.709  c0.263,0.733,0.668,1.707,1.238,2.681C46.564,63.166,48.321,64.996,50.858,65.039z M42.997,58.111  c-0.102,0.105-0.228,0.278-0.355,0.57c-0.568,1.281-1.424,2.786-1.732,3.318c0.592,1.643,2.25,5.924,4.362,11.689  c1.199-2.352,2.279-4.773,3.571-7.078c0.154-0.277,0.32-0.551,0.527-0.794C45.995,64.922,43.944,61.199,42.997,58.111z   M46.633,74.047c-0.05,0.005-0.097,0-0.142-0.016s-0.088-0.041-0.125-0.072c-0.031-0.029-0.06-0.061-0.08-0.098  c-0.209,0.412-0.428,0.838-0.656,1.275c-0.245,0.473-0.715,0.441-0.896-0.059c-1.886-5.179-3.455-9.281-4.306-11.545l4.596,22.653  v9.862c0,0.885,0.608,1.626,1.433,1.824H15.118c1.682-12.906,2.207-22.19,2.668-26.931c0.104-1.079,0.287-3.272,2.836-4.19  c5.338-2.115,19.065-5.111,19.401-5.187c0.263-0.45,1.144-1.985,1.72-3.284l0.062-0.133c-4.302-1.365-6.64-4.852-7.905-9.677  c-0.959-2.885-1.695-6.338-2.142-10.156c-1.232-1.635-1.999-3.673-2.029-5.503c-0.026-1.602,0.638-2.557,1.554-2.918  c0-5.33,0.536-10.488,1.487-14.944c0.449-3.202,1.583-6.241,3.947-8.45c2.874-2.575,7.478-4.814,14.126-5.023  c0,0,0.707-0.021,1.775,0.053c3.502,0.244,8.403,1.335,9.899,4.93c0.062,0.311,0.104,0.639,0.123,0.983  c0.34,5.78-1.548,10.07-4.606,13.021c-2.449,1.578-5.619,2.388-9.195,2.68c-2.129,0.174-4.038,0.152-5.307,0.213  c-3.551,0.172-5.923,2.097-6.341,5.37c-0.021,0.156-0.03,0.285-0.036,0.382c-0.371,0.069-0.718,0.155-1.033,0.26l-0.041-0.072  c-0.485-1.069-0.986-2.725-0.475-4.345c0.198-0.624-0.736-0.922-0.936-0.298c-0.543,1.708-0.192,3.547,0.553,5.134  c-0.23,0.186-0.389,0.476-0.389,0.794v1.771c0,0.48,0.274,0.83,0.635,1.146c0.262,0.193,0.365,0.536,0.421,0.889  c-0.199,0.011-0.406-0.097-0.495-0.362l-0.033-0.104c-0.035-0.105-0.104-0.292-0.203-0.525c-0.543-1.273-1.654-3.081-3.34-2.615  c-2.191,0.605-0.585,4.688,0.012,5.823c0.803,1.529,2.521,3.398,4.365,3.729c0.104,0.019,0.346,0.22,0.381,0.32  c1.799,5.083,3.152,7.415,4.698,8.854c0.269,0.25,0.554,0.481,0.849,0.695c0.082,0.026,0.16,0.077,0.223,0.156  c1.794,1.234,3.977,1.951,5.824,3.074c0.787,0.48,1.771,0.451,2.66,0.459c2.017-0.018,1.869-0.08,3.324-0.841  c2.053-1.074,4.521-1.946,6.237-3.542c1.545-1.438,2.899-3.771,4.699-8.854c0.096-0.275,1.606-0.777,1.883-0.94  c2.194-1.29,3.938-4.375,3.983-6.921c0.045-2.699-2.416-2.607-3.731-0.718c-0.142,0.202-0.274,0.419-0.397,0.645l-0.094,0.173  c-0.066,0.133-0.133,0.268-0.191,0.405c-0.047,0.127-0.092,0.239-0.139,0.359l-0.021,0.034l-0.045,0.126l-0.055,0.168l-0.031,0.09  c-0.104,0.236-0.307,0.327-0.5,0.309c0.094-0.407,0.222-0.746,0.412-0.887c0.358-0.317,0.635-0.666,0.635-1.146v-1.771  c0-0.356-0.196-0.676-0.473-0.856c-0.231-0.135-0.5-0.251-0.797-0.351c-0.268-0.995-0.753-1.885-1.297-3.456  c-0.33-0.956-0.658-2.151-0.921-3.792c-0.246-1.551-1.257-2.69-3.198-2.391c2.467-3.135,3.799-7.365,3.508-12.354  c-0.008-0.146-0.02-0.29-0.035-0.431c0.199-0.054,0.349-0.087,0.545-0.087c1.766,0,3.322,2.236,4.25,5.646l0.037,0.001  c1.311,4.958,2.067,11.05,2.067,17.371v0.086c2.569,1.113,1.119,5.383,0.222,7.095c-0.199,0.379-0.428,0.75-0.681,1.107  c-0.442,3.875-1.188,7.378-2.159,10.298c-1.268,4.838-3.613,8.327-7.936,9.687l0.057,0.123c0.608,1.369,1.553,3.002,1.756,3.35  l0.016-0.065c0,0,14.004,3.045,19.406,5.187c2.55,0.918,2.731,3.111,2.838,4.191c0.459,4.739,0.986,14.023,2.668,26.932H55.339  c0.82-0.199,1.432-0.94,1.432-1.826V86.17l4.659-22.973c-0.813,2.182-2.449,6.437-4.431,11.877c-0.183,0.5-0.65,0.53-0.896,0.059  c-0.238-0.455-0.473-0.916-0.702-1.377c-0.007,0.029-0.019,0.059-0.03,0.084c-0.021,0.046-0.052,0.082-0.086,0.115  c-0.039,0.031-0.08,0.057-0.125,0.07c-0.045,0.016-0.093,0.021-0.142,0.018c-0.049-0.002-0.095-0.016-0.14-0.037  c-0.041-0.021-0.08-0.051-0.11-0.088c-0.033-0.037-0.056-0.08-0.071-0.125c-0.015-0.045-0.021-0.092-0.018-0.141  s0.016-0.095,0.039-0.139c0.02-0.042,0.049-0.08,0.085-0.111c0.038-0.033,0.077-0.057,0.125-0.07  c0.045-0.016,0.092-0.021,0.141-0.019c0.046,0.003,0.089,0.015,0.132,0.032l-0.056-0.109c-0.022,0.002-0.048,0.004-0.069,0.002  c-0.051-0.004-0.097-0.017-0.139-0.037c-0.042-0.021-0.08-0.052-0.113-0.088c-0.031-0.037-0.056-0.078-0.07-0.125  c-0.016-0.046-0.021-0.092-0.019-0.141c0.005-0.049,0.017-0.096,0.038-0.139c0.018-0.033,0.039-0.064,0.066-0.094  c-0.412-0.845-0.822-1.693-1.24-2.535l-1.662,2.566l2.061,8.668h-6.262l2.062-8.668l-1.657-2.561  c-0.37,0.76-0.791,1.637-1.271,2.605c0.03,0.061,0.043,0.105,0.047,0.154c0.002,0.049-0.004,0.095-0.019,0.141  c-0.015,0.047-0.039,0.088-0.071,0.125c-0.031,0.036-0.07,0.065-0.111,0.088c-0.036,0.019-0.075,0.029-0.114,0.035l-0.041,0.08  c0.072-0.007,0.119,0,0.165,0.016c0.045,0.015,0.087,0.037,0.123,0.07c0.037,0.031,0.064,0.069,0.087,0.111  c0.022,0.044,0.034,0.09,0.037,0.139c0.004,0.049-0.003,0.096-0.017,0.141c-0.017,0.045-0.041,0.088-0.071,0.125  c-0.032,0.037-0.07,0.065-0.112,0.088C46.728,74.033,46.681,74.045,46.633,74.047z M54.601,95.762V83.49h-7.41v12.271H54.601z   M45.745,83.201c0-0.64,0.519-1.156,1.155-1.156h7.989c0.639,0,1.156,0.518,1.156,1.156v12.851c0,0.64-0.52,1.155-1.156,1.155H46.9  c-0.638,0-1.155-0.517-1.155-1.155V83.201z M50.186,92.639c-0.008,0.008-0.017,0.021-0.026,0.046  c-0.045,0.101-0.11,0.217-0.136,0.261c0.046,0.129,0.177,0.461,0.341,0.912c0.118-0.23,0.198-0.412,0.252-0.504  c0.021-0.037,0.039-0.077,0.068-0.109C50.419,93.172,50.261,92.881,50.186,92.639z M50.587,93.576  c-0.063,0.133-0.127,0.266-0.194,0.396c-0.021,0.037-0.056,0.034-0.069-0.005c-0.156-0.426-0.283-0.758-0.347-0.928l0.422,2.082  l0.318-1.345L50.587,93.576z M51.415,92.64c-0.073,0.241-0.233,0.532-0.498,0.604c0.017,0.018,0.029,0.039,0.043,0.062  c0.101,0.18,0.185,0.368,0.277,0.552c0.166-0.451,0.295-0.783,0.342-0.912c-0.024-0.044-0.092-0.16-0.135-0.261  C51.434,92.662,51.424,92.648,51.415,92.64z M48.21,93.643c0.01-0.084,0.022-0.255,0.224-0.327c0.422-0.167,1.517-0.405,1.517-0.405  c0.018-0.021,0.092-0.149,0.139-0.256c-0.334-0.115-0.516-0.389-0.615-0.768c-0.076-0.229-0.135-0.502-0.169-0.805  c-0.021-0.027-0.037-0.059-0.054-0.088c-0.069-0.133-0.182-0.467,0.018-0.555c0-0.5,0.062-0.977,0.164-1.363  c0.072-0.268,0.195-0.439,0.332-0.439c0.018,0,0.027,0.002,0.043,0.006c-0.025,0.423,0.079,0.753,0.271,0.999  c-0.15-0.022-0.23,0.065-0.25,0.188c-0.021,0.127-0.045,0.221-0.072,0.295c-0.041,0.123-0.08,0.191-0.102,0.271  c-0.021,0.007-0.045,0.019-0.062,0.028c-0.021,0.013-0.036,0.037-0.036,0.066v0.139c0,0.037,0.02,0.063,0.049,0.089  c0.016,0.011,0.025,0.038,0.033,0.069c-0.016,0-0.031-0.006-0.039-0.024l-0.023-0.06l-0.021-0.047  c-0.01-0.019-0.02-0.033-0.031-0.05c-0.102-0.147-0.296-0.155-0.292,0.056c0.003,0.198,0.14,0.44,0.312,0.541  c0.022,0.012,0.141,0.053,0.147,0.073c0.142,0.397,0.245,0.579,0.367,0.693c0.136,0.123,0.327,0.19,0.487,0.274  c0.113,0.061,0.103,0.064,0.26,0.065c0.07,0,0.146,0.002,0.208-0.036c0.144-0.087,0.315-0.145,0.456-0.238  c0.04-0.029,0.062-0.049,0.083-0.065c0.12-0.114,0.226-0.296,0.366-0.693c0.176-0.051,0.31-0.196,0.371-0.315  c0.047-0.088,0.174-0.408,0.002-0.457c-0.133-0.034-0.219,0.104-0.262,0.207l-0.016,0.041c-0.012,0.027-0.025,0.035-0.043,0.035  c0.005-0.027,0.014-0.056,0.033-0.069c0.029-0.024,0.05-0.052,0.05-0.089V90.49c0-0.025-0.011-0.049-0.029-0.062  c0.058-0.126,0.085-0.271,0.042-0.403c-0.016-0.048-0.088-0.023-0.072,0.023c0.041,0.127,0.002,0.256-0.037,0.34  c-0.027-0.002-0.055-0.01-0.084-0.016c-0.037-0.285-0.221-0.437-0.498-0.449c-0.101-0.004-0.25-0.002-0.414-0.018  c-0.28-0.021-0.527-0.086-0.719-0.209c-0.24-0.23-0.387-0.564-0.361-1.018c0.003-0.027,0.006-0.053,0.011-0.077  c0.117-0.28,0.5-0.366,0.772-0.385c0.084-0.007,0.14-0.005,0.14-0.005c0.521,0.017,0.88,0.191,1.104,0.393  c0.186,0.174,0.271,0.41,0.309,0.661c0.074,0.349,0.115,0.751,0.115,1.167c0.072,0.027,0.125,0.104,0.123,0.229  c-0.004,0.145-0.062,0.303-0.16,0.431c-0.034,0.3-0.092,0.567-0.166,0.794c-0.1,0.378-0.282,0.65-0.617,0.757  c0.048,0.11,0.117,0.231,0.138,0.267c0.026,0.008,1.101,0.24,1.519,0.405c0.197,0.072,0.213,0.243,0.221,0.327  c0.029,0.316,0.064,0.895,0.156,1.686h-5.488C48.146,94.537,48.182,93.959,48.21,93.643z M51.014,93.578l-0.129,0.198l0.317,1.334  l0.414-2.047c-0.065,0.179-0.188,0.498-0.336,0.901c-0.016,0.041-0.051,0.043-0.07,0.006C51.13,93.817,51.065,93.683,51.014,93.578z   M51.228,92.881c0.046-0.074,0.076-0.151,0.098-0.209l0.016-0.057c0.006-0.162,0.025-0.309,0.078-0.461  c-0.104,0.057-0.217,0.104-0.318,0.157c-0.124,0.065-0.126,0.074-0.296,0.075c-0.087,0-0.173,0-0.247-0.049  c-0.105-0.062-0.221-0.108-0.33-0.166l-0.047-0.024c0.054,0.157,0.077,0.308,0.083,0.478c0.044,0.141,0.2,0.552,0.539,0.556  C50.999,93.179,51.137,93.037,51.228,92.881z M49.762,90.822c0.002,0.252,0.177,0.375,0.396,0.375c0.271,0,0.432-0.175,0.448-0.365  c0.017-0.194,0.067-0.297-0.437-0.334C49.952,90.481,49.76,90.502,49.762,90.822z M51.848,90.822  c0.003-0.32-0.188-0.341-0.406-0.324c-0.504,0.037-0.454,0.14-0.438,0.334c0.019,0.19,0.179,0.365,0.449,0.365  C51.671,91.197,51.846,91.074,51.848,90.822z M50.982,90.519c0.066-0.022,0.257-0.106,0.55-0.119c0.25-0.009,0.416,0.03,0.463,0.06  l0.019,0.17c0,0.018-0.011,0.033-0.035,0.056c-0.045,0.033-0.046,0.079-0.054,0.153c-0.016,0.115-0.025,0.367-0.406,0.404  c-0.357,0.034-0.51-0.158-0.564-0.304c-0.054-0.144-0.053-0.212-0.147-0.212s-0.095,0.068-0.147,0.212  c-0.056,0.146-0.207,0.338-0.564,0.304c-0.381-0.037-0.393-0.289-0.404-0.404c-0.01-0.074-0.01-0.12-0.054-0.153  c-0.026-0.021-0.035-0.038-0.035-0.056V90.49c0.063-0.061,0.229-0.1,0.479-0.091c0.293,0.013,0.481,0.097,0.551,0.119  c0.064,0.022,0.169,0.022,0.176,0.022C50.813,90.541,50.917,90.541,50.982,90.519z M49.941,90.664  c-0.067-0.047-0.034-0.115,0.011-0.096l0.062,0.026c0.045-0.029,0.102-0.048,0.16-0.056c0.087,0.008,0.154,0.015,0.208,0.023  c0.087,0.033,0.155,0.094,0.183,0.168c0.02,0.051-0.057,0.078-0.074,0.028c-0.021-0.056-0.082-0.108-0.17-0.132  c0.027,0.021,0.047,0.06,0.043,0.098c-0.005,0.062-0.059,0.109-0.121,0.105c-0.062-0.004-0.108-0.059-0.104-0.121  c0.004-0.041,0.028-0.074,0.062-0.094c-0.097,0.008-0.17,0.053-0.201,0.109c-0.006,0.016-0.022,0.027-0.045,0.021l-0.102-0.031  c-0.049-0.014-0.027-0.086,0.021-0.073L49.941,90.664z M51.651,90.748c-0.021,0.006-0.037-0.006-0.047-0.021  c-0.029-0.057-0.104-0.102-0.199-0.107c0.034,0.019,0.059,0.051,0.062,0.094c0.004,0.062-0.044,0.117-0.107,0.121  c-0.061,0.004-0.115-0.045-0.119-0.106c-0.002-0.038,0.016-0.075,0.043-0.097c-0.062,0.016-0.11,0.048-0.143,0.084  c-0.014,0.015-0.021,0.031-0.025,0.047c-0.017,0.037-0.062,0.029-0.076,0.003c0.016-0.071,0.041-0.106,0.076-0.136  c0.049-0.036,0.073-0.051,0.102-0.062c0.054-0.011,0.123-0.021,0.216-0.026c0.06,0.008,0.112,0.026,0.158,0.056l0.062-0.026  c0.047-0.021,0.078,0.049,0.032,0.068l0.047,0.007c0.05-0.013,0.07,0.062,0.021,0.074L51.651,90.748z M51.766,90.361  c-0.208-0.018-0.463,0.012-0.604,0.055c-0.069,0.018-0.136,0.047-0.203,0.065c0-0.022,0.014-0.05,0.039-0.065  c0.139-0.094,0.302-0.146,0.472-0.139c0.112,0.004,0.202,0.029,0.292,0.079L51.766,90.361z M50.646,90.479  c-0.062-0.018-0.116-0.043-0.196-0.062c-0.144-0.043-0.402-0.071-0.611-0.056c0.095-0.054,0.186-0.079,0.299-0.083  c0.17-0.008,0.332,0.045,0.471,0.139C50.633,90.431,50.645,90.455,50.646,90.479z M51.026,91.32c0.034,0.036-0.021,0.09-0.057,0.051  c-0.014-0.008-0.025-0.004-0.036,0.006c-0.044,0.033-0.074,0.047-0.133,0.047c-0.035,0-0.062-0.006-0.085-0.016  c-0.02-0.01-0.062-0.053-0.086-0.037c-0.032,0.039-0.09-0.015-0.055-0.051c0.094-0.07,0.144,0.027,0.226,0.027  s0.131-0.1,0.213-0.039L51.026,91.32z M51.107,91.695c-0.114,0.008-0.243,0.012-0.305,0.012c-0.065,0-0.195-0.004-0.312-0.012  c0.029,0.027,0.061,0.057,0.09,0.084c0.049,0.033,0.113,0.059,0.218,0.059c0.106,0,0.171-0.024,0.22-0.059  C51.05,91.752,51.079,91.723,51.107,91.695z M50.544,91.846c-0.086-0.059-0.125-0.141-0.221-0.176  c-0.066-0.025-0.037-0.096,0.01-0.078c0.129,0.039,0.32-0.04,0.467,0.027c0.146-0.067,0.338,0.012,0.459-0.024  c0.058-0.021,0.085,0.05,0.039,0.067c-0.053,0.02-0.083,0.037-0.106,0.062c-0.036,0.038-0.069,0.068-0.103,0.096  c-0.081,0.07-0.168,0.131-0.284,0.135C50.694,91.951,50.616,91.906,50.544,91.846z M50.846,91.914  c0.022-0.002,0.038-0.004,0.062-0.013c0.027-0.011,0.01-0.053-0.018-0.043c-0.02,0.009-0.032,0.009-0.053,0.013  C50.809,91.875,50.815,91.92,50.846,91.914z M52.191,90.599c0.043-0.031,0.087,0.028,0.043,0.062  c-0.036,0.025-0.071,0.092-0.098,0.184c0.006,0.021,0.007,0.035-0.002,0.066c-0.027,0.101-0.115,0.146-0.093,0.004  c0.009-0.049,0.019-0.08,0.023-0.1C52.095,90.719,52.137,90.638,52.191,90.599z M49.413,90.599c0.055,0.039,0.098,0.12,0.125,0.216  c0.006,0.02,0.016,0.051,0.022,0.1c0.022,0.142-0.063,0.097-0.092-0.004c-0.011-0.031-0.009-0.047-0.002-0.066  c-0.024-0.092-0.062-0.157-0.097-0.184C49.327,90.627,49.37,90.567,49.413,90.599z M54.51,81.289  c-0.05-0.004-0.095-0.017-0.138-0.037c-0.043-0.02-0.08-0.051-0.112-0.088s-0.056-0.08-0.071-0.125  c-0.015-0.045-0.021-0.092-0.018-0.141c0.004-0.05,0.017-0.095,0.037-0.138c0.021-0.043,0.051-0.08,0.088-0.113  c0.037-0.032,0.078-0.055,0.123-0.069c0.045-0.017,0.093-0.021,0.143-0.02c0.048,0.004,0.096,0.018,0.139,0.038  c0.041,0.021,0.078,0.05,0.11,0.087s0.058,0.079,0.071,0.124c0.016,0.046,0.021,0.093,0.018,0.142  c-0.003,0.051-0.016,0.096-0.035,0.139c-0.021,0.043-0.053,0.08-0.088,0.111c-0.039,0.033-0.08,0.057-0.125,0.071  C54.605,81.287,54.56,81.293,54.51,81.289z M54.958,74.853c-0.047-0.003-0.094-0.017-0.137-0.035  c-0.041-0.022-0.08-0.053-0.111-0.089c-0.032-0.039-0.057-0.08-0.07-0.125c-0.016-0.046-0.021-0.092-0.02-0.141  c0.004-0.051,0.018-0.096,0.037-0.139c0.022-0.043,0.053-0.08,0.088-0.113c0.037-0.03,0.078-0.055,0.125-0.07  c0.045-0.016,0.092-0.021,0.141-0.018c0.05,0.004,0.095,0.016,0.138,0.037s0.079,0.051,0.112,0.088  c0.031,0.035,0.056,0.078,0.07,0.125c0.017,0.043,0.021,0.09,0.02,0.142c-0.004,0.048-0.018,0.097-0.037,0.136  c-0.021,0.045-0.051,0.081-0.089,0.113c-0.036,0.031-0.078,0.057-0.123,0.07C55.056,74.851,55.01,74.855,54.958,74.853z   M54.903,75.658c-0.048-0.004-0.095-0.017-0.137-0.037c-0.044-0.021-0.08-0.051-0.111-0.088c-0.033-0.039-0.057-0.08-0.072-0.125  c-0.015-0.045-0.021-0.092-0.018-0.142c0.004-0.049,0.018-0.093,0.037-0.138c0.021-0.043,0.051-0.08,0.087-0.111  c0.037-0.033,0.079-0.057,0.123-0.072c0.047-0.015,0.095-0.021,0.144-0.017c0.049,0.003,0.095,0.015,0.137,0.036  c0.044,0.021,0.081,0.052,0.113,0.089c0.031,0.036,0.056,0.075,0.07,0.123c0.016,0.046,0.021,0.093,0.018,0.144  c-0.002,0.047-0.016,0.094-0.037,0.137s-0.051,0.08-0.088,0.111c-0.036,0.032-0.078,0.057-0.123,0.071  C54.999,75.654,54.954,75.662,54.903,75.658z M54.847,76.461c-0.049-0.004-0.094-0.016-0.137-0.035  c-0.043-0.021-0.08-0.051-0.112-0.088s-0.058-0.082-0.072-0.125c-0.014-0.047-0.021-0.092-0.016-0.143  c0.002-0.048,0.015-0.094,0.036-0.137c0.021-0.044,0.051-0.08,0.088-0.113c0.037-0.031,0.078-0.056,0.123-0.07  c0.046-0.016,0.094-0.021,0.143-0.018s0.094,0.016,0.137,0.037s0.08,0.051,0.112,0.088c0.032,0.035,0.058,0.077,0.072,0.123  c0.014,0.045,0.021,0.094,0.017,0.143s-0.016,0.096-0.037,0.138c-0.021,0.044-0.05,0.079-0.086,0.112  c-0.037,0.031-0.08,0.056-0.125,0.07C54.944,76.459,54.896,76.465,54.847,76.461z M54.79,77.267  c-0.049-0.004-0.094-0.017-0.137-0.037s-0.08-0.051-0.113-0.088c-0.03-0.037-0.056-0.079-0.07-0.125  c-0.016-0.045-0.021-0.091-0.018-0.142c0.002-0.049,0.017-0.094,0.037-0.137c0.021-0.043,0.051-0.08,0.088-0.111  c0.037-0.033,0.078-0.057,0.123-0.072s0.092-0.021,0.142-0.018s0.096,0.017,0.138,0.037c0.042,0.021,0.081,0.051,0.113,0.088  c0.031,0.037,0.056,0.078,0.07,0.123c0.016,0.047,0.021,0.092,0.018,0.144c-0.004,0.048-0.016,0.093-0.037,0.137  c-0.021,0.043-0.051,0.08-0.088,0.112c-0.037,0.031-0.078,0.055-0.123,0.07S54.839,77.271,54.79,77.267z M54.734,78.072  c-0.048-0.004-0.094-0.017-0.136-0.039c-0.043-0.021-0.082-0.05-0.114-0.088c-0.032-0.035-0.056-0.078-0.069-0.123  c-0.017-0.045-0.021-0.093-0.019-0.142c0.003-0.048,0.017-0.095,0.038-0.138c0.02-0.043,0.05-0.08,0.087-0.111  c0.037-0.033,0.078-0.057,0.124-0.07c0.044-0.017,0.092-0.021,0.141-0.019c0.051,0.003,0.094,0.016,0.139,0.034  c0.042,0.023,0.08,0.054,0.111,0.09c0.033,0.037,0.057,0.078,0.071,0.121c0.017,0.049,0.021,0.095,0.019,0.145  c-0.004,0.051-0.018,0.094-0.039,0.137c-0.021,0.043-0.049,0.082-0.086,0.113c-0.039,0.032-0.078,0.057-0.125,0.072  C54.831,78.07,54.784,78.076,54.734,78.072z M54.679,78.875c-0.049-0.004-0.096-0.016-0.139-0.037  c-0.041-0.021-0.08-0.051-0.111-0.088c-0.032-0.037-0.057-0.078-0.07-0.123c-0.016-0.047-0.021-0.094-0.02-0.143  c0.003-0.049,0.018-0.096,0.039-0.137c0.021-0.044,0.05-0.081,0.086-0.113c0.037-0.031,0.078-0.056,0.125-0.07  c0.045-0.016,0.092-0.021,0.14-0.019c0.05,0.003,0.097,0.017,0.14,0.036c0.043,0.023,0.08,0.052,0.112,0.088  c0.031,0.037,0.056,0.079,0.07,0.124c0.016,0.046,0.022,0.095,0.019,0.144s-0.016,0.094-0.037,0.137s-0.051,0.082-0.088,0.113  s-0.078,0.056-0.123,0.07C54.775,78.873,54.727,78.879,54.679,78.875z M54.622,79.681c-0.049-0.003-0.096-0.017-0.138-0.038  s-0.081-0.05-0.112-0.087c-0.033-0.037-0.057-0.079-0.069-0.125c-0.017-0.044-0.022-0.093-0.019-0.142  c0.002-0.049,0.017-0.094,0.037-0.137c0.021-0.044,0.051-0.082,0.088-0.113c0.035-0.031,0.076-0.056,0.123-0.07  c0.045-0.016,0.092-0.021,0.141-0.018c0.05,0.002,0.096,0.016,0.138,0.037c0.044,0.021,0.081,0.051,0.113,0.086  c0.03,0.037,0.056,0.078,0.071,0.125c0.015,0.045,0.021,0.092,0.018,0.143c-0.003,0.049-0.018,0.094-0.037,0.138  c-0.021,0.042-0.05,0.08-0.088,0.112c-0.037,0.031-0.079,0.056-0.124,0.07C54.719,79.678,54.671,79.684,54.622,79.681z   M54.567,80.484c-0.051-0.003-0.096-0.016-0.139-0.035c-0.043-0.022-0.08-0.052-0.112-0.088c-0.032-0.039-0.056-0.08-0.071-0.125  c-0.017-0.046-0.021-0.094-0.018-0.143s0.018-0.094,0.037-0.137c0.021-0.043,0.05-0.082,0.088-0.113  c0.037-0.031,0.078-0.057,0.124-0.07c0.045-0.016,0.093-0.021,0.142-0.018c0.047,0.004,0.096,0.016,0.137,0.037  c0.043,0.021,0.08,0.051,0.113,0.086c0.031,0.037,0.057,0.08,0.069,0.125c0.017,0.045,0.021,0.094,0.019,0.142  c-0.002,0.05-0.017,0.097-0.037,0.14s-0.051,0.08-0.086,0.111c-0.039,0.032-0.08,0.057-0.125,0.071S54.616,80.488,54.567,80.484z   M47.14,81.289c-0.051,0.004-0.098-0.002-0.143-0.019s-0.086-0.038-0.123-0.071c-0.037-0.031-0.065-0.068-0.09-0.111  c-0.021-0.043-0.033-0.088-0.035-0.139c-0.004-0.049,0.002-0.096,0.018-0.142c0.016-0.045,0.04-0.087,0.07-0.124  c0.033-0.037,0.07-0.066,0.113-0.087c0.041-0.021,0.088-0.034,0.137-0.038c0.05-0.003,0.097,0.003,0.144,0.02  c0.044,0.016,0.085,0.037,0.122,0.069c0.037,0.033,0.066,0.07,0.088,0.113s0.033,0.088,0.037,0.138  c0.004,0.049-0.002,0.096-0.018,0.141s-0.039,0.088-0.071,0.125s-0.07,0.067-0.112,0.088C47.233,81.273,47.188,81.287,47.14,81.289z   M46.688,74.853c-0.049,0.003-0.095-0.002-0.143-0.019c-0.043-0.014-0.086-0.039-0.122-0.07c-0.036-0.032-0.065-0.068-0.089-0.113  c-0.021-0.039-0.032-0.088-0.035-0.136c-0.004-0.052,0.002-0.099,0.018-0.142c0.016-0.047,0.039-0.09,0.071-0.125  c0.03-0.037,0.069-0.065,0.11-0.088c0.043-0.021,0.09-0.033,0.139-0.037s0.096,0.002,0.143,0.018c0.045,0.016,0.086,0.04,0.123,0.07  c0.036,0.033,0.064,0.07,0.086,0.113c0.022,0.043,0.035,0.088,0.039,0.139c0.004,0.049-0.003,0.095-0.018,0.141  c-0.018,0.045-0.04,0.086-0.072,0.125c-0.031,0.036-0.068,0.064-0.111,0.089C46.784,74.836,46.739,74.85,46.688,74.853z   M46.745,75.658c-0.051,0.004-0.097-0.004-0.143-0.019c-0.045-0.017-0.086-0.039-0.124-0.071c-0.036-0.031-0.065-0.068-0.087-0.111  s-0.034-0.09-0.037-0.137c-0.003-0.051,0.003-0.098,0.018-0.144c0.017-0.048,0.039-0.087,0.072-0.123  c0.031-0.037,0.07-0.067,0.111-0.089c0.043-0.021,0.089-0.033,0.139-0.036c0.049-0.005,0.096,0.002,0.141,0.017  c0.045,0.016,0.086,0.039,0.123,0.072c0.037,0.031,0.066,0.068,0.088,0.111c0.021,0.045,0.033,0.089,0.037,0.138  c0.004,0.05-0.002,0.097-0.018,0.142s-0.039,0.086-0.07,0.125c-0.033,0.037-0.069,0.065-0.112,0.088  C46.839,75.642,46.794,75.654,46.745,75.658z M46.802,76.461c-0.051,0.004-0.098-0.002-0.141-0.018  c-0.047-0.016-0.086-0.039-0.125-0.07c-0.037-0.033-0.066-0.068-0.088-0.112c-0.021-0.042-0.033-0.089-0.037-0.138  s0.002-0.098,0.018-0.143c0.016-0.046,0.04-0.088,0.07-0.123c0.033-0.037,0.072-0.066,0.113-0.088  c0.043-0.021,0.088-0.033,0.139-0.037c0.049-0.004,0.095,0.002,0.141,0.018c0.045,0.016,0.086,0.039,0.124,0.07  c0.036,0.033,0.065,0.069,0.088,0.113c0.021,0.043,0.033,0.089,0.036,0.137c0.004,0.051-0.001,0.096-0.018,0.143  c-0.016,0.043-0.039,0.088-0.071,0.125c-0.031,0.037-0.069,0.064-0.112,0.088C46.896,76.447,46.851,76.457,46.802,76.461z   M46.858,77.267c-0.049,0.004-0.098-0.003-0.142-0.019c-0.046-0.017-0.087-0.039-0.123-0.07c-0.038-0.032-0.067-0.069-0.089-0.112  c-0.021-0.044-0.034-0.089-0.036-0.137c-0.005-0.052,0.001-0.097,0.016-0.144c0.017-0.045,0.04-0.086,0.071-0.123  c0.033-0.037,0.07-0.066,0.113-0.088c0.043-0.021,0.088-0.033,0.139-0.037c0.048-0.004,0.096,0.002,0.141,0.018  c0.045,0.018,0.086,0.039,0.123,0.072c0.037,0.031,0.067,0.068,0.088,0.111c0.021,0.043,0.035,0.088,0.037,0.137  c0.004,0.051-0.002,0.097-0.018,0.142c-0.014,0.046-0.039,0.088-0.07,0.125c-0.033,0.037-0.07,0.067-0.113,0.088  C46.954,77.25,46.907,77.263,46.858,77.267z M46.913,78.072c-0.047,0.004-0.096-0.002-0.142-0.018  c-0.045-0.018-0.086-0.04-0.123-0.072c-0.038-0.031-0.067-0.07-0.088-0.113s-0.032-0.086-0.037-0.137  c-0.004-0.05,0.002-0.096,0.017-0.145c0.017-0.043,0.039-0.084,0.072-0.121c0.032-0.036,0.069-0.064,0.112-0.09  c0.043-0.02,0.089-0.031,0.14-0.034c0.047-0.005,0.094,0.002,0.139,0.019c0.046,0.014,0.088,0.037,0.125,0.07  c0.037,0.031,0.066,0.068,0.087,0.111c0.022,0.043,0.034,0.09,0.036,0.138c0.004,0.049-0.002,0.097-0.016,0.142  c-0.016,0.045-0.039,0.088-0.07,0.123c-0.033,0.038-0.071,0.067-0.114,0.088C47.009,78.056,46.962,78.068,46.913,78.072z   M46.97,78.875c-0.049,0.004-0.096-0.002-0.143-0.018c-0.045-0.016-0.084-0.039-0.123-0.07c-0.037-0.031-0.065-0.07-0.088-0.113  c-0.021-0.043-0.033-0.088-0.037-0.137s0.002-0.098,0.02-0.144c0.016-0.045,0.038-0.087,0.07-0.124  c0.031-0.036,0.07-0.064,0.111-0.088c0.043-0.021,0.09-0.033,0.139-0.036s0.097,0.003,0.141,0.019  c0.046,0.016,0.088,0.039,0.124,0.07c0.038,0.032,0.065,0.069,0.087,0.113c0.021,0.041,0.036,0.088,0.038,0.137  c0.004,0.049-0.002,0.096-0.019,0.143c-0.015,0.045-0.039,0.086-0.069,0.123c-0.033,0.037-0.07,0.066-0.113,0.088  C47.065,78.861,47.02,78.871,46.97,78.875z M47.026,79.681c-0.049,0.003-0.095-0.003-0.141-0.019  c-0.047-0.016-0.088-0.039-0.125-0.07c-0.035-0.032-0.064-0.07-0.088-0.112c-0.02-0.044-0.033-0.089-0.037-0.138  c-0.003-0.051,0.003-0.098,0.02-0.143c0.016-0.047,0.037-0.088,0.07-0.125c0.031-0.035,0.07-0.064,0.111-0.086  c0.043-0.021,0.091-0.035,0.139-0.037c0.049-0.004,0.096,0.002,0.141,0.018c0.047,0.016,0.088,0.039,0.125,0.07  s0.065,0.069,0.086,0.113c0.022,0.043,0.035,0.088,0.039,0.137s-0.004,0.098-0.019,0.142c-0.017,0.046-0.039,0.088-0.071,0.125  c-0.031,0.037-0.068,0.065-0.111,0.087C47.12,79.664,47.075,79.678,47.026,79.681z M47.081,80.484  c-0.049,0.004-0.094-0.002-0.141-0.017c-0.045-0.017-0.086-0.039-0.125-0.071c-0.035-0.031-0.064-0.068-0.087-0.111  c-0.021-0.043-0.034-0.09-0.037-0.14c-0.003-0.048,0.002-0.097,0.019-0.142c0.016-0.045,0.039-0.088,0.07-0.125  c0.033-0.035,0.07-0.064,0.112-0.086c0.043-0.021,0.09-0.033,0.138-0.037c0.049-0.004,0.096,0.002,0.141,0.018  c0.048,0.016,0.088,0.039,0.125,0.07s0.066,0.07,0.087,0.113c0.022,0.043,0.034,0.088,0.038,0.137s-0.002,0.097-0.018,0.143  c-0.017,0.045-0.039,0.086-0.072,0.125c-0.03,0.036-0.068,0.064-0.11,0.088C47.177,80.469,47.132,80.481,47.081,80.484z"/>
<!-- <text x="0" y="115" fill="#000000" font-size="5px" font-weight="bold" font-family="'Helvetica Neue', Helvetica, Arial-Unicode, Arial, Sans-serif">Created by Simon Child</text><text x="0" y="120" fill="#000000" font-size="5px" font-weight="bold" font-family="'Helvetica Neue', Helvetica, Arial-Unicode, Arial, Sans-serif">from the Noun Project</text> -->
</svg>