<svg xmlns="http://www.w3.org/2000/svg" xmlns:xlink="http://www.w3.org/1999/xlink" version="1.1" x="0px" y="0px" viewBox="-489 491 100 125" enable-background="new -489 491 100 100" xml:space="preserve"><path d="M-483,591h88c4,0,4,0,4-4s0-4-4-4h-88c-4,0-4,0-4,4S-487,591-483,591z M-407,575h2c4,0,4,0,4-4v-40c0-4,0-4-4-4h-2  c-4,0-4,0-4,4v40C-411,575-411,575-407,575z M-429,575h2c4,0,4,0,4-4v-40c0-4,0-4-4-4h-2c-4,0-4,0-4,4v40C-433,575-433,575-429,575z   M-451,575h2c4,0,4,0,4-4v-40c0-4,0-4-4-4h-2c-4,0-4,0-4,4v40C-455,575-455,575-451,575z M-473,575h2c4,0,4,0,4-4v-40c0-4,0-4-4-4  h-2c-4,0-4,0-4,4v40C-477,575-477,575-473,575z M-439,513c-3.3,0-6-2.7-6-6s2.7-6,6-6s6,2.7,6,6S-435.7,513-439,513z M-483,519h88  c4,0,4,0,4-4v-2c0-2,0-2-4-4l-44-18l-44,18c-4,2-4,2-4,4v2C-487,519-487,519-483,519z"/></svg>