<svg xmlns="http://www.w3.org/2000/svg" xmlns:xlink="http://www.w3.org/1999/xlink" version="1.0" x="0px" y="0px" viewBox="0 0 26 26.001" style="enable-background:new 0 0 26 26.001;" xml:space="preserve"><g><path d="M5,20v-8c0.551,0,1-0.449,1-1h0v-1H4H3H1v1c0,0.551,0.449,1,1,1v8H5z"></path><path d="M11,20v-8c0.551,0,1-0.449,1-1h0v-1h-2H9H7v1c0,0.551,0.449,1,1,1v8H11z"></path><path d="M17,20v-8c0.551,0,1-0.449,1-1h0v-1h-2h-1h-2v1c0,0.551,0.449,1,1,1v8H17z"></path><path d="M23,20v-8c0.551,0,1-0.449,1-1h0v-1h-2h-1h-2v1c0,0.551,0.449,1,1,1v8H23z"></path><path d="M24,23h-1c0-0.25,0-2,0-2H2v2H1c-0.551,0-1,0.449-1,1v1c0,0.551,0.449,1,1,1h23c0.551,0,1-0.449,1-1v-1   C25,23.45,24.551,23,24,23z"></path><path d="M0.961,9H24.02c0.008,0,0.016,0,0.02,0C24.57,9,25,8.553,25,8c0-0.42-0.248-0.779-0.601-0.928h0L12.975,0.136   c-0.299-0.182-0.67-0.182-0.969,0l-11.529,7C0.102,7.364-0.08,7.825,0.033,8.261C0.146,8.697,0.526,9,0.961,9z M12.5,3.351   c1.188,0,2.149,0.962,2.149,2.149c0,1.188-0.961,2.149-2.149,2.149c-1.188,0-2.149-0.961-2.149-2.149S11.312,3.351,12.5,3.351z"></path></g></svg>