<svg xmlns="http://www.w3.org/2000/svg" xmlns:xlink="http://www.w3.org/1999/xlink" version="1.1" x="0px" y="0px" viewBox="0 0 100 100" enable-background="new 0 0 100 100" xml:space="preserve"><g><path d="M16.903,50.977v30.106c0,0,1.878,5.189,8.069,5.042h15.125c0.442-0.028,0.123-16.355,0.133-17.532   c0.063-8.122-0.659-15.731,3.202-23.292c1.444-2.833,3.413-5.322,5.852-7.366c0.655-0.552,7.035-5.436,7.525-4.984   c-2.246-2.058-4.33-5.203-6.846-6.821c0,0-2.019-1.296-5.256,2.377L16.903,50.977z"></path><path d="M10.856,48.24c0,0-6.917,2.449-4.898-4.609l38.894-29.674c0,0,4.177-3.745,8.497,0l18.152,14.838   c0,0-4.32,3.815-7.996,1.151L50.542,19.646c0,0-1.805-1.727-4.033,0.504L10.856,48.24z"></path><path d="M18.129,30.473V20.403c0,0-0.469-2.81,3.419-2.917l11.885,0.864L18.129,30.473z"></path><path d="M69.195,36.14c-14.242,0-25.784,11.542-25.784,25.782c0,14.242,11.542,25.786,25.784,25.786s25.783-11.544,25.783-25.786   C94.979,47.683,83.438,36.14,69.195,36.14z M69.195,82.811c-11.517,0-20.885-9.369-20.885-20.889   c0-11.513,9.369-20.882,20.885-20.882S90.08,50.409,90.08,61.922C90.08,73.441,80.712,82.811,69.195,82.811z"></path><text transform="matrix(1 0 0 1 59.2012 75.251)" font-family="'MyriadPro-Regular'" font-size="40.6209">$</text></g></svg>