<svg xmlns="http://www.w3.org/2000/svg" xmlns:xlink="http://www.w3.org/1999/xlink" version="1.1" x="0px" y="0px" viewBox="0 0 50 62.5" enable-background="new 0 0 50 50" xml:space="preserve"><g><path fill="#000000" d="M13.279,41.841c0,0-3.197,5.585-2.289,6.982l-2.745-1.741c0,0,2.091-5.362,3.651-8.125   C12.818,41.241,13.279,41.841,13.279,41.841z"/><g><path fill="#000000" d="M38.429,2.124c-1.35,7.164-6.893,14.088-13.456,16.594C20.25,20.522,1.26,22.93,13.265,41.848    c0,0,0.101-1.638,0.161-2.185c0.679-6.05,4.516-11.198,17.144-15.11c0,0-13.174,6.525-15.513,17.852    c5.289-0.25,17.366,2.964,23.585-10.098C43.915,23.362,41.552,11.859,38.429,2.124z"/></g></g></svg>