<svg xmlns="http://www.w3.org/2000/svg" xmlns:xlink="http://www.w3.org/1999/xlink" version="1.1" x="0px" y="0px" viewBox="0 0 100 100" enable-background="new 0 0 100 100" xml:space="preserve"><path fill="#000000" d="M50.538,6.168c-24.853,0-45,20.146-45,45s20.147,45,45,45s45-20.146,45-45S75.391,6.168,50.538,6.168z   M50.538,91.479c-22.228,0-40.313-18.084-40.313-40.312c0-22.229,18.085-40.313,40.313-40.313c22.229,0,40.313,18.083,40.313,40.313  C90.851,73.396,72.767,91.479,50.538,91.479z"></path><path fill="#000000" d="M72.015,41.124H60.584V29.691c0-1.553-1.26-2.813-2.813-2.813H43.308c-1.552,0-2.813,1.259-2.813,2.813  v11.433H29.061c-1.553,0-2.813,1.259-2.813,2.813v14.46c0,1.555,1.259,2.813,2.813,2.813h11.434v11.435  c0,1.552,1.261,2.813,2.813,2.813h14.464c1.553,0,2.813-1.261,2.813-2.813V61.209h11.431c1.554,0,2.813-1.258,2.813-2.813v-14.46  C74.827,42.383,73.568,41.124,72.015,41.124z M72.015,58.396H57.771v14.247H43.308V58.396H29.061v-14.46h14.247V29.691h14.464  v14.245h14.243V58.396z"></path></svg>