<svg xmlns="http://www.w3.org/2000/svg" xmlns:xlink="http://www.w3.org/1999/xlink" version="1.1" x="0px" y="0px" viewBox="0 0 100 125" enable-background="new 0 0 100 100" xml:space="preserve"><g><path d="M69,24h-3v-7.5c0-1.93-1.57-3.5-3.5-3.5h-25c-1.93,0-3.5,1.57-3.5,3.5V24h-3v-7.5c0-3.584,2.916-6.5,6.5-6.5h25   c3.584,0,6.5,2.916,6.5,6.5V24z"/></g><path d="M96,25v60H4V25H96 M96,22H4c-1.657,0-3,1.468-3,3.125v60C1,86.782,2.343,88,4,88h92c1.657,0,3-1.218,3-2.875v-60  C99,23.468,97.657,22,96,22L96,22z"/><g><path d="M90.5,80h-80C9.671,80,9,79.328,9,78.5v-47c0-0.829,0.671-1.5,1.5-1.5h80c0.828,0,1.5,0.671,1.5,1.5v47   C92,79.328,91.328,80,90.5,80z M12,77h77V33H12V77z"/></g><g><path d="M34.377,60.444c-1.1,0-2-0.9-2-2v-6c0-1.1,0.9-2,2-2l31.769-0.001c1.1,0,2,0.9,2,2v6c0,1.1-0.9,2-2,2L34.377,60.444z"/></g><g><path d="M55.261,71.328c0,1.1-0.9,2-2,2h-6c-1.1,0-2-0.9-2-2l0.001-31.768c0-1.1,0.9-2,2-2h6c1.1,0,2,0.9,2,2L55.261,71.328z"/></g></svg>