<svg xmlns="http://www.w3.org/2000/svg" xmlns:xlink="http://www.w3.org/1999/xlink" version="1.1" x="0px" y="0px" viewBox="0 0 90 112.5" enable-background="new 0 0 90 90" xml:space="preserve"><g><circle cx="11.8" cy="65.7" r="7.5"/><circle cx="11.8" cy="24.8" r="7.5"/><circle cx="11.8" cy="45.3" r="7.5"/><path d="M86.4,70.2L71.9,55.7c5.1-7.4,6-16.9,2.6-25c-0.8,1.1-1.7,2.4-2.5,3.7c-0.6,1-1.2,1.9-1.7,2.9c1.1,6.3-0.8,13.1-5.6,18   c-3.9,3.9-9,6-14.4,6s-10.6-2.1-14.4-6c-8-8-8-20.9,0-28.9c3.9-3.9,9-6,14.4-6c4.8,0,9.3,1.6,12.9,4.6c1.5-1.4,3-2.6,4.6-3.9   c-5-4.5-11.3-6.7-17.5-6.7c-6.7,0-13.5,2.6-18.6,7.7c-10.3,10.3-10.3,27,0,37.2c5.1,5.1,11.9,7.7,18.6,7.7c5.2,0,10.4-1.5,14.9-4.6   L79.6,77c1.7,1.7,4.6,1.6,6.5-0.3v0C88,74.8,88.1,71.9,86.4,70.2z"/><path d="M54.2,40.7c0,0-9.2-14.7-18.7-13.7c8.3,7.6,11.3,18.6,13.7,22.3c2.7,4.1,7.3,4.6,10.7,0c2.2-3,5.1-9.3,9.6-16.5   c5-8,10.5-12.8,15.4-17.4c-7.7,2.7-14.8,7-20.4,12.5C57.2,34.9,54.2,40.7,54.2,40.7z"/></g></svg>