<?xml version="1.0" encoding="utf-8"?>
<!-- Generator: Adobe Illustrator 19.0.0, SVG Export Plug-In . SVG Version: 6.00 Build 0)  -->
<svg version="1.1" id="Layer_1" xmlns="http://www.w3.org/2000/svg" xmlns:xlink="http://www.w3.org/1999/xlink" x="0px" y="0px"
	 viewBox="-613 365 52 72" style="enable-background:new -613 365 52 72;" xml:space="preserve">
<g>
	<path d="M-564,374h-8.1c-0.4-1.7-2-3-3.9-3h-6.1c0.1-0.3,0.1-0.7,0.1-1c0-2.8-2.2-5-5-5s-5,2.2-5,5c0,0.3,0,0.7,0.1,1h-6.1
		c-1.9,0-3.4,1.3-3.9,3h-8.1c-1.7,0-3,1.3-3,3v57c0,1.7,1.3,3,3,3h46c1.7,0,3-1.3,3-3v-57C-561,375.3-562.3,374-564,374z M-590,370
		c0-1.7,1.3-3,3-3s3,1.3,3,3c0,0.4-0.1,0.7-0.2,1c-0.4,1.2-1.5,2-2.8,2s-2.4-0.8-2.8-2C-589.9,370.7-590,370.4-590,370z M-565,431
		h-44v-53h7v3h30v-3h7V431z"/>
	<rect x="-585" y="390" width="17" height="2"/>
	<rect x="-585" y="396" width="17" height="2"/>
	<rect x="-585" y="402" width="17" height="2"/>
	<rect x="-585" y="408" width="17" height="2"/>
	<rect x="-585" y="414" width="17" height="2"/>
	<rect x="-585" y="420" width="17" height="2"/>
</g>
<g>
	<path d="M-605.5,390.2v15.5h7.8v-15.5C-597.7,390.2-605.5,390.2-605.5,390.2z M-600.3,393.7h1.6v1.7h-1.6V393.7z M-602.5,393.7h1.6
		v1.7h-1.6V393.7z M-604.7,393.7h1.6v1.7h-1.6V393.7z M-603.2,400.5h-1.6v-1.7h1.6V400.5z M-603.2,397.9h-1.6v-1.7h1.6
		C-603.2,396.2-603.2,397.9-603.2,397.9z M-603.2,392.8h-1.6v-1.7h1.6V392.8z M-600.9,400.5h-1.6v-1.7h1.6V400.5z M-600.9,397.9
		h-1.6v-1.7h1.6V397.9z M-600.9,392.8h-1.6v-1.7h1.6V392.8z M-598.7,400.5h-1.6v-1.7h1.6V400.5z M-598.7,397.9h-1.6v-1.7h1.6V397.9z
		 M-598.7,392.8h-1.6v-1.7h1.6V392.8z"/>
	<path d="M-597.5,395.6v10.2h7.5v-10.2H-597.5z M-596.8,398.9h1.6v1.7h-1.6V398.9z M-595.2,403.1h-1.6v-1.7h1.6V403.1z M-595.2,398
		h-1.6v-1.7h1.6V398z M-594.5,398.9h1.6v1.7h-1.6V398.9z M-592.9,403.1h-1.6v-1.7h1.6V403.1z M-592.9,398h-1.6v-1.7h1.6V398z
		 M-592.3,398.9h1.6v1.7h-1.6V398.9z M-590.7,403.1h-1.6v-1.7h1.6V403.1z M-590.7,398h-1.6v-1.7h1.6V398z"/>
</g>
</svg>
