<svg xmlns="http://www.w3.org/2000/svg" xmlns:xlink="http://www.w3.org/1999/xlink" version="1.1" x="0px" y="0px" viewBox="0 0 100 125" enable-background="new 0 0 100 100" xml:space="preserve"><rect x="32" y="68" width="7" height="8"/><rect x="20" y="78" width="19" height="2"/><g><path d="M39,61H12.272C11.271,61,11,60.758,11,59.757V25.922C11,24.921,11.271,25,12.272,25H39v-5H8.676   C7.198,20,6,20.848,6,22.326v41.027C6,64.831,7.198,66,8.676,66H39V61z"/></g><path d="M62,39H51V28h11V39z M53,37h7v-7h-7V37z"/><rect x="65" y="30" width="21" height="2"/><rect x="65" y="34" width="18" height="2"/><path d="M62,56H51V45h11V56z M53,54h7v-7h-7V54z"/><rect x="65" y="49" width="16" height="2"/><rect x="65" y="53" width="19" height="2"/><path d="M62,73H51V62h11V73z M53,71h7v-7h-7V71z"/><rect x="65" y="64" width="17" height="2"/><rect x="65" y="45" width="20" height="2"/><rect x="65" y="68" width="11" height="2"/><path d="M13,32.137V59h26v-9.025c0,0-8.486,4.74-14.143-2.803c-1.692-2.256-0.743-6.6-4.234-10.575  C18.126,33.753,13,32.137,13,32.137z"/><path d="M90.73,16H79.378c0-1-0.847-2-1.892-2H61.405c-1.045,0-1.892,1-1.892,2H46.27C44.703,16,43,17.096,43,18.58v62.731  C43,82.796,44.703,84,46.27,84H90.73c1.567,0,3.27-1.204,3.27-2.688V18.58C94,17.096,92.297,16,90.73,16z M75.595,16.838  c0.522,0,0.946,0.423,0.946,0.946c0,0.522-0.423,0.946-0.946,0.946s-0.946-0.424-0.946-0.946  C74.649,17.261,75.072,16.838,75.595,16.838z M63.297,16.838c0.522,0,0.946,0.423,0.946,0.946c0,0.522-0.423,0.946-0.946,0.946  s-0.946-0.424-0.946-0.946C62.351,17.261,62.775,16.838,63.297,16.838z M90,79.27c0,0-0.216,0.73-1.162,0.73H48.162  C47.216,80,47,79.27,47,79.27V20.622C47,19.676,48.162,20,48.162,20h11.351c0,1,0.847,2,1.892,2h16.081c1.045,0,1.892-1,1.892-2  h9.459c0,0,1.162-0.324,1.162,0.622V79.27z"/></svg>