<svg xmlns="http://www.w3.org/2000/svg" xmlns:xlink="http://www.w3.org/1999/xlink" version="1.1" x="0px" y="0px" viewBox="0 0 100 100" enable-background="new 0 0 100 100" xml:space="preserve"><path d="M96.817,82.977L3.183,82.976c-1.07,0-1.938,0.867-1.938,1.938s0.867,1.938,1.938,1.938h93.635  c1.07,0,1.938-0.867,1.938-1.938C98.755,83.844,97.888,82.977,96.817,82.977z"></path><path d="M31.84,61.114h2.56v17.987h31.334V61.116h2.494v17.985h10.726v-21.05c0-8.341-6.377-16.493-15.995-16.493l-26.115-0.014  c-8.76,0-15.795,7.238-15.795,16.273v21.283H31.84V61.114z"></path><path d="M49.966,38.037c6.874,0,12.441-5.572,12.441-12.447c0-6.871-5.567-12.44-12.441-12.44c-6.875,0-12.447,5.569-12.447,12.44  C37.519,32.462,43.091,38.037,49.966,38.037z"></path></svg>