<?xml version="1.0" encoding="utf-8"?><!DOCTYPE svg PUBLIC "-//W3C//DTD SVG 1.1//EN" "http://www.w3.org/Graphics/SVG/1.1/DTD/svg11.dtd"><svg version="1.1" xmlns="http://www.w3.org/2000/svg" xmlns:xlink="http://www.w3.org/1999/xlink" x="0px" y="0px" viewBox="-0.048 9.653 100 78.457" enable-background="new -0.048 9.653 100 78.457" xml:space="preserve"><path d="M82.807,76.692c-0.801,0.016-0.717,0.032-1.72-0.459v2.739v6.854c0,1.575,1.225,2.283,2.227,2.283h0.902
	c1.003,0,0.883-0.708,0.883-2.283v-9.354C85.099,76.787,83.424,76.68,82.807,76.692z"></path><path d="M69.059,61.495c6.304-0.093,11.47-5.693,11.549-12.021c0.008-0.49-0.021-0.976-0.076-1.458
	c-0.009-0.068-0.026-0.136-0.034-0.206c-0.057-0.419-0.129-0.835-0.229-1.243c-0.007-0.026-0.018-0.053-0.023-0.079
	c-0.448-1.772-1.305-3.42-2.505-4.807c-0.049-0.056-0.103-0.104-0.149-0.158c-0.247-0.273-0.495-0.543-0.767-0.793
	c-0.332-0.306-0.683-0.596-1.052-0.866l-0.089-0.064l-1.042-0.759l0.859-1.104c0.688-0.879,1.05-1.931,1.05-3.041
	c0-2.324-1.649-4.365-3.921-4.849l-1.009-0.214l-0.06-1.031c-0.298-5.169-4.03-9.586-9.071-10.74l-1.357-0.31l0.343-1.346
	c0.113-0.439,0.162-0.871,0.168-1.285c0.02-1.443-0.663-2.808-1.672-3.842c-1.007-1.032-3.955-1.611-3.955-1.628v0.014
	c-3.008,0-5.282,2.409-5.317,5.351l0.155,2.288l-1.878-0.484c-6.681-1.295-9.813,2.787-9.862,6.713
	c-0.019,1.525,0.448,2.659,1.338,3.913l0.937,1.264l-1.457,0.668c-5.972,2.823-9.83,8.901-9.83,15.481
	c0,7.97,5.42,14.842,13.182,16.68l0.587,0.19l0.29,0.867c0.962,1.763,2.347,3.326,3.98,4.488c0.572,0.406,1.175,0.707,1.804,1.005
	c1.365,0.647,2.841,0.965,4.363,0.965h0.149c1.57,0,3.1-0.321,4.507-0.978c0.308-0.141,0.607-0.268,0.901-0.436
	c2.219-1.274,4.065-3.253,5.177-5.597l0.453-1.231C65.495,60.816,66.478,61.413,69.059,61.495z"></path><path d="M54.307,71.062c-1.17,0-2.301,0.633-3.304,0.306v13.135c0,2.49,1.128,3.607,2.713,3.607h0.573
	c1.585,0,2.73-1.117,2.73-3.607V73.679V71.6c-1.003,0.18-1.648-0.538-2.563-0.538H54.307z"></path><path d="M93.729,50.885l-0.922-0.458l0.589-0.875c0.563-0.792,0.854-1.87,0.844-2.836c-0.03-2.485-2.078-4.735-4.562-4.735h-0.057
	c-0.557,0-1.106,0.348-1.635,0.561l-1.208,0.679l0.039-1.413c-0.021-1.862-1.557-3.371-3.462-3.371l0,0
	c-0.915,0.011-1.77,0.383-2.407,1.038c-0.306,0.313-0.54,0.679-0.703,1.071c1.993,2.568,3.11,5.776,3.068,9.077
	c-0.094,7.522-5.521,14.363-15.247,14.986c0.509,3.555,3.561,6.354,7.229,6.407c0.035,0,0.07,0.046,0.106,0.046h0.095
	c0.452,0,0.923-0.105,1.395-0.201l0.656-0.159l0.288,0.373c1.224,2.58,3.856,3.999,6.7,3.999h0.095c2.677,0,5.138-1.281,6.424-3.639
	l0.182-0.201l0.372-0.038c4.912-1.163,8.344-5.479,8.344-10.523C99.952,56.504,97.511,52.673,93.729,50.885z"></path><path d="M43.983,73.679c-1.246,0-2.006,1.01-2.006,2.254v3.151H8.885v-3.151c0-1.244-0.76-2.254-2.005-2.254
	c-1.245,0-2.006,1.01-2.006,2.254v12.177h4.011v-6.017h33.092v6.017h4.011V75.933C45.989,74.688,45.229,73.679,43.983,73.679z"></path><path d="M39.972,66.849c0-0.994-0.808-1.804-1.804-1.804H12.695c-0.997,0-1.804,0.81-1.804,1.804v1.406
	c0,0.995,0.808,1.805,1.804,1.805h25.474c0.996,0,1.804-0.81,1.804-1.805V66.849z"></path><path d="M39.972,72.865c0-0.996-0.808-1.804-1.804-1.804H12.695c-0.997,0-1.804,0.808-1.804,1.804v1.408
	c0,0.996,0.808,1.803,1.804,1.803h25.474c0.996,0,1.804-0.807,1.804-1.803V72.865z"></path><circle cx="16.093" cy="30.61" r="6.602"></circle><path d="M10.334,21.194c0.274,0.667,1.038,0.985,1.706,0.712c0.668-0.275,0.987-1.038,0.712-1.706l-1.49-3.627
	c-0.274-0.668-1.039-0.987-1.706-0.712c-0.668,0.275-0.987,1.039-0.713,1.707L10.334,21.194z"></path><path d="M21.48,44.879c0.668-0.274,0.987-1.039,0.712-1.706l-1.49-3.628c-0.274-0.668-1.039-0.986-1.706-0.711
	c-0.668,0.274-0.987,1.039-0.713,1.706l1.49,3.627C20.048,44.834,20.812,45.152,21.48,44.879z"></path><path d="M6.444,29.193c0.093-0.717-0.412-1.372-1.128-1.464l-3.889-0.504c-0.716-0.092-1.371,0.412-1.464,1.129
	c-0.094,0.715,0.412,1.371,1.128,1.463l3.889,0.504C5.695,30.413,6.352,29.908,6.444,29.193z"></path><path d="M24.592,31.542c-0.094,0.715,0.412,1.371,1.128,1.464l3.888,0.504c0.716,0.092,1.373-0.412,1.465-1.128
	c0.093-0.717-0.413-1.372-1.128-1.465l-3.889-0.503C25.34,30.322,24.684,30.827,24.592,31.542z"></path><path d="M8.26,42.848l2.271-3.197c0.418-0.588,0.279-1.404-0.31-1.822c-0.589-0.418-1.404-0.279-1.822,0.309l-2.271,3.198
	c-0.417,0.586-0.278,1.404,0.311,1.821C7.026,43.575,7.842,43.438,8.26,42.848z"></path><path d="M20.814,22.909c0.588,0.417,1.403,0.279,1.821-0.31l2.271-3.197c0.418-0.587,0.278-1.405-0.309-1.822
	c-0.589-0.418-1.405-0.28-1.823,0.31l-2.27,3.197C20.087,21.675,20.225,22.49,20.814,22.909z"></path></svg>