<svg xmlns="http://www.w3.org/2000/svg" viewBox="0 0 64 100"><title>clipboard</title><path d="M37.22 4.756h10.303c2.05 0 3.756 1.476 4.126 3.43h9.103c1.74 0 3.15 1.417 3.15 3.168v75.723c0 1.75-1.41 3.168-3.15 3.168h-56.7c-1.74 0-3.15-1.418-3.15-3.168V11.354c0-1.75 1.41-3.168 3.15-3.168h9.104c.37-1.953 2.076-3.43 4.125-3.43h10.303c.177-2.52 2.266-4.51 4.818-4.51 2.55 0 4.64 1.99 4.818 4.51zm-24.137 8.9h-7.98v71.12h54.6v-71.12h-7.98v2.32h-38.64v-2.32zm-3.695 18.56c0 3.618 2.926 6.548 6.533 6.548s6.533-2.93 6.533-6.547c0-.583-.47-1.056-1.05-1.056-.58 0-1.05.474-1.05 1.057 0 2.45-1.983 4.435-4.432 4.435-2.448 0-4.432-1.986-4.432-4.435 0-2.448 1.984-4.434 4.433-4.434.58 0 1.05-.473 1.05-1.057 0-.583-.47-1.056-1.05-1.056-3.606 0-6.532 2.93-6.532 6.547zm0 18.41c0 3.616 2.926 6.546 6.533 6.546s6.533-2.93 6.533-6.547c0-.584-.47-1.056-1.05-1.056-.58 0-1.05.47-1.05 1.055 0 2.448-1.983 4.434-4.432 4.434-2.448 0-4.432-1.987-4.432-4.435 0-2.45 1.984-4.435 4.433-4.435.58 0 1.05-.473 1.05-1.056 0-.583-.47-1.056-1.05-1.056-3.606 0-6.532 2.93-6.532 6.547zm13.065 17.32c0-3.615-2.926-6.546-6.532-6.546S9.39 64.33 9.39 67.947c0 3.617 2.926 6.547 6.533 6.547s6.533-2.93 6.533-6.547zm-10.965 0c0-2.447 1.984-4.433 4.433-4.433 2.45 0 4.433 1.986 4.433 4.434 0 2.45-1.983 4.435-4.432 4.435-2.448 0-4.432-1.986-4.432-4.435zM51.636 33.85c1.16 0 2.1-.947 2.1-2.113 0-1.167-.94-2.112-2.1-2.112H28.51c-1.16 0-2.1.945-2.1 2.112 0 1.166.94 2.112 2.1 2.112h23.126zm0 18.375c1.16 0 2.1-.945 2.1-2.112 0-1.166-.94-2.112-2.1-2.112H28.51c-1.16 0-2.1.947-2.1 2.113 0 1.167.94 2.112 2.1 2.112h23.126zm0 17.215c1.16 0 2.1-.946 2.1-2.112 0-1.167-.94-2.112-2.1-2.112H28.51c-1.16 0-2.1.945-2.1 2.112 0 1.166.94 2.112 2.1 2.112h23.126zM15.68 33.73l.83.796.716-.9 5.814-7.32c.362-.455.288-1.12-.165-1.484-.453-.364-1.114-.29-1.476.166l-5.097 6.422-1.348-1.292c-.42-.402-1.085-.386-1.485.037-.4.422-.384 1.09.036 1.493l2.175 2.083zm0 18.368l.83.795.716-.9 5.814-7.32c.362-.455.288-1.12-.165-1.484-.453-.365-1.114-.29-1.476.165l-5.097 6.422-1.348-1.292c-.42-.402-1.085-.386-1.485.037-.4.422-.384 1.09.036 1.493l2.175 2.083z" fill="#000" fill-rule="evenodd"/></svg>