<?xml version="1.0" encoding="utf-8"?>
<!-- Generator: Adobe Illustrator 19.0.0, SVG Export Plug-In . SVG Version: 6.00 Build 0)  -->
<svg version="1.1" id="Layer_1" xmlns="http://www.w3.org/2000/svg" xmlns:xlink="http://www.w3.org/1999/xlink" x="0px" y="0px"
	 viewBox="-589 351 100 100" style="enable-background:new -589 351 100 100;" xml:space="preserve">
<g>
	<path d="M-489,448l-34.2-9.2l-31.7,8.5l-34.2-9.2v-85.8l34.2,9.2l31.7-8.5l34.2,9.2V448z M-523.2,436.8l32.2,8.6v-81.7l-32.2-8.6
		l-31.7,8.5L-587,355v81.7l32.2,8.6L-523.2,436.8z"/>
	<polygon points="-556.8,390.3 -556.8,390.2 -556.8,371.7 -565.8,381 	"/>
	<polygon points="-572.3,406.3 -584.6,393.5 -584.6,419 	"/>
	<polygon points="-558,391.5 -584.6,363.9 -584.6,391 -571.1,405 	"/>
	<polygon points="-567.3,379.3 -556.8,368.4 -556.8,365.5 -584.6,358.1 -584.6,361.4 	"/>
	<polygon points="-570.9,408.1 -584.6,422.3 -584.6,434.8 -556.8,442.3 -556.8,432.9 	"/>
	<polygon points="-556.8,393.5 -569.7,406.8 -556.8,429.3 	"/>
	<polygon points="-552.9,388.5 -552.9,393.3 -549.2,395.1 -525.7,358.2 -535.2,360.8 	"/>
	<polygon points="-547.7,395.9 -540.1,399.7 -525.1,385.9 -525.1,360.5 	"/>
	<polygon points="-525.1,388.2 -538.4,400.5 -525.1,407.2 	"/>
	<polygon points="-552.9,385.3 -546,374.4 -552.9,370.9 	"/>
	<polygon points="-551.3,436.9 -548,441 -525.1,434.8 -525.1,425.2 	"/>
	<polygon points="-552.9,395.8 -552.9,435 -552.6,435.4 -525.1,423.2 -525.1,409.7 	"/>
	<polygon points="-544.8,372.5 -537.8,361.5 -552.9,365.5 -552.9,368.4 	"/>
	<polygon points="-552.9,438.5 -552.9,442.3 -550.4,441.6 	"/>
	<polygon points="-508.7,425.6 -521.2,424.5 -521.2,434.8 -493.4,442.3 -493.4,441.6 	"/>
	<polygon points="-521.2,412.7 -521.2,422.5 -510.9,423.4 	"/>
	<polygon points="-493.4,409.8 -517.8,384.4 -521.2,385.7 -521.2,410.2 -493.4,439.1 	"/>
	<polygon points="-521.2,383.3 -493.4,372.5 -493.4,365.5 -521.2,358.1 	"/>
	<polygon points="-516.1,383.7 -493.4,407.2 -493.4,374.9 	"/>
</g>
</svg>
