<svg xmlns="http://www.w3.org/2000/svg" xmlns:xlink="http://www.w3.org/1999/xlink" xmlns:sketch="http://www.bohemiancoding.com/sketch/ns" viewBox="0 0 64 100" version="1.1" x="0px" y="0px"><title>clipboard</title><desc>Created with Sketch.</desc><g stroke="none" stroke-width="1" fill="none" fill-rule="evenodd" sketch:type="MSPage"><g sketch:type="MSArtboardGroup" transform="translate(-40.000000, -464.000000)" fill="#000000"><path d="M77.2206233,468.756404 L87.5232647,468.756404 C89.5725973,468.756404 91.2790775,470.23248 91.648597,472.185673 L100.752972,472.185673 C102.492549,472.185673 103.902755,473.603486 103.902755,475.353793 L103.902755,551.077192 C103.902755,552.826896 102.49297,554.245311 100.752972,554.245311 L44.052538,554.245311 C42.3129609,554.245311 40.9027549,552.827499 40.9027549,551.077192 L40.9027549,475.353793 C40.9027549,473.604089 42.3125396,472.185673 44.052538,472.185673 L53.1569296,472.185673 C53.5264686,470.232759 55.2328134,468.756404 57.2822452,468.756404 L67.5848865,468.756404 C67.7617841,466.235302 69.8512201,464.245311 72.4027549,464.245311 C74.9542898,464.245311 77.0437258,466.235302 77.2206233,468.756404 L77.2206233,468.756404 L77.2206233,468.756404 Z M53.0827549,477.656316 L45.1027549,477.656316 L45.1027549,548.774669 L99.7027549,548.774669 L99.7027549,477.656316 L91.7227549,477.656316 L91.7227549,479.9763 L53.0827549,479.9763 L53.0827549,477.656316 L53.0827549,477.656316 Z M49.3881619,496.217334 C49.3881619,499.834157 52.3138671,502.764338 55.9206698,502.764338 C59.5274726,502.764338 62.4531778,499.834157 62.4531778,496.217334 C62.4531778,495.634062 61.9830768,495.161226 61.4031778,495.161226 C60.8232788,495.161226 60.3531778,495.634062 60.3531778,496.217334 C60.3531778,498.665587 58.3696782,500.652121 55.9206698,500.652121 C53.4716615,500.652121 51.4881619,498.665587 51.4881619,496.217334 C51.4881619,493.769082 53.4716615,491.782548 55.9206698,491.782548 C56.5005688,491.782548 56.9706698,491.309712 56.9706698,490.726439 C56.9706698,490.143166 56.5005688,489.67033 55.9206698,489.67033 C52.3138671,489.67033 49.3881619,492.600511 49.3881619,496.217334 L49.3881619,496.217334 Z M49.3881619,514.624685 C49.3881619,518.241508 52.3138671,521.171689 55.9206698,521.171689 C59.5274726,521.171689 62.4531778,518.241508 62.4531778,514.624685 C62.4531778,514.041413 61.9830768,513.568577 61.4031778,513.568577 C60.8232788,513.568577 60.3531778,514.041413 60.3531778,514.624685 C60.3531778,517.072938 58.3696782,519.059472 55.9206698,519.059472 C53.4716615,519.059472 51.4881619,517.072938 51.4881619,514.624685 C51.4881619,512.176433 53.4716615,510.189899 55.9206698,510.189899 C56.5005688,510.189899 56.9706698,509.717063 56.9706698,509.13379 C56.9706698,508.550517 56.5005688,508.077681 55.9206698,508.077681 C52.3138671,508.077681 49.3881619,511.007863 49.3881619,514.624685 L49.3881619,514.624685 Z M62.4531778,531.947356 C62.4531778,528.330533 59.5274726,525.400352 55.9206698,525.400352 C52.3138671,525.400352 49.3881619,528.330533 49.3881619,531.947356 C49.3881619,535.564179 52.3138671,538.49436 55.9206698,538.49436 C59.5274726,538.49436 62.4531778,535.564179 62.4531778,531.947356 L62.4531778,531.947356 Z M51.4881619,531.947356 C51.4881619,529.499103 53.4716615,527.512569 55.9206698,527.512569 C58.3696782,527.512569 60.3531778,529.499103 60.3531778,531.947356 C60.3531778,534.395608 58.3696782,536.382143 55.9206698,536.382143 C53.4716615,536.382143 51.4881619,534.395608 51.4881619,531.947356 L51.4881619,531.947356 Z M91.636018,497.849112 C92.795816,497.849112 93.736018,496.90344 93.736018,495.736895 C93.736018,494.57035 92.795816,493.624678 91.636018,493.624678 L68.5092801,493.624678 C67.3494821,493.624678 66.4092801,494.57035 66.4092801,495.736895 C66.4092801,496.90344 67.3494821,497.849112 68.5092801,497.849112 L91.636018,497.849112 L91.636018,497.849112 Z M91.636018,516.225402 C92.795816,516.225402 93.736018,515.27973 93.736018,514.113185 C93.736018,512.946639 92.795816,512.000967 91.636018,512.000967 L68.5092801,512.000967 C67.3494821,512.000967 66.4092801,512.946639 66.4092801,514.113185 C66.4092801,515.27973 67.3494821,516.225402 68.5092801,516.225402 L91.636018,516.225402 L91.636018,516.225402 Z M91.636018,533.439972 C92.795816,533.439972 93.736018,532.4943 93.736018,531.327755 C93.736018,530.161209 92.795816,529.215538 91.636018,529.215538 L68.5092801,529.215538 C67.3494821,529.215538 66.4092801,530.161209 66.4092801,531.327755 C66.4092801,532.4943 67.3494821,533.439972 68.5092801,533.439972 L91.636018,533.439972 L91.636018,533.439972 Z M55.681016,497.731449 L56.5104779,498.526099 L57.2255165,497.625955 L63.0396031,490.306755 C63.4015819,489.851069 63.3277542,489.186514 62.8747043,488.822429 C62.4216545,488.458344 61.7609432,488.532602 61.3989644,488.988287 L56.302575,495.409892 L54.9545148,494.118409 C54.5346107,493.716128 53.8699842,493.732395 53.47003,494.154742 C53.0700758,494.577089 53.0862484,495.245582 53.5061526,495.647863 L55.681016,497.731449 L55.681016,497.731449 Z M55.681016,516.098407 L56.5104779,516.893057 L57.2255165,515.992914 L63.0396031,508.673713 C63.4015819,508.218027 63.3277542,507.553472 62.8747043,507.189388 C62.4216545,506.825303 61.7609432,506.89956 61.3989644,507.355246 L56.302575,513.77685 L54.9545148,512.485367 C54.5346107,512.083086 53.8699842,512.099353 53.47003,512.5217 C53.0700758,512.944047 53.0862484,513.61254 53.5061526,514.014821 L55.681016,516.098407 L55.681016,516.098407 Z" sketch:type="MSShapeGroup"/></g></g>
<!-- <text x="0" y="106" fill="#000000" font-size="5px" font-weight="bold" font-family="'Helvetica Neue', Helvetica, Arial-Unicode, Arial, Sans-serif">Created by Julynn B.</text><text x="0" y="111" fill="#000000" font-size="5px" font-weight="bold" font-family="'Helvetica Neue', Helvetica, Arial-Unicode, Arial, Sans-serif">from the Noun Project</text> -->
</svg>