<svg xmlns="http://www.w3.org/2000/svg" xmlns:xlink="http://www.w3.org/1999/xlink" version="1.1" x="0px" y="0px" viewBox="0 0 50.4 63" enable-background="new 0 0 50.4 50.4" xml:space="preserve"><g><path d="M26.53,10.843c-0.014,0.148-0.033,0.294-0.033,0.444c0,3.495,2.713,6.326,6.058,6.326c3.344,0,6.055-2.832,6.055-6.326   c0-0.151-0.021-0.297-0.031-0.444H26.53z"/><path d="M40.253,8.155c-0.396-3.512-2.425-6.392-5.141-7.519v5.403c0,0.32-0.26,0.579-0.579,0.579c-0.32,0-0.579-0.259-0.579-0.579   V0.272c-0.448-0.097-0.908-0.155-1.38-0.155c-0.468,0-0.924,0.059-1.369,0.156v5.766c0,0.32-0.259,0.579-0.578,0.579   c-0.32,0-0.579-0.259-0.579-0.579V0.638c-2.711,1.133-4.753,4.024-5.175,7.517h-2.001V9.66H42.26V8.155H40.253z"/></g><g><path d="M40.712,19.183l-2.604-0.001l-4.02,8.935v-9.111H31.31v9.02l-3.981-8.849l-2.601-0.001c-4.237,0-7.49,3.061-8.182,7.142   L13.21,14.731c-0.081-0.28-0.305-0.495-0.588-0.563l-5.501-1.325c-1.734-0.197-3.134,0.067-4.275,0.81   c-1.344,0.874-2.293,2.117-2.672,3.503c-0.354,1.295-0.161,2.644,0.488,3.865c0.008,0.021,0.005,0.042,0.015,0.063l7.487,16.011   L7.646,37.35c-3.762,1.849-1.076,7.31,2.687,5.459l0.41-0.201l2.608,5.576c0.421,0.902,1.23,1.62,2.219,1.971   c0.465,0.165,0.958,0.246,1.464,0.246c0.776,0,1.583-0.192,2.363-0.573c2.239-1.093,3.236-3.398,2.319-5.363l-0.038-0.08   c0.013-0.106,0.006-0.216-0.025-0.324l-0.547-1.901c0.375-0.492,0.628-1.142,0.628-1.992V28.501h1.697l-0.003,20.775h18.907   l0.007-20.775h1.661v17.825c0,4.065,5.299,4.065,5.288,0V28.07C49.291,23.582,45.966,19.183,40.712,19.183z M2.257,20.593   c-0.618-0.951-0.797-1.992-0.52-3.01c0.273-1.001,0.981-1.914,1.992-2.571c0.825-0.537,1.841-0.714,3.11-0.577l4.944,1.197   l5.686,19.75L9.367,18.054c-0.014-0.03-0.039-0.049-0.056-0.076c-0.1-0.255-0.227-0.504-0.382-0.743   c-1.036-1.593-3.177-2.046-4.772-1.009c-1.349,0.878-1.733,2.69-0.856,4.041C4.055,21.421,5.604,21.749,6.757,21   c0.997-0.65,1.281-1.991,0.634-2.988c-0.122-0.188-0.272-0.35-0.446-0.482c0.245,0.14,0.46,0.337,0.624,0.589   c0.749,1.151,0.422,2.696-0.727,3.443C5.308,22.558,3.252,22.122,2.257,20.593z M18.687,48.371   c-0.895,0.437-1.811,0.524-2.576,0.256c-0.582-0.207-1.053-0.617-1.292-1.129l-2.621-5.605l0.136-0.067   c3.763-1.847,1.077-7.311-2.686-5.458l-0.027,0.014L3.585,23.475c1.352,0.415,2.865,0.273,4.141-0.554   c0.619-0.404,1.078-0.954,1.394-1.57L20.247,45.15C20.78,46.292,20.109,47.677,18.687,48.371z"/></g><text x="0" y="65.4" fill="#000000" font-size="5px" font-weight="bold" font-family="'Helvetica Neue', Helvetica, Arial-Unicode, Arial, Sans-serif">Created by Luis Prado</text><text x="0" y="70.4" fill="#000000" font-size="5px" font-weight="bold" font-family="'Helvetica Neue', Helvetica, Arial-Unicode, Arial, Sans-serif">from the Noun Project</text></svg>