<svg xmlns="http://www.w3.org/2000/svg" viewBox="0 0 100 100"><path d="M76.89 36.235c-2.386-12.093-12.94-20.918-25.54-20.918-8.6 0-16.46 4.118-21.34 11.097-12.494.736-22.052 9.772-22.052 21.174C7.958 59.395 17.448 69 29.115 69c1.657 0 3-1.343 3-3s-1.343-3-3-3c-8.357 0-15.157-6.914-15.157-15.412 0-8.678 7.61-15.223 17.703-15.223 1.046 0 2.016-.544 2.56-1.436 3.678-6.02 10.08-9.614 17.128-9.614 10.38 0 18.955 7.778 19.95 18.092.147 1.54 1.44 2.712 2.985 2.712 8.117 0 12.963 3.854 12.963 10.31 0 5.73-4.74 10.57-10.35 10.57H68c-1.657 0-3 1.343-3 3s1.343 3 3 3h8.895c9.017 0 16.353-7.433 16.353-16.568 0-9.14-6.334-15.296-16.357-16.197zm-25.644 7.91c-1.125-1.126-3.117-1.126-4.243 0L36.43 54.72c-1.172 1.172-1.172 3.07 0 4.242 1.17 1.172 3.07 1.172 4.242 0L46 53.634V82c0 1.657 1.343 3 3 3s3-1.343 3-3V53.384l5.578 5.578c.586.586 1.354.88 2.12.88s1.536-.294 2.122-.88c1.172-1.17 1.172-3.07 0-4.242L51.246 44.145z"/></svg>