<svg xmlns="http://www.w3.org/2000/svg" xmlns:xlink="http://www.w3.org/1999/xlink" version="1.1" x="0px" y="0px" viewBox="0 0 100 100" enable-background="new 0 0 100 100" xml:space="preserve"><path d="M75.146,51.505c-1.213-1.718-3.538,0.404-4.043,0.708c-0.506,0.304-0.202,0.102-2.325-0.505  c-2.122-0.607-3.639,0.809-4.145,1.819c-0.504,1.01-3.436,6.974-3.941,7.883c-0.506,0.91-1.718,0.305-1.718,0.305  s-2.072-1.214-2.831-1.517c-0.758-0.304-1.313,0.354-1.313,0.354l-2.476,2.628c0,0-9.603-4.473-10.664-5.055  c-1.061-0.58-3.487-6.67-4.194-7.934s-0.556-2.224-0.556-2.224s-0.152-2.628-0.203-7.379c-0.05-4.75-2.072-6.822-2.476-7.479  c-0.404-0.657-0.051-1.212-0.051-1.212l0.486-1.054c2.798-0.337,4.967-2.718,4.967-5.607c0-3.12-2.53-5.649-5.65-5.649  c-3.121,0-5.65,2.53-5.65,5.649c0,1.128,0.332,2.178,0.901,3.06c-0.033,0.288-0.079,0.731-0.108,1.226  c-0.05,0.859-1.112,1.112-1.112,1.112s-2.425-0.051-3.032-0.051c-0.607,0-1.213,0.253-1.213,0.253s-9.552,4.801-10.613,5.307  c-1.061,0.505-0.96,1.313-0.96,1.313l-0.708,8.288c0,0-0.455,0.354-0.708,0.506c-0.252,0.151-0.252,0.455-0.252,0.455  s0,0.96,0,1.314s0.556,0.556,0.556,0.556s1.011,0.455,1.465,0.707c0.455,0.253,0.606,0,0.606,0s1.718-0.455,2.072-0.657  c0.354-0.202,0.657-0.202,0.657-0.202l1.061,0.556c0,0,0.202,9.905,0.202,11.067c0,1.163-0.505,1.769-0.505,1.769  s-7.177,9.754-7.935,10.814c-0.758,1.062,0.167,1.697,0.167,1.697l1.249,0.83c0,0,0.935,0.506,0.935,1.087s-0.783,0.784-0.783,0.784  H5.404v2.678l90.159,0.102L75.146,51.505z M15.713,45.845c-0.151-0.303,0.455-5.862,0.455-5.862l5.104-2.527  c0,0,0.556-0.404,0.506,0.329c-0.051,0.733-0.91,3.613-0.91,3.613l-2.779,5.61C18.089,47.007,15.865,46.148,15.713,45.845z   M18.24,77.092l-1.415-2.693c0,0-0.303-0.707-0.303-1.162s0.354-1.162,0.354-1.162l5.862-8.49c0,0,0.404-0.708,0.506-1.516  c0.101-0.809,0.707-6.217,0.707-6.217s0.102-0.102,0.304,0.102c0.202,0.201,4.801,6.316,4.801,6.316s0.354,0.758,0.354,1.213  s0.151,13.545,0.151,13.545L18.24,77.092z M29.207,50.141c0-1.112-0.101-2.274,0.505-3.083c0.607-0.809,2.375-2.78,2.375-2.78  l0.152,4.195c0,0,0,1.162,0.404,1.971c0.404,0.809,2.123,4.195,2.123,4.195l-4.195-1.869C30.571,52.77,29.207,51.253,29.207,50.141z   M49.271,70.861c0,0-0.657,0.252-1.062,0.404c-0.404,0.151-1.364,0.354-1.718,1.516c-0.354,1.162-0.557,1.92-1.416,2.072  c-0.859,0.151-1.011,0.354-1.566,0.909c-0.556,0.557-0.67,1.163-1.175,1.265c-0.505,0.101-3.879,0.064-3.879,0.064l-2.476-3.855  c0,0-0.253-0.607-0.253-1.162c0-0.557-0.253-10.311-0.253-10.311s-0.151-0.808-0.505-1.414c-0.354-0.606-2.173-3.689-2.173-3.689  l17.767,8.656l-0.938,1.147c0,0-0.809,0.961,0.101,1.365S52.1,68.84,52.1,68.84l0.051,0.404L49.271,70.861z"></path></svg>