<svg xmlns="http://www.w3.org/2000/svg" xmlns:xlink="http://www.w3.org/1999/xlink" version="1.1" x="0px" y="0px" viewBox="0 0 100 100" enable-background="new 0 0 100 100" xml:space="preserve"><path d="M76.891,36.235c-2.387-12.093-12.942-20.918-25.542-20.918c-8.6,0-16.46,4.118-21.34,11.097  C17.516,27.15,7.958,36.186,7.958,47.588C7.958,59.395,17.449,69,29.115,69c1.657,0,3-1.343,3-3s-1.343-3-3-3  c-8.357,0-15.157-6.914-15.157-15.412c0-8.678,7.611-15.223,17.703-15.223c1.045,0,2.015-0.544,2.56-1.436  c3.677-6.02,10.08-9.613,17.127-9.613c10.379,0,18.955,7.778,19.949,18.092c0.148,1.539,1.441,2.712,2.986,2.712  c8.117,0,12.963,3.854,12.963,10.311C87.247,58.16,82.506,63,76.895,63H68c-1.657,0-3,1.343-3,3s1.343,3,3,3h8.895  c9.017,0,16.353-7.433,16.353-16.568C93.247,43.292,86.914,37.136,76.891,36.235z M51.246,44.145c-1.125-1.126-3.117-1.126-4.243,0  L36.429,54.72c-1.171,1.172-1.171,3.071,0,4.242c1.171,1.172,3.071,1.172,4.243,0L46,53.634V82c0,1.657,1.343,3,3,3s3-1.343,3-3  V53.384l5.578,5.578c0.586,0.586,1.354,0.879,2.121,0.879s1.535-0.293,2.121-0.879c1.172-1.171,1.172-3.07,0-4.242L51.246,44.145z"/>
<!-- <text x="0" y="115" fill="#000000" font-size="5px" font-weight="bold" font-family="'Helvetica Neue', Helvetica, Arial-Unicode, Arial, Sans-serif">Created by Rodolfo Alvarez</text><text x="0" y="120" fill="#000000" font-size="5px" font-weight="bold" font-family="'Helvetica Neue', Helvetica, Arial-Unicode, Arial, Sans-serif">from the Noun Project</text> -->
</svg>