<?xml version="1.0" encoding="utf-8"?>
<!-- Generator: Adobe Illustrator 19.0.0, SVG Export Plug-In . SVG Version: 6.00 Build 0)  -->
<svg version="1.1" id="Layer_1" xmlns="http://www.w3.org/2000/svg" xmlns:xlink="http://www.w3.org/1999/xlink" x="0px" y="0px"
	 viewBox="-589 351 100 100" style="enable-background:new -589 351 100 100;" xml:space="preserve">
<style type="text/css">
	.st0{fill:none;stroke:#000000;stroke-miterlimit:10;}
</style>
<g>
	<g>
		<g>
			<g>
				<path d="M-506.4,402.5C-506.4,402.6-506.4,402.6-506.4,402.5v0.1V402.5z"/>
				<path d="M-512.3,382.1C-512.3,382.1-512.3,382.1-512.3,382.1L-512.3,382.1L-512.3,382.1z"/>
				<path class="st0" d="M-519.2,408.4c-0.1-1.4,1-2.4,2.4-3c0.1,0,0.1-0.1,0.2-0.1c1.3,1.7,0.2,4.4-1.9,4.9
					C-518.6,410.2-519.2,408.9-519.2,408.4z"/>
				<path class="st0" d="M-523,415c-1.3-0.7-3.1-3.5-3.3-5.1c-0.1-0.6,0.1-1.7,0.9-2.3c2.7-2.1,4.1,0.3,4.6,1.4c0,0,1.4,2.6,1.4,3.5
					C-519.3,414.1-521.5,415.7-523,415z"/>
				<path d="M-528.2,408.4c-0.1,0.4-0.2,0.7-0.3,0.9C-528.4,409-528.3,408.7-528.2,408.4z"/>
				<path d="M-528.4,409.4c-0.2,0-0.5-0.1-0.9-0.1C-528.8,409.2-528.5,409.3-528.4,409.4z"/>
				<path class="st0" d="M-529,393.3c-2,5-11.5-5.1-13.9-4c-1.7,0.9-14.8,12.3-16.2,13.5c-6.8,5.7-5.8,7.9-6.2,8
					c0.1,0-1.8,0.5-6.5-0.9c-1.2-0.4-2.3-0.7-3.3-0.8c0.5-1.7,1.1-3.4,1.8-5c2.1-5.1,4.1-11,6.5-16.2c0.6,0.2,1.1,0.5,1.7,0.8
					c4.1,2,9.2,4.5,13.2,0c2.3-2.6,6.5-6,10.1-6.4C-538.9,381.7-527.7,391.3-529,393.3z"/>
				<path class="st0" d="M-531.1,411.8c1.1-1,2.2-0.9,2.9-0.6c1.9,0.8,3.8,4.3,3.8,4.3c0.5,2.5-2,4.3-4.1,3.4
					c-1-0.4-2.6-2.2-3.1-3.2C-532.1,414.8-532.1,412.6-531.1,411.8z"/>
				<path class="st0" d="M-529.5,420.5c0.7,1.9-2.2,3.9-5.1,2.7c0,0,0,0,0,0c-0.1,0-0.1-0.1-0.1-0.3c-0.1-0.3-0.7-1.1-0.7-1.6
					c-0.5-1.5,0.5-2.7,1.2-3.3C-533,416.5-529.9,419.3-529.5,420.5z"/>
				<path d="M-535.9,416.5c-1.3,1.2-1.3,1.9-1.3,3.4c0,0.3,0.3,1.4,0.3,1.7c-6,3.7-6-1.4-5.8-1.5c6.8-6.5,7.9-10.2,7.9-10.2
					c-0.5,0.2-6.7,7.6-9.5,8.9c-2.7,1.4-4,1-5,0.5c-0.5-0.3-0.7-0.8-0.8-1.6c4.5-1.5,11.6-10.4,11.7-11.7c0,0-8.5,9.3-12.9,10.4
					c-0.8,0.3-1.4,0.4-2,0.4c-1.1,0-1.8-0.2-2.2-0.7c-0.5-0.6-0.6-1.7-0.3-3.2c5.9-3.5,12.5-10.5,11.7-11.1l-6.3,5.3
					c-2.9,2.2-8.9,6.1-9.1,5.8c-1,0.4-1.7,0.2-2.8-0.6c-0.3-0.2-0.5-0.5-0.6-0.8c-2.8-3,8.1-8.6,20.5-20.4c2,0.7,7.1,5.5,11.3,5.4
					c1.7,0,4.6-1.7,4.6-3.4c0-2.5-5.8-7.5-8.5-9.6c2.1-0.1,6.8,0.5,9.3,0.7c1.9,0.1,3.9,0.3,5.8,0.3c2.9,0,5.1-0.5,7.4-1.7
					c2,4.6,5.3,19.1,4.8,19.1c-3.1,0-7.4-0.1-10.3,1.4c-1.4,0.7-2.4,1.7-3,3c-1.9-1.7-4.1-1.9-5.8-0.6c-0.8,0.6-1,1.8-1.2,2.8
					c-0.2,0.3-0.3,0.6-0.3,0.9v0c0,0,0,0,0,0.1c-0.1-0.1-0.4-0.2-0.9-0.1c0,0,0,0,0,0c0,0,0,0,0,0c-0.9-0.2-2.2-0.3-3.3,0.5
					c-1.3,1-1.3,2.8-0.8,4.2c0.1,0.5,0.1,1,0.3,1.5C-533.6,415.7-535.5,416.2-535.9,416.5z"/>
			</g>
		</g>
	</g>
</g>
</svg>
