<svg xmlns="http://www.w3.org/2000/svg" viewBox="0 0 100 125" x="0px" y="0px"><path d="m28.406 5c-1.875 0-3.406 1.531-3.406 3.406l0 83.19c0 1.875 1.531 3.406 3.406 3.406l47.5 0c1.875 0 3.406-1.531 3.406-3.406l0-83.19c0-1.875-1.531-3.406-3.406-3.406l-47.5 0m18 3.688l11.469 0c.551 0 1 .449 1 1 0 .551-.449.969-1 .969l-11.469 0c-.551 0-1-.417-1-.969 0-.551.449-1 1-1m-16.406 5.5l44.31 0 0 68.906-44.31 0 0-68.906m22.16 71.66c1.629 0 2.938 1.34 2.938 2.969 0 1.629-1.308 2.938-2.938 2.938-1.629 0-2.969-1.308-2.969-2.938 0-1.629 1.34-2.969 2.969-2.969" color="#000"/><path d="m69.64 31.14c-4.468-4.47-10.635-7.245-17.452-7.245-6.818 0-13.02 2.774-17.484 7.245l2.512 2.479c3.83-3.832 9.129-6.182 14.973-6.182 5.842 0 11.11 2.35 14.94 6.182z"/><path d="m64.65 36.1c-3.184-3.194-7.625-5.152-12.493-5.152-4.865 0-9.27 1.958-12.461 5.152l2.479 2.512c2.554-2.555 6.086-4.121 9.982-4.121.243 0 .468-.012.708 0 3.61.183 6.875 1.718 9.273 4.121z"/><path d="m59.63 41.13c-1.914-1.914-4.548-3.123-7.47-3.123-2.921 0-5.556 1.207-7.47 3.123l2.512 2.479c1.277-1.278 3.01-2.061 4.959-2.061 1.948 0 3.714.783 4.991 2.061z"/><path d="m46.18644 60.805084a2.754237 2.754237 0 1 1 -5.508474 0 2.754237 2.754237 0 1 1 5.508474 0" transform="matrix(1.08923 0 0 1.08923 4.761-18.231)" color="#000"/></svg>