<?xml version="1.0" encoding="utf-8"?><!DOCTYPE svg PUBLIC "-//W3C//DTD SVG 1.1//EN" "http://www.w3.org/Graphics/SVG/1.1/DTD/svg11.dtd"><svg version="1.1" xmlns="http://www.w3.org/2000/svg" xmlns:xlink="http://www.w3.org/1999/xlink" x="0px" y="0px" viewBox="0 0 82 125" enable-background="new 0 0 82 100" xml:space="preserve"><path d="M69.978,30.022l0.013-0.014L41,0L12.01,30.009l0.013,0.014C4.598,37.446,0,47.696,0,59c0,22.607,18.393,41,41,41
	s41-18.393,41-41C82,47.696,77.402,37.446,69.978,30.022z M21.909,39.909L41,19.8l19.091,20.109l-0.008,0.008
	C64.972,44.807,68,51.557,68,59c0,0.033-0.002,0.066-0.002,0.101c-0.445-0.092-0.939-0.146-1.498-0.146
	c-2.275,0-3.49,0.88-4.562,1.657C60.912,61.356,60.024,62,58.09,62c-2.055,0-2.979-0.656-4.047-1.416
	c-1.074-0.764-2.293-1.629-4.543-1.629c-2.275,0-3.49,0.88-4.562,1.657C43.912,61.356,43.024,62,41.089,62
	c-2.054,0-2.978-0.656-4.047-1.416c-1.074-0.764-2.292-1.629-4.542-1.629c-2.275,0-3.49,0.88-4.562,1.657
	C26.912,61.356,26.024,62,24.089,62c-2.054,0-2.978-0.656-4.047-1.416c-1.074-0.764-2.292-1.629-4.542-1.629
	c-0.559,0-1.053,0.054-1.498,0.146C14.002,59.067,14,59.034,14,59c0-7.443,3.028-14.193,7.917-19.083L21.909,39.909z M41,86
	c-12.115,0-22.391-8.021-25.799-19.031c0.099-0.005,0.193-0.014,0.299-0.014c1.612,0,2.394,0.556,3.384,1.259
	C20.062,69.052,21.396,70,24.089,70c2.583,0,3.88-0.939,5.023-1.769c0.983-0.713,1.76-1.276,3.387-1.276
	c1.612,0,2.394,0.556,3.384,1.259C37.062,69.052,38.396,70,41.089,70c2.583,0,3.879-0.939,5.024-1.769
	c0.982-0.713,1.76-1.276,3.387-1.276c1.612,0,2.395,0.556,3.384,1.259C54.062,69.052,55.396,70,58.09,70
	c2.583,0,3.879-0.939,5.023-1.769c0.982-0.713,1.76-1.276,3.387-1.276c0.105,0,0.199,0.009,0.299,0.014
	C63.391,77.979,53.115,86,41,86z"/></svg>