<svg xmlns="http://www.w3.org/2000/svg" xmlns:xlink="http://www.w3.org/1999/xlink" version="1.1" x="0px" y="0px" viewBox="0 0 100 94.45" enable-background="new 0 0 100 94.45" xml:space="preserve"><path d="M100,68.062c-1.736,0.694-3.473,1.389-5.556,1.389c-4.167,0-6.944-2.777-11.111-2.777c-4.166,0-6.944,2.777-11.111,2.777  c-4.166,0-6.944-2.777-11.11-2.777c-4.167,0-6.944,2.777-11.111,2.777c-4.167,0-6.944-2.777-11.111-2.777s-6.944,2.777-11.111,2.777  c-4.167,0-6.944-2.777-11.111-2.777S9.723,69.45,5.556,69.45c-2.083,0-3.82-0.691-5.556-1.386v8.333  c1.736,0.694,3.472,1.387,5.556,1.387c4.167,0,6.944-2.778,11.111-2.778s6.944,2.778,11.111,2.778c4.167,0,6.945-2.778,11.111-2.778  S45.833,77.784,50,77.784c4.167,0,6.944-2.778,11.111-2.778c4.166,0,6.944,2.778,11.11,2.778c4.167,0,6.945-2.778,11.111-2.778  c4.167,0,6.944,2.778,11.111,2.778c2.083,0,3.819-0.694,5.556-1.39V68.062z"></path><path d="M100,84.729c-1.736,0.694-3.473,1.389-5.556,1.389c-4.167,0-6.944-2.778-11.111-2.778c-4.166,0-6.944,2.778-11.111,2.778  c-4.166,0-6.944-2.778-11.11-2.778c-4.167,0-6.944,2.778-11.111,2.778c-4.167,0-6.944-2.778-11.111-2.778s-6.944,2.778-11.111,2.778  c-4.167,0-6.944-2.778-11.111-2.778s-6.944,2.778-11.111,2.778c-2.083,0-3.82-0.691-5.556-1.387v8.334  c1.736,0.694,3.472,1.386,5.556,1.386c4.167,0,6.944-2.777,11.111-2.777s6.944,2.777,11.111,2.777c4.167,0,6.945-2.777,11.111-2.777  S45.833,94.45,50,94.45c4.167,0,6.944-2.777,11.111-2.777c4.166,0,6.944,2.777,11.11,2.777c4.167,0,6.945-2.777,11.111-2.777  c4.167,0,6.944,2.777,11.111,2.777c2.083,0,3.819-0.694,5.556-1.389V84.729z"></path><path d="M91.666,52.777l-0.001-38.889L73.611,25v16.667h-6.906v-22.28h-8.373V0H36.111v31.732H25V20.833l-9.028-5.556l-9.027,5.556  v19.444H0l0,19.454c1.736,0.694,3.472,1.386,5.556,1.386c4.167,0,6.944-2.777,11.111-2.777s6.944,2.777,11.111,2.777  c4.167,0,6.945-2.777,11.111-2.777S45.833,61.117,50,61.117c4.167,0,6.944-2.777,11.111-2.777c4.166,0,6.944,2.777,11.11,2.777  c4.167,0,6.945-2.777,11.111-2.777c4.167,0,6.944,2.777,11.111,2.777c2.083,0,3.819-0.694,5.556-1.389v-6.951H91.666z"></path><path d="M83.333,66.673c-4.166,0-6.944,2.777-11.111,2.777c-4.166,0-6.944-2.777-11.11-2.777c-4.167,0-6.944,2.777-11.111,2.777  c-4.167,0-6.944-2.777-11.111-2.777s-6.944,2.777-11.111,2.777c-4.167,0-6.944-2.777-11.111-2.777S9.723,69.45,5.556,69.45  c-2.083,0-3.82-0.691-5.556-1.386v8.333c1.736,0.694,3.472,1.387,5.556,1.387c4.167,0,6.944-2.778,11.111-2.778  s6.944,2.778,11.111,2.778c4.167,0,6.945-2.778,11.111-2.778S45.833,77.784,50,77.784c4.167,0,6.944-2.778,11.111-2.778  c4.166,0,6.944,2.778,11.11,2.778c4.167,0,6.945-2.778,11.111-2.778c4.167,0,6.944,2.778,11.111,2.778  c2.083,0,3.819-0.694,5.556-1.39v-8.333c-1.736,0.694-3.473,1.389-5.556,1.389C90.277,69.45,87.5,66.673,83.333,66.673z"></path></svg>